<svg width="61" height="61" viewBox="0 0 61 61" fill="none" xmlns="http://www.w3.org/2000/svg">
<path opacity="0.9" d="M30.478 39.5466C34.9753 39.5466 38.621 35.8758 38.621 31.3477C38.621 26.8196 34.9753 23.1488 30.478 23.1488C25.9807 23.1488 22.335 26.8196 22.335 31.3477C22.335 35.8758 25.9807 39.5466 30.478 39.5466Z" fill="#BC936F"/>
<path d="M18.2827 11.4558C26.6293 7.18783 34.8043 7.3555 42.6731 11.4558" stroke="#BC936F" stroke-width="2" stroke-miterlimit="10" stroke-linecap="round" stroke-linejoin="round"/>
<path d="M21.0518 3.19944C27.5043 0.125486 33.8239 0.411711 39.9047 3.19944" stroke="#BC936F" stroke-width="2" stroke-miterlimit="10" stroke-linecap="round" stroke-linejoin="round"/>
<path d="M42.6731 49.5442C34.3265 53.8122 26.1516 53.6445 18.2827 49.5442" stroke="#BC936F" stroke-width="2" stroke-miterlimit="10" stroke-linecap="round" stroke-linejoin="round"/>
<path d="M39.9061 57.8007C33.4536 60.8746 27.134 60.5884 21.0532 57.8007" stroke="#BC936F" stroke-width="2" stroke-miterlimit="10" stroke-linecap="round" stroke-linejoin="round"/>
<path d="M49.6152 18.6656C53.8541 27.0695 53.6876 35.3006 49.6152 43.2234" stroke="#BC936F" stroke-width="2" stroke-miterlimit="10" stroke-linecap="round" stroke-linejoin="round"/>
<path d="M57.8154 21.4535C60.8684 27.9503 60.5842 34.3133 57.8154 40.4358" stroke="#BC936F" stroke-width="2" stroke-miterlimit="10" stroke-linecap="round" stroke-linejoin="round"/>
<path d="M11.3846 43.2234C7.14572 34.8196 7.31225 26.5885 11.3846 18.6656" stroke="#BC936F" stroke-width="2" stroke-miterlimit="10" stroke-linecap="round" stroke-linejoin="round"/>
<path d="M3.18445 40.4358C0.131446 33.939 0.41572 27.576 3.18445 21.4535" stroke="#BC936F" stroke-width="2" stroke-miterlimit="10" stroke-linecap="round" stroke-linejoin="round"/>
<path opacity="0.32" d="M30.5002 46.8379C38.9968 46.8379 45.8846 39.9028 45.8846 31.3479C45.8846 22.793 38.9968 15.8579 30.5002 15.8579C22.0036 15.8579 15.1157 22.793 15.1157 31.3479C15.1157 39.9028 22.0036 46.8379 30.5002 46.8379Z" fill="#BC936F"/>
</svg>
