<svg width="59" height="59" viewBox="0 0 59 59" fill="none" xmlns="http://www.w3.org/2000/svg">
<path opacity="0.9" d="M7.16232 36.6622C11.118 36.6622 14.3246 33.4555 14.3246 29.4998C14.3246 25.5442 11.118 22.3375 7.16232 22.3375C3.20668 22.3375 0 25.5442 0 29.4998C0 33.4555 3.20668 36.6622 7.16232 36.6622Z" fill="#BC936F"/>
<path opacity="0.4" d="M51.8376 36.6622C55.7933 36.6622 58.9999 33.4555 58.9999 29.4998C58.9999 25.5442 55.7933 22.3375 51.8376 22.3375C47.882 22.3375 44.6753 25.5442 44.6753 29.4998C44.6753 33.4555 47.882 36.6622 51.8376 36.6622Z" fill="#BC936F"/>
<path opacity="0.8" d="M10.0324 47.6165C13.9881 47.6165 17.1948 44.4098 17.1948 40.4542C17.1948 36.4985 13.9881 33.2919 10.0324 33.2919C6.0768 33.2919 2.87012 36.4985 2.87012 40.4542C2.87012 44.4098 6.0768 47.6165 10.0324 47.6165Z" fill="#BC936F"/>
<path opacity="0.3" d="M48.9675 25.7082C52.9231 25.7082 56.1298 22.5015 56.1298 18.5459C56.1298 14.5902 52.9231 11.3835 48.9675 11.3835C45.0119 11.3835 41.8052 14.5902 41.8052 18.5459C41.8052 22.5015 45.0119 25.7082 48.9675 25.7082Z" fill="#BC936F"/>
<path opacity="0.7" d="M17.8327 55.7109C21.7884 55.7109 24.995 52.5042 24.995 48.5486C24.995 44.5929 21.7884 41.3862 17.8327 41.3862C13.8771 41.3862 10.6704 44.5929 10.6704 48.5486C10.6704 52.5042 13.8771 55.7109 17.8327 55.7109Z" fill="#BC936F"/>
<path opacity="0.2" d="M41.1657 17.6135C45.1214 17.6135 48.3281 14.4068 48.3281 10.4511C48.3281 6.4955 45.1214 3.28882 41.1657 3.28882C37.2101 3.28882 34.0034 6.4955 34.0034 10.4511C34.0034 14.4068 37.2101 17.6135 41.1657 17.6135Z" fill="#BC936F"/>
<path opacity="0.6" d="M29.5002 59.0001C33.4559 59.0001 36.6625 55.7934 36.6625 51.8377C36.6625 47.8821 33.4559 44.6754 29.5002 44.6754C25.5446 44.6754 22.3379 47.8821 22.3379 51.8377C22.3379 55.7934 25.5446 59.0001 29.5002 59.0001Z" fill="#BC936F"/>
<path opacity="0.1" d="M29.5002 14.3246C33.4559 14.3246 36.6625 11.118 36.6625 7.16232C36.6625 3.20668 33.4559 0 29.5002 0C25.5446 0 22.3379 3.20668 22.3379 7.16232C22.3379 11.118 25.5446 14.3246 29.5002 14.3246Z" fill="#BC936F"/>
<path opacity="0.5" d="M40.0417 56.356C43.9974 56.356 47.204 53.1493 47.204 49.1937C47.204 45.2381 43.9974 42.0314 40.0417 42.0314C36.0861 42.0314 32.8794 45.2381 32.8794 49.1937C32.8794 53.1493 36.0861 56.356 40.0417 56.356Z" fill="#BC936F"/>
<path d="M18.9587 16.9687C22.9143 16.9687 26.121 13.762 26.121 9.80636C26.121 5.85072 22.9143 2.64404 18.9587 2.64404C15.0031 2.64404 11.7964 5.85072 11.7964 9.80636C11.7964 13.762 15.0031 16.9687 18.9587 16.9687Z" fill="#BC936F"/>
<path opacity="0.5" d="M48.6789 48.1136C52.6346 48.1136 55.8412 44.9069 55.8412 40.9513C55.8412 36.9956 52.6346 33.7889 48.6789 33.7889C44.7233 33.7889 41.5166 36.9956 41.5166 40.9513C41.5166 44.9069 44.7233 48.1136 48.6789 48.1136Z" fill="#BC936F"/>
<path opacity="0.95" d="M10.321 25.2108C14.2767 25.2108 17.4833 22.0041 17.4833 18.0484C17.4833 14.0928 14.2767 10.8861 10.321 10.8861C6.36537 10.8861 3.15869 14.0928 3.15869 18.0484C3.15869 22.0041 6.36537 25.2108 10.321 25.2108Z" fill="#BC936F"/>
</svg>
