<svg width="529" height="94" viewBox="0 0 529 94" fill="none" xmlns="http://www.w3.org/2000/svg">
<path d="M6.11572 15.8022C31.4921 7.75574 58.4333 4.82877 84.9137 7.24116C112.674 9.7723 139.478 18.0057 166.863 22.8194C195.206 27.8026 222.008 26.371 250.086 20.3653C256.584 18.9754 263.059 17.4647 269.536 15.9803C292.493 10.7179 314.146 6.00747 337.921 6.85852C358.259 7.58641 378.35 11.3358 398.141 15.9561C417.395 20.4488 436.729 26.4391 456.672 26.4391C476.171 26.4391 502.893 19.1096 523.116 14.7114" stroke="#BC936F" stroke-miterlimit="10" stroke-linecap="round" stroke-linejoin="round" stroke-dasharray="5 5"/>
<path d="M523.114 26.4395C523.114 26.4395 459.723 43.6649 413.359 43.6649C366.994 43.6649 334.03 26.4395 284.767 26.4395C235.503 26.4395 209.422 43.6649 160.521 43.6649C111.62 43.6649 89.1626 26.4395 6.93506 26.4395" stroke="#BC936F" stroke-miterlimit="10" stroke-linecap="round" stroke-linejoin="round" stroke-dasharray="5 5"/>
<path d="M6.9375 43.6667C6.9375 43.6667 75.3989 60.1598 118.143 60.1598C146.112 60.1598 173.264 52.9557 200.603 47.9374C227.998 42.9081 254.559 42.963 282.031 47.5987C303.232 51.1744 324.207 56.2191 345.606 58.5215C372.61 61.4265 399.98 59.8498 426.756 55.2669C458.691 49.8 490.87 40.0383 522.884 45.0126" stroke="#BC936F" stroke-miterlimit="10" stroke-linecap="round" stroke-linejoin="round" stroke-dasharray="5 5"/>
<path d="M523.114 67.8572C497.427 60.178 470.797 57.0025 444.073 59.5996C402.027 63.6855 361.926 78.8679 319.178 74.4544C293.554 71.8089 268.234 66.8962 242.762 63.1291C216.771 59.2873 191.846 59.9163 165.905 64.2617C148.753 67.1359 131.724 70.7951 114.459 72.9524C96.3459 75.2131 78.0265 75.776 59.8114 74.6523C41.9289 73.5506 24.5179 69.9573 6.9375 67.1644" stroke="#BC936F" stroke-miterlimit="10" stroke-linecap="round" stroke-linejoin="round" stroke-dasharray="5 5"/>
<path d="M6.9375 87.6488C26.5522 87.4993 46.0909 88.6274 65.6426 86.4811C86.0354 84.2403 106.152 80.0136 126.521 77.599C155.37 74.1773 184.646 74.45 213.43 78.3929C258.136 84.5173 301.763 89.0673 346.86 83.8224C375.836 80.4535 404.003 74.7842 433.33 75.8684C462.669 76.9547 491.679 82.0368 520.524 87.2486C521.387 87.4047 522.252 87.5609 523.114 87.717" stroke="#BC936F" stroke-miterlimit="10" stroke-linecap="round" stroke-linejoin="round" stroke-dasharray="5 5"/>
<path opacity="0.32" d="M6.11588 21.861C9.49359 21.861 12.2318 19.0905 12.2318 15.6728C12.2318 12.2552 9.49359 9.48462 6.11588 9.48462C2.73817 9.48462 0 12.2552 0 15.6728C0 19.0905 2.73817 21.861 6.11588 21.861Z" fill="#BC936F"/>
<path opacity="0.74" d="M6.11605 18.9916C7.92734 18.9916 9.39568 17.5059 9.39568 15.6731C9.39568 13.8404 7.92734 12.3547 6.11605 12.3547C4.30476 12.3547 2.83643 13.8404 2.83643 15.6731C2.83643 17.5059 4.30476 18.9916 6.11605 18.9916Z" fill="#BC936F"/>
<path opacity="0.32" d="M6.11588 32.6279C9.49359 32.6279 12.2318 29.8573 12.2318 26.4397C12.2318 23.022 9.49359 20.2515 6.11588 20.2515C2.73817 20.2515 0 23.022 0 26.4397C0 29.8573 2.73817 32.6279 6.11588 32.6279Z" fill="#BC936F"/>
<path opacity="0.74" d="M6.11605 29.7587C7.92734 29.7587 9.39568 28.2729 9.39568 26.4402C9.39568 24.6075 7.92734 23.1218 6.11605 23.1218C4.30476 23.1218 2.83643 24.6075 2.83643 26.4402C2.83643 28.2729 4.30476 29.7587 6.11605 29.7587Z" fill="#BC936F"/>
<path opacity="0.32" d="M6.11588 49.8264C9.49359 49.8264 12.2318 47.0558 12.2318 43.6382C12.2318 40.2205 9.49359 37.45 6.11588 37.45C2.73817 37.45 0 40.2205 0 43.6382C0 47.0558 2.73817 49.8264 6.11588 49.8264Z" fill="#BC936F"/>
<path opacity="0.74" d="M6.11605 46.9569C7.92734 46.9569 9.39568 45.4712 9.39568 43.6385C9.39568 41.8058 7.92734 40.3201 6.11605 40.3201C4.30476 40.3201 2.83643 41.8058 2.83643 43.6385C2.83643 45.4712 4.30476 46.9569 6.11605 46.9569Z" fill="#BC936F"/>
<path opacity="0.32" d="M6.93717 73.1679C10.3149 73.1679 13.0531 70.3974 13.0531 66.9797C13.0531 63.5621 10.3149 60.7915 6.93717 60.7915C3.55946 60.7915 0.821289 63.5621 0.821289 66.9797C0.821289 70.3974 3.55946 73.1679 6.93717 73.1679Z" fill="#BC936F"/>
<path opacity="0.74" d="M6.93734 70.2987C8.74863 70.2987 10.217 68.813 10.217 66.9803C10.217 65.1476 8.74863 63.6619 6.93734 63.6619C5.12605 63.6619 3.65771 65.1476 3.65771 66.9803C3.65771 68.813 5.12605 70.2987 6.93734 70.2987Z" fill="#BC936F"/>
<path opacity="0.32" d="M6.93717 94C10.3149 94 13.0531 91.2294 13.0531 87.8117C13.0531 84.3941 10.3149 81.6235 6.93717 81.6235C3.55946 81.6235 0.821289 84.3941 0.821289 87.8117C0.821289 91.2294 3.55946 94 6.93717 94Z" fill="#BC936F"/>
<path opacity="0.74" d="M6.93734 91.1297C8.74863 91.1297 10.217 89.644 10.217 87.8113C10.217 85.9786 8.74863 84.4929 6.93734 84.4929C5.12605 84.4929 3.65771 85.9786 3.65771 87.8113C3.65771 89.644 5.12605 91.1297 6.93734 91.1297Z" fill="#BC936F"/>
<path opacity="0.32" d="M522.884 94C526.262 94 529 91.2294 529 87.8117C529 84.3941 526.262 81.6235 522.884 81.6235C519.507 81.6235 516.769 84.3941 516.769 87.8117C516.769 91.2294 519.507 94 522.884 94Z" fill="#BC936F"/>
<path opacity="0.74" d="M522.884 91.1297C524.695 91.1297 526.163 89.644 526.163 87.8113C526.163 85.9786 524.695 84.4929 522.884 84.4929C521.072 84.4929 519.604 85.9786 519.604 87.8113C519.604 89.644 521.072 91.1297 522.884 91.1297Z" fill="#BC936F"/>
<path opacity="0.32" d="M522.884 73.8774C526.262 73.8774 529 71.1068 529 67.6892C529 64.2715 526.262 61.501 522.884 61.501C519.507 61.501 516.769 64.2715 516.769 67.6892C516.769 71.1068 519.507 73.8774 522.884 73.8774Z" fill="#BC936F"/>
<path opacity="0.74" d="M522.884 71.0082C524.695 71.0082 526.163 69.5225 526.163 67.6898C526.163 65.857 524.695 64.3713 522.884 64.3713C521.072 64.3713 519.604 65.857 519.604 67.6898C519.604 69.5225 521.072 71.0082 522.884 71.0082Z" fill="#BC936F"/>
<path opacity="0.32" d="M522.884 51.2448C526.262 51.2448 529 48.4743 529 45.0566C529 41.639 526.262 38.8684 522.884 38.8684C519.507 38.8684 516.769 41.639 516.769 45.0566C516.769 48.4743 519.507 51.2448 522.884 51.2448Z" fill="#BC936F"/>
<path opacity="0.74" d="M522.884 48.3753C524.695 48.3753 526.163 46.8896 526.163 45.0569C526.163 43.2242 524.695 41.7385 522.884 41.7385C521.072 41.7385 519.604 43.2242 519.604 45.0569C519.604 46.8896 521.072 48.3753 522.884 48.3753Z" fill="#BC936F"/>
<path opacity="0.32" d="M522.884 32.6279C526.262 32.6279 529 29.8573 529 26.4397C529 23.022 526.262 20.2515 522.884 20.2515C519.507 20.2515 516.769 23.022 516.769 26.4397C516.769 29.8573 519.507 32.6279 522.884 32.6279Z" fill="#BC936F"/>
<path opacity="0.74" d="M522.884 29.7587C524.695 29.7587 526.163 28.2729 526.163 26.4402C526.163 24.6075 524.695 23.1218 522.884 23.1218C521.072 23.1218 519.604 24.6075 519.604 26.4402C519.604 28.2729 521.072 29.7587 522.884 29.7587Z" fill="#BC936F"/>
<path opacity="0.32" d="M522.884 21.0974C526.262 21.0974 529 18.3268 529 14.9092C529 11.4915 526.262 8.72095 522.884 8.72095C519.507 8.72095 516.769 11.4915 516.769 14.9092C516.769 18.3268 519.507 21.0974 522.884 21.0974Z" fill="#BC936F"/>
<path opacity="0.74" d="M522.884 18.2281C524.695 18.2281 526.163 16.7424 526.163 14.9097C526.163 13.077 524.695 11.5913 522.884 11.5913C521.072 11.5913 519.604 13.077 519.604 14.9097C519.604 16.7424 521.072 18.2281 522.884 18.2281Z" fill="#BC936F"/>
<path opacity="0.32" d="M69.3 12.3764C72.6777 12.3764 75.4158 9.60587 75.4158 6.18821C75.4158 2.77056 72.6777 0 69.3 0C65.9223 0 63.1841 2.77056 63.1841 6.18821C63.1841 9.60587 65.9223 12.3764 69.3 12.3764Z" fill="#BC936F"/>
<path opacity="0.74" d="M69.3001 9.50719C71.1114 9.50719 72.5798 8.02148 72.5798 6.18877C72.5798 4.35607 71.1114 2.87036 69.3001 2.87036C67.4888 2.87036 66.0205 4.35607 66.0205 6.18877C66.0205 8.02148 67.4888 9.50719 69.3001 9.50719Z" fill="#BC936F"/>
<path opacity="0.32" d="M69.3 36.9333C72.6777 36.9333 75.4158 34.1628 75.4158 30.7451C75.4158 27.3274 72.6777 24.5569 69.3 24.5569C65.9223 24.5569 63.1841 27.3274 63.1841 30.7451C63.1841 34.1628 65.9223 36.9333 69.3 36.9333Z" fill="#BC936F"/>
<path opacity="0.74" d="M69.3001 34.0641C71.1114 34.0641 72.5798 32.5784 72.5798 30.7457C72.5798 28.9129 71.1114 27.4272 69.3001 27.4272C67.4888 27.4272 66.0205 28.9129 66.0205 30.7457C66.0205 32.5784 67.4888 34.0641 69.3001 34.0641Z" fill="#BC936F"/>
<path opacity="0.32" d="M69.3 61.7461C72.6777 61.7461 75.4158 58.9755 75.4158 55.5578C75.4158 52.1402 72.6777 49.3696 69.3 49.3696C65.9223 49.3696 63.1841 52.1402 63.1841 55.5578C63.1841 58.9755 65.9223 61.7461 69.3 61.7461Z" fill="#BC936F"/>
<path opacity="0.74" d="M69.3001 58.8771C71.1114 58.8771 72.5798 57.3914 72.5798 55.5586C72.5798 53.7259 71.1114 52.2402 69.3001 52.2402C67.4888 52.2402 66.0205 53.7259 66.0205 55.5586C66.0205 57.3914 67.4888 58.8771 69.3001 58.8771Z" fill="#BC936F"/>
<path opacity="0.32" d="M69.3 80.988C72.6777 80.988 75.4158 78.2174 75.4158 74.7998C75.4158 71.3821 72.6777 68.6116 69.3 68.6116C65.9223 68.6116 63.1841 71.3821 63.1841 74.7998C63.1841 78.2174 65.9223 80.988 69.3 80.988Z" fill="#BC936F"/>
<path opacity="0.74" d="M69.3001 78.1188C71.1114 78.1188 72.5798 76.6331 72.5798 74.8003C72.5798 72.9676 71.1114 71.4819 69.3001 71.4819C67.4888 71.4819 66.0205 72.9676 66.0205 74.8003C66.0205 76.6331 67.4888 78.1188 69.3001 78.1188Z" fill="#BC936F"/>
<path opacity="0.32" d="M69.3 92.4711C72.6777 92.4711 75.4158 89.7006 75.4158 86.2829C75.4158 82.8653 72.6777 80.0947 69.3 80.0947C65.9223 80.0947 63.1841 82.8653 63.1841 86.2829C63.1841 89.7006 65.9223 92.4711 69.3 92.4711Z" fill="#BC936F"/>
<path opacity="0.74" d="M69.3001 89.6022C71.1114 89.6022 72.5798 88.1165 72.5798 86.2837C72.5798 84.451 71.1114 82.9653 69.3001 82.9653C67.4888 82.9653 66.0205 84.451 66.0205 86.2837C66.0205 88.1165 67.4888 89.6022 69.3001 89.6022Z" fill="#BC936F"/>
<path opacity="0.32" d="M134.773 22.0478C138.151 22.0478 140.889 19.2773 140.889 15.8596C140.889 12.4419 138.151 9.67139 134.773 9.67139C131.395 9.67139 128.657 12.4419 128.657 15.8596C128.657 19.2773 131.395 22.0478 134.773 22.0478Z" fill="#BC936F"/>
<path opacity="0.74" d="M134.773 19.1783C136.585 19.1783 138.053 17.6926 138.053 15.8599C138.053 14.0272 136.585 12.5415 134.773 12.5415C132.962 12.5415 131.494 14.0272 131.494 15.8599C131.494 17.6926 132.962 19.1783 134.773 19.1783Z" fill="#BC936F"/>
<path opacity="0.32" d="M134.773 48.1843C138.151 48.1843 140.889 45.4137 140.889 41.9961C140.889 38.5784 138.151 35.8079 134.773 35.8079C131.395 35.8079 128.657 38.5784 128.657 41.9961C128.657 45.4137 131.395 48.1843 134.773 48.1843Z" fill="#BC936F"/>
<path opacity="0.74" d="M134.773 45.3153C136.585 45.3153 138.053 43.8296 138.053 41.9969C138.053 40.1642 136.585 38.6785 134.773 38.6785C132.962 38.6785 131.494 40.1642 131.494 41.9969C131.494 43.8296 132.962 45.3153 134.773 45.3153Z" fill="#BC936F"/>
<path opacity="0.32" d="M134.773 65.6867C138.151 65.6867 140.889 62.9162 140.889 59.4985C140.889 56.0809 138.151 53.3103 134.773 53.3103C131.395 53.3103 128.657 56.0809 128.657 59.4985C128.657 62.9162 131.395 65.6867 134.773 65.6867Z" fill="#BC936F"/>
<path opacity="0.74" d="M134.773 62.8172C136.585 62.8172 138.053 61.3315 138.053 59.4988C138.053 57.6661 136.585 56.1804 134.773 56.1804C132.962 56.1804 131.494 57.6661 131.494 59.4988C131.494 61.3315 132.962 62.8172 134.773 62.8172Z" fill="#BC936F"/>
<path opacity="0.32" d="M134.773 75.6484C138.151 75.6484 140.889 72.8778 140.889 69.4602C140.889 66.0425 138.151 63.272 134.773 63.272C131.395 63.272 128.657 66.0425 128.657 69.4602C128.657 72.8778 131.395 75.6484 134.773 75.6484Z" fill="#BC936F"/>
<path opacity="0.74" d="M134.773 72.7787C136.585 72.7787 138.053 71.293 138.053 69.4603C138.053 67.6276 136.585 66.1418 134.773 66.1418C132.962 66.1418 131.494 67.6276 131.494 69.4603C131.494 71.293 132.962 72.7787 134.773 72.7787Z" fill="#BC936F"/>
<path opacity="0.32" d="M134.773 83.1875C138.151 83.1875 140.889 80.4169 140.889 76.9992C140.889 73.5816 138.151 70.811 134.773 70.811C131.395 70.811 128.657 73.5816 128.657 76.9992C128.657 80.4169 131.395 83.1875 134.773 83.1875Z" fill="#BC936F"/>
<path opacity="0.74" d="M134.773 80.318C136.585 80.318 138.053 78.8323 138.053 76.9996C138.053 75.1669 136.585 73.6812 134.773 73.6812C132.962 73.6812 131.494 75.1669 131.494 76.9996C131.494 78.8323 132.962 80.318 134.773 80.318Z" fill="#BC936F"/>
<path opacity="0.32" d="M198.638 32.0319C202.016 32.0319 204.754 29.2614 204.754 25.8437C204.754 22.4261 202.016 19.6555 198.638 19.6555C195.26 19.6555 192.522 22.4261 192.522 25.8437C192.522 29.2614 195.26 32.0319 198.638 32.0319Z" fill="#BC936F"/>
<path opacity="0.74" d="M198.638 29.1622C200.449 29.1622 201.918 27.6765 201.918 25.8438C201.918 24.0111 200.449 22.5254 198.638 22.5254C196.827 22.5254 195.358 24.0111 195.358 25.8438C195.358 27.6765 196.827 29.1622 198.638 29.1622Z" fill="#BC936F"/>
<path opacity="0.32" d="M198.638 45.3144C202.016 45.3144 204.754 42.5439 204.754 39.1262C204.754 35.7085 202.016 32.938 198.638 32.938C195.26 32.938 192.522 35.7085 192.522 39.1262C192.522 42.5439 195.26 45.3144 198.638 45.3144Z" fill="#BC936F"/>
<path opacity="0.74" d="M198.638 42.4454C200.449 42.4454 201.918 40.9597 201.918 39.127C201.918 37.2943 200.449 35.8086 198.638 35.8086C196.827 35.8086 195.358 37.2943 195.358 39.127C195.358 40.9597 196.827 42.4454 198.638 42.4454Z" fill="#BC936F"/>
<path opacity="0.32" d="M198.638 54.3747C202.016 54.3747 204.754 51.6042 204.754 48.1865C204.754 44.7689 202.016 41.9983 198.638 41.9983C195.26 41.9983 192.522 44.7689 192.522 48.1865C192.522 51.6042 195.26 54.3747 198.638 54.3747Z" fill="#BC936F"/>
<path opacity="0.74" d="M198.638 51.5052C200.449 51.5052 201.918 50.0195 201.918 48.1868C201.918 46.3541 200.449 44.8684 198.638 44.8684C196.827 44.8684 195.358 46.3541 195.358 48.1868C195.358 50.0195 196.827 51.5052 198.638 51.5052Z" fill="#BC936F"/>
<path opacity="0.32" d="M198.638 66.4558C202.016 66.4558 204.754 63.6852 204.754 60.2676C204.754 56.8499 202.016 54.0793 198.638 54.0793C195.26 54.0793 192.522 56.8499 192.522 60.2676C192.522 63.6852 195.26 66.4558 198.638 66.4558Z" fill="#BC936F"/>
<path opacity="0.74" d="M198.638 63.5868C200.449 63.5868 201.918 62.1011 201.918 60.2684C201.918 58.4357 200.449 56.95 198.638 56.95C196.827 56.95 195.358 58.4357 195.358 60.2684C195.358 62.1011 196.827 63.5868 198.638 63.5868Z" fill="#BC936F"/>
<path opacity="0.32" d="M198.638 82.9692C202.016 82.9692 204.754 80.1986 204.754 76.781C204.754 73.3633 202.016 70.5928 198.638 70.5928C195.26 70.5928 192.522 73.3633 192.522 76.781C192.522 80.1986 195.26 82.9692 198.638 82.9692Z" fill="#BC936F"/>
<path opacity="0.74" d="M198.638 80.0995C200.449 80.0995 201.918 78.6138 201.918 76.7811C201.918 74.9484 200.449 73.4626 198.638 73.4626C196.827 73.4626 195.358 74.9484 195.358 76.7811C195.358 78.6138 196.827 80.0995 198.638 80.0995Z" fill="#BC936F"/>
<path opacity="0.32" d="M265.026 22.6203C268.404 22.6203 271.142 19.8498 271.142 16.4321C271.142 13.0145 268.404 10.2439 265.026 10.2439C261.648 10.2439 258.91 13.0145 258.91 16.4321C258.91 19.8498 261.648 22.6203 265.026 22.6203Z" fill="#BC936F"/>
<path opacity="0.74" d="M265.026 19.7506C266.837 19.7506 268.305 18.2649 268.305 16.4322C268.305 14.5995 266.837 13.1138 265.026 13.1138C263.214 13.1138 261.746 14.5995 261.746 16.4322C261.746 18.2649 263.214 19.7506 265.026 19.7506Z" fill="#BC936F"/>
<path opacity="0.32" d="M265.026 33.2065C268.404 33.2065 271.142 30.4359 271.142 27.0183C271.142 23.6006 268.404 20.8301 265.026 20.8301C261.648 20.8301 258.91 23.6006 258.91 27.0183C258.91 30.4359 261.648 33.2065 265.026 33.2065Z" fill="#BC936F"/>
<path opacity="0.74" d="M265.026 30.3373C266.837 30.3373 268.305 28.8516 268.305 27.0189C268.305 25.1861 266.837 23.7004 265.026 23.7004C263.214 23.7004 261.746 25.1861 261.746 27.0189C261.746 28.8516 263.214 30.3373 265.026 30.3373Z" fill="#BC936F"/>
<path opacity="0.32" d="M265.026 51.5046C268.404 51.5046 271.142 48.734 271.142 45.3164C271.142 41.8987 268.404 39.1282 265.026 39.1282C261.648 39.1282 258.91 41.8987 258.91 45.3164C258.91 48.734 261.648 51.5046 265.026 51.5046Z" fill="#BC936F"/>
<path opacity="0.74" d="M265.026 48.6351C266.837 48.6351 268.305 47.1494 268.305 45.3167C268.305 43.484 266.837 41.9983 265.026 41.9983C263.214 41.9983 261.746 43.484 261.746 45.3167C261.746 47.1494 263.214 48.6351 265.026 48.6351Z" fill="#BC936F"/>
<path opacity="0.32" d="M265.026 72.6438C268.404 72.6438 271.142 69.8732 271.142 66.4555C271.142 63.0379 268.404 60.2673 265.026 60.2673C261.648 60.2673 258.91 63.0379 258.91 66.4555C258.91 69.8732 261.648 72.6438 265.026 72.6438Z" fill="#BC936F"/>
<path opacity="0.74" d="M265.026 69.774C266.837 69.774 268.305 68.2883 268.305 66.4556C268.305 64.6229 266.837 63.1372 265.026 63.1372C263.214 63.1372 261.746 64.6229 261.746 66.4556C261.746 68.2883 263.214 69.774 265.026 69.774Z" fill="#BC936F"/>
<path opacity="0.32" d="M265.026 90.6941C268.404 90.6941 271.142 87.9235 271.142 84.5058C271.142 81.0882 268.404 78.3176 265.026 78.3176C261.648 78.3176 258.91 81.0882 258.91 84.5058C258.91 87.9235 261.648 90.6941 265.026 90.6941Z" fill="#BC936F"/>
<path opacity="0.74" d="M265.026 87.8246C266.837 87.8246 268.305 86.3389 268.305 84.5062C268.305 82.6735 266.837 81.1877 265.026 81.1877C263.214 81.1877 261.746 82.6735 261.746 84.5062C261.746 86.3389 263.214 87.8246 265.026 87.8246Z" fill="#BC936F"/>
<path opacity="0.32" d="M327.139 12.6096C330.517 12.6096 333.255 9.83902 333.255 6.42137C333.255 3.00371 330.517 0.233154 327.139 0.233154C323.761 0.233154 321.023 3.00371 321.023 6.42137C321.023 9.83902 323.761 12.6096 327.139 12.6096Z" fill="#BC936F"/>
<path opacity="0.74" d="M327.139 9.7401C328.95 9.7401 330.419 8.25439 330.419 6.42168C330.419 4.58898 328.95 3.10327 327.139 3.10327C325.328 3.10327 323.859 4.58898 323.859 6.42168C323.859 8.25439 325.328 9.7401 327.139 9.7401Z" fill="#BC936F"/>
<path opacity="0.32" d="M327.139 36.5241C330.517 36.5241 333.255 33.7536 333.255 30.3359C333.255 26.9183 330.517 24.1477 327.139 24.1477C323.761 24.1477 321.023 26.9183 321.023 30.3359C321.023 33.7536 323.761 36.5241 327.139 36.5241Z" fill="#BC936F"/>
<path opacity="0.74" d="M327.139 33.6549C328.95 33.6549 330.419 32.1692 330.419 30.3365C330.419 28.5038 328.95 27.0181 327.139 27.0181C325.328 27.0181 323.859 28.5038 323.859 30.3365C323.859 32.1692 325.328 33.6549 327.139 33.6549Z" fill="#BC936F"/>
<path opacity="0.32" d="M327.139 62.2981C330.517 62.2981 333.255 59.5275 333.255 56.1098C333.255 52.6922 330.517 49.9216 327.139 49.9216C323.761 49.9216 321.023 52.6922 321.023 56.1098C321.023 59.5275 323.761 62.2981 327.139 62.2981Z" fill="#BC936F"/>
<path opacity="0.74" d="M327.139 59.4288C328.95 59.4288 330.419 57.9431 330.419 56.1104C330.419 54.2777 328.95 52.792 327.139 52.792C325.328 52.792 323.859 54.2777 323.859 56.1104C323.859 57.9431 325.328 59.4288 327.139 59.4288Z" fill="#BC936F"/>
<path opacity="0.32" d="M327.139 80.9326C330.517 80.9326 333.255 78.162 333.255 74.7444C333.255 71.3267 330.517 68.5562 327.139 68.5562C323.761 68.5562 321.023 71.3267 321.023 74.7444C321.023 78.162 323.761 80.9326 327.139 80.9326Z" fill="#BC936F"/>
<path opacity="0.74" d="M327.139 78.0631C328.95 78.0631 330.419 76.5774 330.419 74.7447C330.419 72.912 328.95 71.4263 327.139 71.4263C325.328 71.4263 323.859 72.912 323.859 74.7447C323.859 76.5774 325.328 78.0631 327.139 78.0631Z" fill="#BC936F"/>
<path opacity="0.32" d="M327.139 91.4338C330.517 91.4338 333.255 88.6632 333.255 85.2456C333.255 81.8279 330.517 79.0574 327.139 79.0574C323.761 79.0574 321.023 81.8279 321.023 85.2456C321.023 88.6632 323.761 91.4338 327.139 91.4338Z" fill="#BC936F"/>
<path opacity="0.74" d="M327.139 88.5646C328.95 88.5646 330.419 87.0789 330.419 85.2461C330.419 83.4134 328.95 81.9277 327.139 81.9277C325.328 81.9277 323.859 83.4134 323.859 85.2461C323.859 87.0789 325.328 88.5646 327.139 88.5646Z" fill="#BC936F"/>
<path opacity="0.32" d="M456.455 32.6279C459.832 32.6279 462.571 29.8573 462.571 26.4397C462.571 23.022 459.832 20.2515 456.455 20.2515C453.077 20.2515 450.339 23.022 450.339 26.4397C450.339 29.8573 453.077 32.6279 456.455 32.6279Z" fill="#BC936F"/>
<path opacity="0.74" d="M456.455 29.7587C458.266 29.7587 459.735 28.2729 459.735 26.4402C459.735 24.6075 458.266 23.1218 456.455 23.1218C454.644 23.1218 453.175 24.6075 453.175 26.4402C453.175 28.2729 454.644 29.7587 456.455 29.7587Z" fill="#BC936F"/>
<path opacity="0.32" d="M456.455 45.8933C459.832 45.8933 462.571 43.1227 462.571 39.7051C462.571 36.2874 459.832 33.5168 456.455 33.5168C453.077 33.5168 450.339 36.2874 450.339 39.7051C450.339 43.1227 453.077 45.8933 456.455 45.8933Z" fill="#BC936F"/>
<path opacity="0.74" d="M456.455 43.0235C458.266 43.0235 459.735 41.5378 459.735 39.7051C459.735 37.8724 458.266 36.3867 456.455 36.3867C454.644 36.3867 453.175 37.8724 453.175 39.7051C453.175 41.5378 454.644 43.0235 456.455 43.0235Z" fill="#BC936F"/>
<path opacity="0.32" d="M456.455 56.0178C459.832 56.0178 462.571 53.2472 462.571 49.8296C462.571 46.4119 459.832 43.6414 456.455 43.6414C453.077 43.6414 450.339 46.4119 450.339 49.8296C450.339 53.2472 453.077 56.0178 456.455 56.0178Z" fill="#BC936F"/>
<path opacity="0.74" d="M456.455 53.1483C458.266 53.1483 459.735 51.6626 459.735 49.8299C459.735 47.9972 458.266 46.5115 456.455 46.5115C454.644 46.5115 453.175 47.9972 453.175 49.8299C453.175 51.6626 454.644 53.1483 456.455 53.1483Z" fill="#BC936F"/>
<path opacity="0.32" d="M456.455 64.8945C459.832 64.8945 462.571 62.1239 462.571 58.7063C462.571 55.2886 459.832 52.5181 456.455 52.5181C453.077 52.5181 450.339 55.2886 450.339 58.7063C450.339 62.1239 453.077 64.8945 456.455 64.8945Z" fill="#BC936F"/>
<path opacity="0.74" d="M456.455 62.025C458.266 62.025 459.735 60.5393 459.735 58.7066C459.735 56.8739 458.266 55.3882 456.455 55.3882C454.644 55.3882 453.175 56.8739 453.175 58.7066C453.175 60.5393 454.644 62.025 456.455 62.025Z" fill="#BC936F"/>
<path opacity="0.32" d="M456.455 83.3845C459.832 83.3845 462.571 80.6139 462.571 77.1963C462.571 73.7786 459.832 71.0081 456.455 71.0081C453.077 71.0081 450.339 73.7786 450.339 77.1963C450.339 80.6139 453.077 83.3845 456.455 83.3845Z" fill="#BC936F"/>
<path opacity="0.74" d="M456.455 80.5155C458.266 80.5155 459.735 79.0298 459.735 77.1971C459.735 75.3644 458.266 73.8787 456.455 73.8787C454.644 73.8787 453.175 75.3644 453.175 77.1971C453.175 79.0298 454.644 80.5155 456.455 80.5155Z" fill="#BC936F"/>
<path opacity="0.32" d="M391.797 20.6501C395.174 20.6501 397.912 17.8795 397.912 14.4619C397.912 11.0442 395.174 8.27368 391.797 8.27368C388.419 8.27368 385.681 11.0442 385.681 14.4619C385.681 17.8795 388.419 20.6501 391.797 20.6501Z" fill="#BC936F"/>
<path opacity="0.74" d="M391.797 17.7806C393.608 17.7806 395.076 16.2949 395.076 14.4622C395.076 12.6295 393.608 11.1438 391.797 11.1438C389.985 11.1438 388.517 12.6295 388.517 14.4622C388.517 16.2949 389.985 17.7806 391.797 17.7806Z" fill="#BC936F"/>
<path opacity="0.32" d="M391.797 48.7622C395.174 48.7622 397.912 45.9916 397.912 42.574C397.912 39.1563 395.174 36.3857 391.797 36.3857C388.419 36.3857 385.681 39.1563 385.681 42.574C385.681 45.9916 388.419 48.7622 391.797 48.7622Z" fill="#BC936F"/>
<path opacity="0.74" d="M391.797 45.8932C393.608 45.8932 395.076 44.4075 395.076 42.5748C395.076 40.7421 393.608 39.2563 391.797 39.2563C389.985 39.2563 388.517 40.7421 388.517 42.5748C388.517 44.4075 389.985 45.8932 391.797 45.8932Z" fill="#BC936F"/>
<path opacity="0.32" d="M391.797 65.6184C395.174 65.6184 397.912 62.8478 397.912 59.4302C397.912 56.0125 395.174 53.2419 391.797 53.2419C388.419 53.2419 385.681 56.0125 385.681 59.4302C385.681 62.8478 388.419 65.6184 391.797 65.6184Z" fill="#BC936F"/>
<path opacity="0.74" d="M391.797 62.7489C393.608 62.7489 395.076 61.2632 395.076 59.4305C395.076 57.5978 393.608 56.1121 391.797 56.1121C389.985 56.1121 388.517 57.5978 388.517 59.4305C388.517 61.2632 389.985 62.7489 391.797 62.7489Z" fill="#BC936F"/>
<path opacity="0.32" d="M391.797 74.6765C395.174 74.6765 397.912 71.9059 397.912 68.4883C397.912 65.0706 395.174 62.3 391.797 62.3C388.419 62.3 385.681 65.0706 385.681 68.4883C385.681 71.9059 388.419 74.6765 391.797 74.6765Z" fill="#BC936F"/>
<path opacity="0.74" d="M391.797 71.807C393.608 71.807 395.076 70.3213 395.076 68.4886C395.076 66.6559 393.608 65.1702 391.797 65.1702C389.985 65.1702 388.517 66.6559 388.517 68.4886C388.517 70.3213 389.985 71.807 391.797 71.807Z" fill="#BC936F"/>
<path opacity="0.32" d="M391.797 84.2514C395.174 84.2514 397.912 81.4809 397.912 78.0632C397.912 74.6456 395.174 71.875 391.797 71.875C388.419 71.875 385.681 74.6456 385.681 78.0632C385.681 81.4809 388.419 84.2514 391.797 84.2514Z" fill="#BC936F"/>
<path opacity="0.74" d="M391.797 81.3822C393.608 81.3822 395.076 79.8965 395.076 78.0638C395.076 76.2311 393.608 74.7454 391.797 74.7454C389.985 74.7454 388.517 76.2311 388.517 78.0638C388.517 79.8965 389.985 81.3822 391.797 81.3822Z" fill="#BC936F"/>
</svg>
