<?xml version="1.0" standalone="no"?>
<!DOCTYPE svg PUBLIC "-//W3C//DTD SVG 1.1//EN" "http://www.w3.org/Graphics/SVG/1.1/DTD/svg11.dtd" >
<svg xmlns="http://www.w3.org/2000/svg" xmlns:xlink="http://www.w3.org/1999/xlink" version="1.1">
<metadata>
Created by FontForge 20170731 at Wed Feb 16 17:43:08 2005
 By Aleksey,,,
Copyright (c) ParaType, Inc., 2002. All rights reserved.
</metadata>
<defs>
<font id="LehmannC" horiz-adv-x="708" >
  <font-face 
    font-family="LehmannC"
    font-weight="400"
    font-stretch="normal"
    units-per-em="1000"
    panose-1="0 0 5 0 0 0 0 0 0 0"
    ascent="744"
    descent="-256"
    x-height="500"
    cap-height="700"
    bbox="-66 -256.286 1362 922"
    underline-thickness="50"
    underline-position="-200"
    unicode-range="U+0020-F6D4"
  />
<missing-glyph horiz-adv-x="233" 
 />
    <glyph glyph-name=".notdef" horiz-adv-x="233" 
 />
    <glyph glyph-name=".null" horiz-adv-x="0" 
 />
    <glyph glyph-name="nonmarkingreturn" horiz-adv-x="333" 
 />
    <glyph glyph-name="space" unicode=" " horiz-adv-x="233" 
 />
    <glyph glyph-name="space" unicode="&#xa0;" horiz-adv-x="233" 
 />
    <glyph glyph-name="exclam" unicode="!" horiz-adv-x="219" 
d="M113 190l-2 -42h-12l-2 42q-2 60 -24 168q-27 137 -27 213q0 66 10 94q15 45 49 45t49 -45q10 -28 10 -94q0 -76 -27 -213q-22 -108 -24 -168zM48 53q0 24 16 40t40 16t40 -16t16 -40t-16 -40t-40 -16t-40 16t-16 40z" />
    <glyph glyph-name="quotedbl" unicode="&#x22;" horiz-adv-x="378" 
d="M82 427l-37 294h112l-37 -294h-38zM258 427l-37 294h112l-37 -294h-38z" />
    <glyph glyph-name="numbersign" unicode="#" horiz-adv-x="691" 
d="M434 0h-67l37 183h-202l-36 -183h-68l37 183h-115l11 56h115l41 201h-119l11 56h119l41 204h67l-41 -204h202l41 204h67l-41 -204h122l-12 -56h-121l-41 -201h126l-12 -56h-125zM415 239l41 201h-202l-41 -201h202z" />
    <glyph glyph-name="dollar" unicode="$" 
d="M316 759v-73q42 0 77 -7v80h29v-87q82 -21 134 -76l39 90h13v-267h-13q-18 58 -58 101q-46 46 -84 62l-31 13v-204q41 -8 89.5 -28.5t75.5 -46.5q49 -47 49 -122q0 -54 -22 -95.5t-56 -65.5q-55 -39 -136 -42v-73h-29v72q-39 -2 -77 6v-78h-29v84q-99 25 -157 96
l-45 -108h-13v333h13q29 -80 65 -129q20 -27 50.5 -55t56.5 -39l30 -13v212q-98 19 -151 64t-53 120q0 99 72 156q51 40 132 46v74h29zM287 422v181q-28 -3 -47 -20q-34 -28 -34 -70q0 -40 26 -64q21 -20 55 -27zM316 293v-215q30 -9 77 -9v206zM316 415l77 -18v206
q-36 8 -77 5v-193zM422 268v-196q33 1 59 22q34 27 34 66q0 55 -41 85q-24 16 -52 23z" />
    <glyph glyph-name="percent" unicode="%" horiz-adv-x="694" 
d="M174 715q68 0 114 -51q45 -48 45 -118q0 -67 -45 -118q-46 -51 -114 -51t-114 51q-45 51 -45 118q0 70 45 118q46 51 114 51zM238 524v44q0 52 -14 79q-18 33 -50 33t-50 -33q-14 -27 -14 -79v-44q0 -53 14 -80q17 -32 50 -32q64 0 64 112zM150 -95l-51 23l432 858
l52 -23zM525 326q69 0 114 -50q45 -48 45 -118q0 -67 -45 -118q-46 -51 -114 -51t-114 51q-45 51 -45 118q0 70 45 118q45 50 114 50zM589 136v44q0 52 -14 79q-18 33 -50 33t-50 -33q-14 -27 -14 -79v-44q0 -53 14 -80q17 -32 50 -32q64 0 64 112z" />
    <glyph glyph-name="ampersand" unicode="&#x26;" horiz-adv-x="794" 
d="M784 0h-122q-53 0 -82 6q-53 11 -91 42q-88 -58 -221 -58q-120 0 -179 54q-54 50 -54 133q0 90 66 154q45 45 137 86q-47 76 -47 146q0 61 41 104q43 43 112 43q54 0 89 -30q40 -36 40 -101q0 -54 -30 -98q-26 -39 -70 -65q62 -125 150 -235q50 67 54 146q3 47 -26 72
q-25 20 -75 23l-19 1v16h325v-16l-18 -1q-17 -1 -21 -1.5t-19.5 -2.5t-22.5 -5.5t-18 -10t-17.5 -17.5t-10.5 -25q-3 -12 -11.5 -54.5t-21.5 -76.5q-20 -51 -57 -106q33 -43 76 -69q61 -36 143 -38v-16zM291 597q0 -51 51 -129q62 38 62 105q0 36 -15 54q-15 20 -45 20
q-20 0 -36 -14q-17 -15 -17 -36zM147 194q0 -61 34 -95q41 -41 123 -41q75 0 134 43q-48 56 -88 121q-17 28 -84 144q-52 -30 -81 -62q-38 -42 -38 -110z" />
    <glyph glyph-name="quotesingle" unicode="'" horiz-adv-x="202" 
d="M82 427l-37 294h112l-37 -294h-38z" />
    <glyph glyph-name="parenleft" unicode="(" horiz-adv-x="460" 
d="M396 710l9 -10q-117 -61 -174 -180q-47 -100 -47 -235t47 -235q57 -119 174 -180l-9 -10q-145 51 -243 163q-104 120 -104 262t104 262q98 112 243 163z" />
    <glyph glyph-name="parenright" unicode=")" horiz-adv-x="460" 
d="M49 700l9 10q145 -51 243 -163q104 -120 104 -262t-104 -262q-98 -112 -243 -163l-9 10q117 61 174 180q47 100 47 235t-47 235q-57 119 -174 180z" />
    <glyph glyph-name="asterisk" unicode="*" horiz-adv-x="469" 
d="M268 554l90 37l41 38l30 -94l-54 7l-93 -23l61 -74l49 -27l-80 -58l-10 54l-51 81l-51 -81l-11 -55l-79 58l48 27l61 73l-93 23l-56 -6l31 93l41 -37l88 -36l-7 95l-23 51h98l-23 -51z" />
    <glyph glyph-name="plus" unicode="+" horiz-adv-x="544" 
d="M30 399h202v200h79v-200h203v-76h-203v-201h-79v201h-202v76z" />
    <glyph glyph-name="comma" unicode="," horiz-adv-x="229" 
d="M40 56q0 37 31 56q19 11 39 11q39 0 63 -29q21 -25 21 -69q0 -61 -39 -95q-26 -23 -61 -23q-21 0 -39 9q44 2 66 33q14 20 14 47q0 7 -1 10q-13 -12 -31 -12q-29 0 -47 18q-16 18 -16 44z" />
    <glyph glyph-name="hyphen" unicode="-" horiz-adv-x="359" 
d="M289 337v-95h-219v95h219z" />
    <glyph glyph-name="hyphen" unicode="&#xad;" horiz-adv-x="359" 
d="M289 337v-95h-219v95h219z" />
    <glyph glyph-name="period" unicode="." horiz-adv-x="239" 
d="M52 64q0 31 21 49.5t47 18.5q28 0 48.5 -20.5t20.5 -47.5q0 -29 -20.5 -49.5t-48.5 -20.5q-29 0 -48.5 20.5t-19.5 49.5z" />
    <glyph glyph-name="slash" unicode="/" horiz-adv-x="391" 
d="M385 712l-387 -886h-64l387 886h64z" />
    <glyph glyph-name="zero" unicode="0" 
d="M354 686q143 0 233 -98q88 -97 88 -250t-88 -250q-90 -98 -233 -98t-233 98q-88 97 -88 250t88 250q90 98 233 98zM354 602q-88 0 -134 -73q-38 -60 -38 -191t38 -191q46 -73 134 -73t134 73q38 60 38 191t-38 191q-46 73 -134 73z" />
    <glyph glyph-name="one" unicode="1" 
d="M413 686v-574q0 -51 25 -74q22 -20 83 -24l31 -1v-13h-396v13l31 1q61 4 83 24q25 23 25 74v403q0 52 -23 74q-24 23 -88 23h-28v13h25q47 0 87 17q35 16 62 44h83z" />
    <glyph glyph-name="two" unicode="2" 
d="M638 243v-243h-579v17q0 62 66 120q22 19 53.5 40t83 51.5t75.5 45.5l80 50q34 21 55.5 59.5t21.5 85.5q0 73 -55 110q-41 27 -120 27q-71 0 -118 -31q-56 -37 -56 -101q0 -28 10 -46q14 -24 44 -24q28 0 42 19q19 25 3 66q16 -8 23 -18q10 -13 10 -38q0 -36 -23 -59
q-26 -26 -74 -26q-51 0 -86 40q-27 31 -27 83q0 102 88 162q79 53 202 53q130 0 211 -66q74 -62 74 -160q0 -43 -13.5 -78t-41 -61.5t-49.5 -41t-57 -34.5q-48 -26 -148 -71q-96 -44 -133 -70q-20 -13 -24 -32h288q76 0 115 38q39 37 48 133h11z" />
    <glyph glyph-name="three" unicode="3" 
d="M205 315v76h134q70 0 107 28q38 29 38 82q0 49 -39 82q-41 34 -136 34q-96 0 -137 -26t-41 -69q0 -18 9 -28q8 -10 26 -10t30 15q11 15 13 31q11 -10 11 -27q0 -27 -20 -43q-19 -15 -52 -15q-41 0 -62 23q-19 20 -19 56q0 86 88 130q64 32 169 32q133 0 206 -38
q94 -49 94 -148q0 -55 -35 -92q-43 -45 -114 -53q75 -7 127 -54q46 -43 46 -113q0 -90 -83 -144q-85 -54 -233 -54q-114 0 -185 32q-97 44 -97 137q0 46 24 73t66 27q37 0 58 -20q22 -20 22 -51q0 -26 -21 -39q0 26 -13 42q-10 14 -31 14q-19 0 -28 -13q-8 -11 -8 -33
q0 -41 47 -65t151 -24q89 0 135 30q48 32 48 100q0 52 -36 82q-41 33 -124 33h-135z" />
    <glyph glyph-name="four" unicode="4" 
d="M548 280h132v-81h-133v-87q0 -32 9 -52.5t27 -29.5t32.5 -12t39.5 -4l17 -1v-13h-368v13l17 1q25 1 39.5 4t32.5 12t27 29.5t9 52.5v87h-397v92l395 395h121v-406zM129 287v-7h300v307z" />
    <glyph glyph-name="five" unicode="5" 
d="M236 589l-47 -176q73 60 179 60q121 0 196 -60q86 -68 86 -183q0 -120 -109 -187q-88 -53 -225 -53q-135 0 -207 50q-32 22 -53.5 57.5t-21.5 73.5q0 52 35 82q27 24 71 24q42 0 66 -18q28 -21 28 -59q0 -40 -33 -57q1 39 -9 55q-12 19 -36 19q-18 0 -29.5 -11.5
t-11.5 -30.5q0 -49 56 -79q52 -28 129 -28q98 0 149 42q53 43 53 118q0 80 -59 125q-44 33 -116 33q-62 0 -110 -29q-33 -20 -51 -51h-78l84 370h417v-87h-353z" />
    <glyph glyph-name="six" unicode="6" 
d="M162 380q74 87 204 87q120 0 205 -61q94 -68 94 -169q0 -126 -101 -192q-82 -55 -201 -55q-150 0 -236 84q-91 89 -91 249q0 64 15.5 118t40.5 90t46.5 57t44.5 37q90 61 221 61q112 0 182 -43q71 -43 71 -117q0 -36 -22 -58q-21 -21 -62 -21q-34 0 -56 15q-22 16 -22 40
q0 33 24 48q-5 -62 42 -62q18 0 29 11q8 9 8 26q0 46 -67 78q-53 25 -120 25q-119 0 -186 -71q-68 -72 -63 -177zM353 393q-73 0 -122 -44q-49 -45 -49 -120t49 -120q49 -44 122 -44t122 44q49 45 49 120t-49 120q-49 44 -122 44z" />
    <glyph glyph-name="seven" unicode="7" 
d="M636 676v-74q-50 -46 -90 -105q-39 -59 -65 -122q-33 -76 -43 -173l-8 -74q-1 -5 -2.5 -22t-2.5 -26.5t-4 -23.5t-7.5 -25t-10.5 -19q-20 -27 -55 -27q-37 0 -56 31q-14 25 -14 85q0 145 110 311q69 104 157 190h-280q-90 0 -126 -33q-42 -38 -50 -140h-13v268h13
q23 -21 57 -21h490z" />
    <glyph glyph-name="eight" unicode="8" 
d="M354 686q138 0 216.5 -52.5t78.5 -139.5q0 -120 -130 -146q58 -10 93.5 -39.5t45.5 -58.5t10 -61q0 -90 -81 -144.5t-233 -54.5t-233 54.5t-81 144.5q0 32 10 61t45.5 58.5t93.5 39.5q-130 26 -130 146q0 87 78.5 139.5t216.5 52.5zM354 609q-81 0 -120 -30
q-41 -30 -41 -84q0 -52 41 -85q37 -29 120 -29t120 29q41 33 41 85q0 54 -41 84q-39 30 -120 30zM354 305q-83 0 -124 -31q-42 -31 -42 -88t42 -88q41 -31 124 -31t124 31q42 31 42 88t-42 88q-41 31 -124 31z" />
    <glyph glyph-name="nine" unicode="9" 
d="M546 296q-74 -87 -204 -87q-120 0 -205 61q-94 68 -94 169q0 126 101 192q82 55 201 55q150 0 236 -84q91 -89 91 -249q0 -64 -15.5 -118t-40.5 -90t-46.5 -57t-44.5 -37q-90 -61 -228 -61q-100 0 -166 36q-82 46 -82 120q0 34 24 60q23 24 65 24q31 0 53 -16
q22 -17 22 -40q0 -33 -24 -48q2 23 -7 42.5t-35 19.5q-17 0 -27 -12q-8 -11 -8 -29q0 -43 65 -74q53 -25 120 -25q117 0 186 71q68 72 63 177zM355 283q73 0 122 44q49 45 49 120t-49 120q-49 44 -122 44t-122 -44q-49 -45 -49 -120t49 -120q49 -44 122 -44z" />
    <glyph glyph-name="colon" unicode=":" horiz-adv-x="237" 
d="M50 64q0 31 21 49.5t47 18.5q28 0 48.5 -20.5t20.5 -47.5q0 -29 -20.5 -49.5t-48.5 -20.5q-29 0 -48.5 20.5t-19.5 49.5zM50 437q0 31 21 49.5t47 18.5q28 0 48.5 -20.5t20.5 -47.5q0 -29 -20.5 -49.5t-48.5 -20.5q-29 0 -48.5 20.5t-19.5 49.5z" />
    <glyph glyph-name="semicolon" unicode=";" horiz-adv-x="238" 
d="M50 50q0 28 18.5 44.5t45.5 16.5q33 0 53.5 -26t20.5 -59q0 -53 -26 -78t-60 -25q-30 0 -41 15h11q29 0 45 13q18 15 18 42q0 8 -1 12q-12 -9 -28 -10q-24 2 -41.5 16t-14.5 39zM50 437q0 31 21 49.5t47 18.5q28 0 48.5 -20.5t20.5 -47.5q0 -29 -20.5 -49.5t-48.5 -20.5
q-29 0 -48.5 20.5t-19.5 49.5z" />
    <glyph glyph-name="less" unicode="&#x3c;" horiz-adv-x="545" 
d="M124 235l386 -155v-80l-475 190v90l475 190v-80z" />
    <glyph glyph-name="equal" unicode="=" horiz-adv-x="544" 
d="M30 474h484v-74h-484v74zM30 322h484v-74h-484v74z" />
    <glyph glyph-name="greater" unicode="&#x3e;" horiz-adv-x="545" 
d="M421 235l-386 155v80l475 -190v-90l-475 -190v80z" />
    <glyph glyph-name="question" unicode="?" horiz-adv-x="571" 
d="M126 446l-4 -5q-57 36 -57 109q0 66 55 113t148 47q104 0 167 -54q70 -59 70 -159q0 -91 -59.5 -147t-162.5 -56h-12l-22 -145h-9l-29 214q93 -13 137 43q24 31 24 84q0 64 -35 102q-38 40 -98 40q-59 0 -96.5 -36.5t-37.5 -83.5q0 -38 21 -66zM179 59q0 25 18.5 43.5
t43.5 18.5t43.5 -18t18.5 -44t-18 -44.5t-44 -18.5t-44 18.5t-18 44.5z" />
    <glyph glyph-name="at" unicode="@" horiz-adv-x="826" 
d="M297 308q0 -43 18 -64q19 -22 57 -22q50 0 83 43q20 26 33.5 67t13.5 73q0 41 -22 66t-54 25q-47 0 -81 -44q-48 -61 -48 -144zM647 142h30q-86 -154 -304 -154q-170 0 -267 103q-81 86 -81 216q0 87 34.5 166.5t90.5 131.5q110 102 296 102q184 0 278 -96
q77 -78 77 -187t-70 -181q-69 -72 -158 -72q-43 0 -70 17t-27 45q-24 -28 -58 -44q-38 -18 -83 -18q-92 0 -116 86q-15 57 8 129.5t70 114.5q50 44 117 44q38 0 64 -17q29 -19 42 -59l63 69h24l-56 -256q-8 -36 4 -53q11 -15 37 -15q60 0 103 74q32 55 32 128q0 92 -54 154
q-73 83 -217 83q-80 0 -147 -21.5t-121 -86.5q-36 -44 -58.5 -108.5t-22.5 -129.5q0 -104 61 -177q78 -91 226 -91q184 0 253 103z" />
    <glyph glyph-name="A" unicode="A" horiz-adv-x="792" 
d="M354 710h85l221 -541q42 -102 60 -120q33 -32 91 -35l16 -1v-13h-392v13l15 1q57 4 74 14q30 16 30 55q0 18 -10 42l-45 110h-256l-38 -93q-9 -20 -7.5 -46t13.5 -42q24 -35 88 -39l25 -2v-13h-359v13l19 3q65 10 105 75q26 43 47 93zM474 305l-102 246h-2l-102 -246h206
z" />
    <glyph glyph-name="B" unicode="B" horiz-adv-x="816" 
d="M13 700h456q115 0 175 -34q80 -47 80 -142q0 -68 -48 -112q-37 -34 -94 -44q65 -7 112 -45q57 -46 57 -128q0 -112 -85 -159q-63 -36 -170 -36h-483v13l17 1q62 5 83 24q25 23 25 74v476q0 51 -25 74q-21 19 -83 24l-17 1v13zM262 323v-233h179q85 0 122 27q38 28 38 78
q0 65 -35 95q-37 33 -125 33h-179zM262 610v-206h168q74 0 112 34q33 30 33 77q0 44 -34 73q-28 22 -86 22h-193z" />
    <glyph glyph-name="C" unicode="C" horiz-adv-x="793" 
d="M730 700v-307h-13q-34 104 -112.5 170t-175.5 66q-98 0 -154 -71q-57 -72 -57 -207q0 -122 57 -191q69 -85 188 -85q108 0 176 59q69 60 81 162h13q-3 -117 -63 -194q-87 -112 -252 -112q-164 0 -265 108q-88 95 -88 237q0 173 100 278q93 97 245 97q83 0 150 -32
q57 -27 98 -76h6l53 98h13z" />
    <glyph glyph-name="D" unicode="D" horiz-adv-x="892" 
d="M13 700h447q59 0 96.5 -3.5t89.5 -24.5t92 -62q89 -91 89 -260t-89 -260q-40 -41 -92 -62t-89.5 -24.5t-96.5 -3.5h-447v13l17 1q62 5 83 24q25 23 25 74v476q0 51 -25 74q-21 19 -83 24l-17 1v13zM262 620v-540h184q118 0 172 61t54 209t-54 209t-164 61h-192z" />
    <glyph glyph-name="E" unicode="E" horiz-adv-x="781" 
d="M687 700v-297h-13q-8 58 -24.5 99t-36 63.5t-49.5 35t-56.5 16t-65.5 3.5h-180v-226h83q76 0 104 30t36 117h13v-372h-13q-7 93 -36 125q-28 32 -104 32h-83v-246h207q103 0 155 52q19 19 31 45t15.5 45.5t6.5 50.5l3 31h13v-304h-680v13l17 1q60 4 83 24q25 22 25 74
v476q0 52 -25 74q-21 19 -83 24l-17 1v13h674z" />
    <glyph glyph-name="F" unicode="F" horiz-adv-x="722" 
d="M687 700v-297h-13q-8 58 -24.5 99t-36 63.5t-49.5 35t-56.5 16t-65.5 3.5h-180v-241h83q76 0 104 30t36 117h13v-372h-13q-7 93 -36 125q-28 32 -104 32h-83v-160q0 -87 29 -113q21 -19 99 -24l17 -1v-13h-394v13l17 1q60 4 83 24q25 22 25 74v476q0 52 -25 74
q-21 19 -83 24l-17 1v13h674z" />
    <glyph glyph-name="G" unicode="G" horiz-adv-x="858" 
d="M716 700h13v-268h-11q-42 77 -105 127q-89 71 -182 71q-91 0 -150 -71q-62 -75 -62 -209t62 -209q58 -71 156 -71q81 0 133 42q41 35 41 88v34q0 51 -25 74q-21 19 -83 24l-17 1v13h352v-13l-17 -1q-17 -1 -28.5 -4t-26.5 -12t-23 -30t-8 -52v-244h-8l-86 86
q-34 -36 -78 -57q-64 -29 -153 -29q-169 0 -263 111q-82 96 -82 249q0 151 82 249q94 111 263 111q96 0 176 -39q47 -23 83 -57z" />
    <glyph glyph-name="H" unicode="H" horiz-adv-x="861" 
d="M848 700v-13l-17 -1q-62 -5 -83 -24q-25 -23 -25 -74v-476q0 -51 25 -74q21 -19 83 -24l17 -1v-13h-374v13l17 1q62 5 83 24q25 23 25 74v214h-337v-214q0 -51 25 -74q21 -19 83 -24l17 -1v-13h-374v13l17 1q62 5 83 24q25 23 25 74v476q0 51 -25 74q-21 19 -83 24l-17 1
v13h374v-13l-17 -1q-62 -5 -83 -24q-25 -23 -25 -74v-194h337v194q0 51 -25 74q-21 19 -83 24l-17 1v13h374z" />
    <glyph glyph-name="I" unicode="I" horiz-adv-x="400" 
d="M138 112v476q0 51 -25 74q-21 19 -83 24l-17 1v13h374v-13l-17 -1q-62 -5 -83 -24q-25 -23 -25 -74v-476q0 -51 25 -74q21 -19 83 -24l17 -1v-13h-374v13l17 1q62 5 83 24q25 23 25 74z" />
    <glyph glyph-name="J" unicode="J" horiz-adv-x="472" 
d="M210 28v560q0 51 -25 74q-21 19 -83 24l-17 1v13h374v-13l-17 -1q-62 -5 -83 -24q-25 -23 -25 -74v-548q0 -74 -33 -115q-47 -65 -151 -65q-65 0 -110 30q-53 35 -53 105q0 30 18 54q22 29 60 29q26 0 44 -15q17 -14 17 -35q0 -20 -16 -31q10 23 -5 38q-9 9 -26 9
q-14 0 -25 -9q-11 -10 -11 -33q0 -34 25 -53q24 -19 64 -19q45 0 64 31q14 22 14 67z" />
    <glyph glyph-name="K" unicode="K" horiz-adv-x="849" 
d="M138 112v476q0 51 -25 74q-21 19 -83 24l-17 1v13h374v-13l-17 -1q-62 -5 -83 -24q-25 -23 -25 -74v-274l266 241q51 46 51 78q0 26 -22 39q-20 12 -56 14l-13 1v13h353v-13q-31 -5 -66 -23q-45 -24 -102 -74l-202 -183l235 -279q47 -55 89 -83q36 -24 73 -32v-13h-359
v13l12 1q34 3 48 10q23 11 23 33q0 17 -13 36q-12 17 -37 46l-159 189l-121 -109v-107q0 -51 25 -74q21 -19 83 -24l17 -1v-13h-374v13l17 1q62 5 83 24q25 23 25 74z" />
    <glyph glyph-name="L" unicode="L" horiz-adv-x="730" 
d="M138 112v476q0 51 -25 74q-21 19 -83 24l-17 1v13h374v-13l-17 -1q-62 -5 -83 -24q-25 -23 -25 -74v-508h229q103 0 155 52q19 19 31 45t15.5 45.5t6.5 50.5l3 31h13v-304h-702v13l17 1q60 4 83 24q25 22 25 74z" />
    <glyph glyph-name="M" unicode="M" horiz-adv-x="1015" 
d="M1002 700v-13l-17 -1q-62 -5 -83 -24q-25 -23 -25 -74v-476q0 -51 25 -74q21 -19 83 -24l17 -1v-13h-374v13l17 1q62 5 83 24q25 23 25 74v491h-3l-238 -603h-46l-238 603h-3v-471q0 -65 25 -90q26 -26 83 -28l17 -1v-13h-337v13l17 1q57 2 83 28q25 25 25 90v456
q0 51 -25 74q-21 19 -83 24l-17 1v13h312l187 -475h3l187 475h300z" />
    <glyph glyph-name="N" unicode="N" horiz-adv-x="906" 
d="M13 700h245l423 -454v342q0 51 -25 74q-21 19 -83 24l-17 1v13h337v-13l-17 -1q-62 -5 -83 -24q-25 -23 -25 -74v-605h-13l-519 557v-428q0 -51 25 -74q21 -19 83 -24l17 -1v-13h-337v13l17 1q62 5 83 24q25 23 25 74v476q0 40 -33 67q-14 11 -39.5 19.5t-42.5 9.5l-21 1
v15z" />
    <glyph glyph-name="O" unicode="O" horiz-adv-x="880" 
d="M440 710q175 0 276 -92q109 -98 109 -268t-109 -268q-101 -92 -276 -92t-276 92q-109 98 -109 268t109 268q101 92 276 92zM210 350q0 -133 66 -209q61 -71 164 -71t164 71q66 76 66 209t-66 209q-61 71 -164 71t-164 -71q-66 -76 -66 -209z" />
    <glyph glyph-name="P" unicode="P" horiz-adv-x="734" 
d="M262 316v-204q0 -51 25 -74q21 -19 83 -24l17 -1v-13h-374v13l17 1q62 5 83 24q25 23 25 74v476q0 51 -25 74q-21 19 -83 24l-17 1v13h442q136 0 189 -30q84 -48 84 -163q0 -113 -84 -161q-53 -30 -189 -30h-193zM262 620v-224h193q67 0 96 28q30 28 30 84t-30 84
q-29 28 -96 28h-193z" />
    <glyph glyph-name="Q" unicode="Q" horiz-adv-x="913" 
d="M420 162q-34 0 -66 -15q-26 -13 -48 -32q44 -45 131 -45q63 0 119 29q-24 24 -53 41q-39 22 -83 22zM898 118h17q4 -32 -6.5 -62.5t-28.5 -48.5q-35 -35 -96 -35q-87 0 -151 54q-91 -36 -193 -36q-175 0 -276 92q-109 98 -109 268t109 268q101 92 276 92q174 0 275 -92
q109 -100 109 -268q0 -148 -93 -256q17 -18 44.5 -34.5t50.5 -16.5q35 0 55 27q13 17 17 48zM209 350q0 -117 66 -206q49 41 86 57q45 20 101 20q42 0 86 -14q38 -12 75 -38q47 79 47 181q0 131 -66 209q-61 71 -164 71q-104 0 -164 -71q-32 -38 -49.5 -94.5t-17.5 -114.5z
" />
    <glyph glyph-name="R" unicode="R" horiz-adv-x="808" 
d="M262 314v-202q0 -51 25 -74q21 -19 83 -24l17 -1v-13h-374v13l17 1q62 5 83 24q25 23 25 74v476q0 51 -25 74q-21 19 -83 24l-17 1v13h487q111 0 165 -38q70 -49 70 -136q0 -89 -62 -136q-55 -41 -136 -45q44 -14 75 -38q42 -32 56 -85q0 -1 10 -53q1 -4 2.5 -14t3.5 -21
t3 -15q6 -30 18 -50q10 -18 23 -29q24 -21 69 -25l25 -2v-13h-221q-24 24 -37 70q-8 32 -10 67q-2 42 -5 70q-4 40 -17 60q-16 27 -49 38q-26 9 -74 9h-147zM262 620v-226h185q73 0 107 31q33 29 33 82q0 52 -33 82q-34 31 -107 31h-185z" />
    <glyph glyph-name="S" unicode="S" horiz-adv-x="680" 
d="M608 710v-277h-13q-15 49 -60 101q-37 45 -87 68q-59 28 -119 28q-67 0 -102 -27t-35 -72q0 -42 27 -67q21 -20 100 -38l92 -21q125 -29 175 -78q51 -51 51 -126q0 -109 -81 -167q-60 -44 -165 -44q-97 0 -165 29t-112 82l-47 -111h-13v344h13q27 -78 67 -133
q47 -65 111 -98q62 -32 137 -32q62 0 95 26q35 26 35 68q0 57 -43 88q-29 20 -79 31l-127 29q-76 18 -106 35q-19 11 -37 27q-55 48 -55 125q0 104 75 161q64 49 176 49q71 0 150 -34q53 -23 88 -48l41 82h13z" />
    <glyph glyph-name="T" unicode="T" horiz-adv-x="668" 
d="M396 620v-508q0 -51 25 -74q21 -19 83 -24l17 -1v-13h-374v13l17 1q62 5 83 24q25 23 25 74v508h-74q-73 0 -111 -35q-23 -21 -39.5 -70.5t-19.5 -95.5h-13v281h638v-281h-13q-3 46 -19.5 95.5t-39.5 70.5q-38 35 -111 35h-74z" />
    <glyph glyph-name="U" unicode="U" horiz-adv-x="849" 
d="M714 588v-371q0 -32 -2 -52t-15.5 -51.5t-39.5 -56.5q-70 -67 -217 -67q-163 0 -239 60q-40 32 -53 70t-13 86v382q0 51 -25 74q-21 19 -83 24l-17 1v13h374v-13l-17 -1q-62 -5 -83 -24q-25 -23 -25 -74v-369q0 -69 48 -107q25 -20 69 -31t81 -11q35 0 73.5 10.5
t60.5 30.5q36 32 36 103v374q0 51 -25 74q-21 19 -83 24l-17 1v13h337v-13l-17 -1q-62 -5 -83 -24q-25 -23 -25 -74z" />
    <glyph glyph-name="V" unicode="V" horiz-adv-x="874" 
d="M-14 687v13h359v-13l-19 -2q-46 -4 -66 -15q-23 -12 -23 -36t15 -54l199 -400l182 371q20 40 20 63q0 31 -18 47q-18 18 -60 23l-22 3v13h335v-13l-21 -2q-46 -5 -75.5 -28t-61.5 -88l-279 -569h-42l-298 602q-18 37 -39 56q-23 22 -62 26z" />
    <glyph glyph-name="W" unicode="W" horiz-adv-x="1348" 
d="M-14 687v13h370v-13l-19 -2q-46 -4 -66 -15q-23 -12 -23 -36q0 -23 13 -54l176 -383l151 354q20 47 20 67q0 31 -22 47q-17 13 -56 19l-22 3v13h363v-13l-19 -2q-46 -4 -66 -15q-23 -12 -23 -36q0 -22 13 -54l176 -383l151 354q20 43 20 63q0 29 -18 47t-60 23l-22 3v13
h339v-13l-21 -2q-45 -4 -76.5 -28t-60.5 -88l-258 -569h-42l-242 524l-231 -524h-42l-278 602q-15 34 -39 56q-23 22 -62 26z" />
    <glyph glyph-name="X" unicode="X" horiz-adv-x="867" 
d="M-1 700h388v-13l-23 -2q-36 -2 -59 -13q-28 -14 -28 -42q0 -14 14 -29l142 -158l100 117q26 31 26 63q0 26 -20 41q-22 17 -72 21l-25 2v13h402v-13l-20 -3q-51 -8 -98 -38q-15 -10 -31.5 -25t-25 -24.5t-27 -30.5t-21.5 -25l-135 -156l213 -238q73 -83 106 -105
q36 -23 77 -29v-13h-420v13l29 1q43 2 67 14q29 14 29 40q0 29 -42 75l-137 151l-127 -148q-33 -40 -33 -66q0 -37 42 -53q34 -10 64 -12l24 -2v-13h-393v13q58 13 105 48q44 33 70 65l195 227l-231 257q-56 62 -106 73l-19 4v13z" />
    <glyph glyph-name="Y" unicode="Y" horiz-adv-x="848" 
d="M486 331v-219q0 -51 25 -74q21 -19 83 -24l17 -1v-13h-374v13l17 1q62 5 83 24q25 23 25 74v192l-215 268q-39 48 -59 67q-48 45 -103 48v13h420v-13l-21 -1q-48 -2 -74 -11q-41 -13 -41 -44q0 -9 6.5 -19.5t18.5 -23.5t15 -17l137 -177l130 164q32 41 32 69q0 25 -29 41
q-28 15 -84 18l-22 1v13h390v-13q-43 -4 -82 -25q-50 -26 -86 -72z" />
    <glyph glyph-name="Z" unicode="Z" horiz-adv-x="755" 
d="M73 700h619l5 -6l-444 -614h220q94 0 140 44q58 56 66 200h13v-324h-645l-2 6l446 614h-212q-78 0 -121 -35q-28 -22 -48.5 -70t-23.5 -97h-13v282z" />
    <glyph glyph-name="bracketleft" unicode="[" horiz-adv-x="535" 
d="M480 672h-152v-752h152v-60h-400v13l17 1q62 5 83 24q25 23 25 74v648q0 51 -25 74q-21 19 -83 24l-17 1v13h400v-60z" />
    <glyph glyph-name="backslash" unicode="\" horiz-adv-x="391" 
d="M6 712h64l387 -886h-64z" />
    <glyph glyph-name="bracketright" unicode="]" horiz-adv-x="535" 
d="M80 672v60h400v-13l-17 -1q-62 -5 -83 -24q-25 -23 -25 -74v-648q0 -51 25 -74q21 -19 83 -24l17 -1v-13h-400v60h152v752h-152z" />
    <glyph glyph-name="asciicircum" unicode="^" horiz-adv-x="382" 
d="M191 526l-174 -214h-17l188 400h6l188 -400h-17z" />
    <glyph glyph-name="underscore" unicode="_" horiz-adv-x="516" 
d="M0 -139h516v-58h-516v58z" />
    <glyph glyph-name="grave" unicode="`" horiz-adv-x="264" 
d="M213 527l-139 68q-40 19 -48 27q-16 14 -16 35q0 19 17 33q13 10 31 10q21 0 48 -29q5 -5 31 -36l82 -102z" />
    <glyph glyph-name="a" unicode="a" horiz-adv-x="590" 
d="M586 13v-13h-74q-36 0 -64 17q-36 22 -47 77q-25 -46 -67 -72q-49 -32 -118 -32q-72 0 -113 32q-48 38 -48 101q0 56 31 94q36 42 106 59q23 5 68 13t77 15q37 8 59 22v13q0 62 -34 87q-27 21 -89 21q-65 0 -103 -16q-45 -18 -45 -57q0 -35 34 -35q32 0 32 26q0 16 -8 24
q11 -1 20 -10q7 -8 7 -23q0 -23 -21 -38q-17 -11 -46 -11q-31 0 -52 21t-21 52q0 75 80 108q52 22 132 22q105 0 158 -41q56 -44 56 -135v-212q0 -60 20 -83q18 -21 58 -25zM396 238v39q-33 -19 -81 -29q-100 -22 -121 -40q-29 -24 -29 -66q0 -37 24 -57q23 -19 60 -19
q55 0 87 26t45 56q15 32 15 90z" />
    <glyph glyph-name="b" unicode="b" horiz-adv-x="636" 
d="M203 700v-296q27 54 76 82q42 24 93 24q87 0 146 -61q68 -72 68 -198q0 -83 -28 -140q-24 -51 -73 -86t-126 -35q-68 0 -120 31q-36 20 -63 59l-64 -90h-10v612q0 47 -16 63q-16 18 -61 21l-13 1v13h191zM203 246q0 -76 29 -124q36 -60 108 -60q68 0 102 58q29 48 29 131
q0 80 -29 129q-36 61 -97 61q-68 0 -109 -61q-33 -50 -33 -134z" />
    <glyph glyph-name="c" unicode="c" horiz-adv-x="600" 
d="M537 222h13q-2 -92 -48 -151q-63 -81 -188 -81q-101 0 -173 59q-86 73 -86 189q0 130 85 207q72 65 192 65q99 0 152.5 -42.5t53.5 -101.5q0 -36 -16 -58q-23 -31 -66 -31q-32 0 -51 17q-19 16 -19 38q0 40 33 47q-6 -28 5 -40q10 -10 24 -10q13 0 21 8q7 11 7 22
q0 38 -32 63q-34 28 -100 28q-62 0 -108 -40q-61 -53 -61 -159q0 -85 52 -137q50 -50 132 -50q84 0 132 54q40 44 46 104z" />
    <glyph glyph-name="d" unicode="d" horiz-adv-x="632" 
d="M448 0v98q-32 -55 -76 -82q-41 -26 -93 -26q-142 0 -196 121q-28 62 -28 140q0 126 68 198q59 61 146 61q51 0 93 -24q48 -29 76 -82v211q0 35 -18 51q-14 13 -68 20v14h187v-615q0 -34 18 -51q14 -13 67 -20v-14h-176zM438 246q0 84 -33 134q-41 61 -106 61t-100 -61
q-29 -49 -29 -129q0 -78 29 -129q34 -60 105 -60q68 0 105 60q29 48 29 124z" />
    <glyph glyph-name="e" unicode="e" horiz-adv-x="607" 
d="M552 242h-379q-2 -88 40 -136q48 -55 133 -55q76 0 127 40q50 39 66 102h11q-9 -87 -65 -141q-62 -62 -172 -62q-123 0 -193 74q-65 68 -65 186q0 109 68 184q70 76 190 76q112 0 179 -77q60 -70 60 -178v-13zM174 302h266q0 63 -35 106q-35 42 -94 42q-61 0 -97 -40
q-38 -43 -40 -108z" />
    <glyph glyph-name="f" unicode="f" horiz-adv-x="351" 
d="M12 500h90v54q0 74 42 114q44 42 120 42q61 0 100 -27q47 -33 47 -84q0 -30 -20 -48q-18 -16 -45 -16q-23 0 -38 11q-14 11 -14 29q0 11 7 19q6 7 16 10q-8 -8 -8 -20q0 -11 6 -17q8 -8 21 -8q14 0 24 10q7 9 7 20q0 24 -22 42q-26 20 -67 20q-36 0 -58 -24
q-18 -21 -18 -54v-73h119v-13l-119 -42v-347q0 -46 17 -63q18 -17 76 -21l13 -1v-13h-296v13l13 1q45 3 61 21q16 16 16 63v347l-90 42v13z" />
    <glyph glyph-name="g" unicode="g" horiz-adv-x="616" 
d="M198 115l149 -3q76 -2 112 -24q54 -32 54 -97q0 -67 -71 -105q-59 -32 -173 -32q-105 0 -158 25q-60 29 -60 84q0 26 22 46q18 17 42 25q-24 4 -44 27q-21 25 -21 51q0 35 35 58q28 18 74 23q-46 18 -69 57t-23 88q0 77 56 126q52 46 146 46q56 0 100 -25q50 -30 72 -81
q-4 49 23 77q22 24 60 24q33 0 53 -19q26 -23 26 -58q0 -30 -19 -51q-20 -22 -45 -22q-21 0 -31 11q-7 9 -6 22q8 -16 25 -16q9 0 16 7t7 20q0 17 -12 27q-12 9 -27 9q-16 0 -29 -14q-15 -16 -15 -45l-1 -39q-1 -77 -54 -124q-48 -42 -136 -42q-9 0 -33 2t-43 2
q-38 0 -46 -6q-12 -9 -12 -27q0 -27 56 -27zM300 25l-149 4q-20 -4 -35 -15q-19 -13 -19 -33q0 -35 48 -49q35 -10 106 -10q77 0 110 9q51 14 51 47q0 27 -30 37q-25 10 -82 10zM266 449q-47 0 -73 -33q-23 -28 -23 -78q0 -51 23 -78q26 -32 73 -32q48 0 74 32q23 27 23 78
q0 50 -23 78q-28 33 -74 33z" />
    <glyph glyph-name="h" unicode="h" horiz-adv-x="632" 
d="M202 700v-300q21 40 55 68q53 42 123 42q65 0 105 -31q23 -17 34.5 -42.5t13 -40t1.5 -39.5v-259q0 -47 16 -63q16 -18 61 -21l13 -1v-13h-280v13l13 1q45 3 61 21q16 16 16 63v223q0 57 -19 82q-26 32 -76 32q-68 0 -106 -61q-31 -51 -31 -146v-130q0 -47 16 -63
q16 -18 61 -21l13 -1v-13h-280v13l13 1q45 3 61 21q16 16 16 63v504q0 47 -16 63q-16 18 -61 21l-13 1v13h190z" />
    <glyph glyph-name="i" unicode="i" horiz-adv-x="300" 
d="M202 500v-402q0 -47 16 -63q16 -18 61 -21l13 -1v-13h-280v13l13 1q45 3 61 21q16 16 16 63v304q0 47 -16 63q-16 18 -61 21l-13 1v13h190zM88 615q0 25 18 43.5t44 18.5t44.5 -18t18.5 -44q0 -24 -17 -43t-46 -19t-45.5 19t-16.5 43z" />
    <glyph glyph-name="j" unicode="j" horiz-adv-x="327" 
d="M250 500v-497q0 -56 -24 -88q-35 -48 -105 -48q-55 0 -93 25q-38 29 -38 77q0 25 14 42q17 20 45 20q19 0 33 -11q13 -12 13 -26t-12 -24q7 19 -5 29q-6 6 -18 6q-14 0 -21 -9t-7 -20q0 -26 17 -41t46 -15q30 0 45 24q10 15 10 50v408q0 47 -16 63q-16 18 -61 21l-13 1
v13h190zM126 615q0 26 18 44t43 18q26 0 44.5 -18t18.5 -44q0 -24 -17 -43t-46 -19t-45 19t-16 43z" />
    <glyph glyph-name="k" unicode="k" horiz-adv-x="636" 
d="M202 220l171 188q18 18 18 36q0 19 -19 30q-16 10 -51 12l-15 1v13h282v-13q-48 -7 -84 -36q-26 -21 -50 -48l-108 -118l181 -206q25 -28 65 -48q33 -15 69 -18v-13h-308v13q20 1 41 6q27 5 27 21q0 8 -14 24l-129 147l-76 -84v-29q0 -47 16 -63q16 -18 61 -21l13 -1v-13
h-280v13l13 1q45 3 61 21q16 16 16 63v504q0 47 -16 63q-16 18 -61 21l-13 1v13h190v-480z" />
    <glyph glyph-name="l" unicode="l" horiz-adv-x="300" 
d="M202 700v-602q0 -47 16 -63q16 -18 61 -21l13 -1v-13h-280v13l13 1q45 3 61 21q16 16 16 63v504q0 47 -16 63q-16 18 -61 21l-13 1v13h190z" />
    <glyph glyph-name="m" unicode="m" horiz-adv-x="894" 
d="M194 500v-100q24 45 63 75q46 35 107 35q64 0 98 -37q26 -27 33 -67q22 38 61 69q44 35 105 35q62 0 97 -36q38 -38 38 -111v-265q0 -47 16 -63q16 -18 61 -21l13 -1v-13h-270v13l13 1q34 2 51 21q16 17 16 63v223q0 58 -18 84q-20 30 -54 30q-49 0 -86 -50
q-39 -54 -39 -157v-130q0 -46 16 -63q16 -18 51 -21l13 -1v-13h-260v13l13 1q34 2 51 21q16 17 16 63v223q0 53 -18 83q-17 31 -54 31q-54 0 -88 -52q-37 -56 -37 -155v-130q0 -46 16 -63q17 -19 51 -21l13 -1v-13h-270v13l13 1q45 3 61 21q16 16 16 63v304q0 47 -16 63
q-16 18 -61 21l-13 1v13h182z" />
    <glyph glyph-name="n" unicode="n" horiz-adv-x="632" 
d="M202 500v-100q21 40 55 68q53 42 123 42q65 0 105 -31q23 -17 34.5 -42.5t13 -40t1.5 -39.5v-259q0 -47 16 -63q16 -18 61 -21l13 -1v-13h-280v13l13 1q45 3 61 21q16 16 16 63v223q0 57 -19 82q-26 32 -76 32q-68 0 -106 -61q-31 -51 -31 -146v-130q0 -47 16 -63
q16 -18 61 -21l13 -1v-13h-280v13l13 1q45 3 61 21q16 16 16 63v304q0 47 -16 63q-16 18 -61 21l-13 1v13h190z" />
    <glyph glyph-name="o" unicode="o" horiz-adv-x="628" 
d="M578 251q0 -121 -74 -191t-190 -70t-190 70t-74 191q0 123 74 191t190 68t190 -68t74 -191zM314 441q-74 0 -113 -53q-33 -44 -33 -137q0 -91 33 -136q40 -56 113 -56t113 56q33 45 33 136q0 93 -33 137q-39 53 -113 53z" />
    <glyph glyph-name="p" unicode="p" horiz-adv-x="635" 
d="M192 500v-98q32 55 76 82q42 26 100 26q134 0 189 -121q28 -60 28 -139q0 -129 -68 -199q-59 -61 -146 -61q-59 0 -98 23q-47 28 -71 76v-131q0 -47 16 -63q17 -19 66 -21l18 -1v-13h-290v13l13 1q45 3 61 21q16 16 16 63v444q0 47 -16 63q-16 18 -61 21l-13 1v13h180z
M202 255q0 -83 33 -134q39 -61 101 -61q70 0 105 61q29 50 29 129q0 77 -29 128q-36 62 -105 62q-67 0 -105 -62q-29 -48 -29 -123z" />
    <glyph glyph-name="q" unicode="q" horiz-adv-x="622" 
d="M473 408l49 92h12v-542q0 -46 16 -63q15 -17 53 -21l11 -1v-13h-280v13l13 1q52 4 69 20q18 16 18 64v131q-23 -50 -72 -76q-41 -23 -98 -23q-87 0 -146 61q-68 70 -68 199q0 125 72 197q62 63 159 63q76 0 131 -38q37 -26 61 -64zM433 255q0 75 -29 123q-38 61 -105 61
q-68 0 -105 -61q-29 -48 -29 -128q0 -79 29 -129q35 -61 105 -61q62 0 101 61q33 51 33 134z" />
    <glyph glyph-name="r" unicode="r" horiz-adv-x="472" 
d="M193 500v-101q20 46 52 76q39 35 94 35t89 -36q30 -32 30 -81q0 -43 -25 -72q-25 -27 -66 -27q-33 0 -52 18q-16 15 -16 37q0 19 11 33q12 14 30 16q-19 -12 -19 -37q0 -10 9 -19q9 -8 22 -8q18 0 28 12q10 11 10 34q0 30 -19 47q-17 16 -49 16q-54 0 -86 -39
q-34 -42 -34 -133v-173q0 -46 18 -63q20 -17 69 -21l13 -1v-13h-290v13l13 1q43 3 61 21q16 17 16 63v304q0 47 -16 63q-16 18 -61 21l-13 1v13h181z" />
    <glyph glyph-name="s" unicode="s" horiz-adv-x="536" 
d="M457 504v-186h-9q-8 24 -30 53q-35 44 -76 62q-43 20 -100 20q-42 0 -65 -19q-23 -18 -23 -50q0 -24 14 -40q17 -18 65 -29l81 -18q74 -16 113 -45q53 -39 53 -106q0 -91 -77 -134q-40 -22 -103 -22q-64 0 -109 17q-53 19 -88 59l-39 -76h-8v243h8q16 -50 47 -91
q37 -47 88 -70q44 -19 94 -19q53 0 78 22q20 17 20 44q0 31 -21 49q-21 17 -71 28l-92 21q-2 1 -7 2q-66 17 -94 40q-43 37 -43 101q0 70 50 111q49 39 139 39q67 0 117 -24q24 -11 47 -32l32 50h9z" />
    <glyph glyph-name="t" unicode="t" horiz-adv-x="417" 
d="M184 654v-154h164v-62h-164v-312q0 -35 19 -54q21 -21 57 -21q32 0 52 16q24 19 24 47q0 14 -7 26q-9 15 -18 21q-6 4 -22 12q6 2 23 2q29 0 46 -17q22 -22 22 -54q0 -53 -39 -84q-37 -30 -98 -30q-77 0 -112 30q-47 41 -47 125v293h-74v14q65 24 107 77q43 54 53 125h14
z" />
    <glyph glyph-name="u" unicode="u" horiz-adv-x="630" 
d="M198 500v-321v-8v-9v-8.5t0.5 -9.5l1.5 -9t2 -9t2.5 -8.5t3.5 -9t5 -8t6 -8.5q22 -26 69 -26q76 0 113 60q3 3 9 16.5t14 50t8 79.5v130q0 47 -16 63q-16 18 -61 21l-13 1v13h190v-402q0 -47 16 -63q16 -18 61 -21l13 -1v-13h-181v109q-23 -50 -65 -81q-51 -38 -122 -38
q-63 0 -100 28q-56 40 -56 132v252q0 47 -16 63q-16 18 -61 21l-13 1v13h190z" />
    <glyph glyph-name="v" unicode="v" horiz-adv-x="612" 
d="M-20 500h273v-13l-15 -1q-21 0 -39 -7q-20 -7 -20 -27q0 -12 11 -33l144 -283l113 240q19 40 19 64q0 21 -13 32q-14 12 -36 14l-10 1v13h225v-13q-32 -3 -56 -19q-24 -15 -41 -52l-207 -426h-32l-217 426q-21 40 -46 55q-18 11 -53 16v13z" />
    <glyph glyph-name="w" unicode="w" horiz-adv-x="877" 
d="M-20 500h264v-13l-17 -1q-26 -1 -40 -9q-18 -9 -18 -25q0 -10 5 -22l124 -270l96 215q14 31 14 52q0 26 -17 41q-16 14 -42 17l-13 2v13h247v-13l-13 -2q-27 -4 -38 -13q-15 -13 -15 -34q0 -15 16 -52l104 -227l100 225q21 45 21 64q0 16 -17 26q-14 8 -39 12l-9 1v13
h204v-13q-26 -5 -42 -16q-19 -13 -36 -52l-191 -429h-22l-160 350l-156 -350h-22l-193 421q-20 43 -38 57q-22 17 -45 18l-12 1v13z" />
    <glyph glyph-name="x" unicode="x" horiz-adv-x="590" 
d="M303 321l44 52q36 43 36 70q0 39 -63 43l-15 1v13h281v-12q-38 -3 -64 -17q-34 -18 -81 -73l-102 -120l182 -213q32 -38 89 -52v-13h-302v13l16 1q67 4 67 48q0 17 -16 38l-94 110l-79 -93q-22 -27 -22 -55q0 -40 74 -47l21 -2v-13h-287v13q34 10 66 32.5t42 33.5t33 38
l116 136l-149 174q-28 33 -57 46q-18 9 -49 13l-10 1v13h293v-13l-19 -2q-27 -3 -37 -9q-15 -8 -15 -22q0 -10 11 -26q2 -3 6.5 -8t6.5 -8q1 -1 3.5 -5t4.5 -6z" />
    <glyph glyph-name="y" unicode="y" horiz-adv-x="588" 
d="M-20 500h309v-13l-15 -1q-78 -6 -78 -42q0 -9 4 -25q4 -12 10 -26l107 -257l78 194q11 30 17 53q8 32 8 41q0 32 -23 46q-15 10 -56 15l-16 2v13h283v-13l-14 -1q-54 -4 -82 -42q-13 -18 -38 -76l-135 -328q-47 -113 -98 -151q-39 -29 -94 -29q-47 0 -69 22.5t-22 55.5
t20 51q18 17 48 17q28 0 42 -13q13 -13 13 -28q0 -14 -11 -21q-2 11 -11 18t-21 7q-14 0 -20.5 -9.5t-6.5 -19.5q0 -17 13 -27q10 -8 29 -8q37 0 63 27q28 28 46 83l-167 389q-15 38 -31 52q-27 25 -82 31v13z" />
    <glyph glyph-name="z" unicode="z" horiz-adv-x="587" 
d="M61 500h467v-13l-334 -429h137q29 0 47.5 1.5t45 11.5t45.5 29q19 20 33 57.5t17 71.5h13l-5 -229h-494v13l332 429h-123q-77 0 -115 -33q-39 -34 -53 -113h-13v204z" />
    <glyph glyph-name="braceleft" unicode="{" horiz-adv-x="454" 
d="M70 214v40q38 2 62.5 16t34.5 38t13.5 44.5t3.5 47.5t-2 73t-2 60q0 50 15.5 86.5t37.5 56t52 31.5t52.5 14.5t46.5 2.5v-28q-90 -12 -90 -121q0 -55 1 -82q3 -93 3 -94q0 -148 -160 -162v-6q160 -14 160 -162q0 -6 -2 -54t-2 -124q0 -111 90 -119v-28q-23 -1 -46.5 1.5
t-53 14t-51.5 31.5t-37.5 57t-15.5 87q0 14 2 60t2 73q0 64 -23.5 103t-90.5 43z" />
    <glyph glyph-name="bar" unicode="|" horiz-adv-x="301" 
d="M100 700h101v-867h-101v867z" />
    <glyph glyph-name="braceright" unicode="}" horiz-adv-x="454" 
d="M384 254v-40q-38 -2 -62.5 -16t-34.5 -38t-13.5 -44.5t-3.5 -47.5t2 -73t2 -60q0 -50 -15.5 -86.5t-37.5 -56t-52 -31.5t-52.5 -14.5t-46.5 -2.5v28q90 12 90 121q0 55 -1 82q-3 93 -3 94q0 148 160 162v6q-160 14 -160 162q0 6 2 54t2 124q0 111 -90 119v28
q23 1 46.5 -1.5t53 -14t51.5 -31.5t37.5 -57t15.5 -87q0 -14 -2 -60t-2 -73q0 -64 23.5 -103t90.5 -43z" />
    <glyph glyph-name="asciitilde" unicode="~" horiz-adv-x="470" 
d="M244 627l-43 21q-39 19 -65 19q-28 0 -52 -21q-15 -14 -22 -30l-29 9l8 17q16 35 43 61q34 32 73 32q30 0 69 -19l55 -26q28 -14 51 -14q36 0 57 24q5 5 19 26l29 -8l-8 -18q-15 -32 -34 -53q-34 -39 -81 -39q-29 0 -70 19z" />
    <glyph glyph-name="sterling" unicode="&#xa3;" 
d="M108 371v30h123q-13 68 5 133t67 105q58 47 157 47q25 0 52 -6t55 -19.5t46 -39.5t18 -61q0 -46 -30 -75.5t-72 -29.5q-39 0 -71.5 22.5t-22.5 60.5q20 -45 64 -45q56 0 56 61q0 36 -30.5 57t-71.5 21q-123 0 -123 -114q0 -52 19 -117h221v-30h-214l15 -61h199v-30h-195
q8 -105 -32 -168q78 -33 141 -33q45 0 72 17q31 19 31 55q0 47 -49 55q40 14 77 -9.5t37 -72.5q0 -64 -50 -103q-45 -34 -129 -34q-35 0 -65.5 7.5t-42 13.5t-40.5 22l-24 13q-41 -56 -120 -56q-56 0 -90.5 26t-34.5 72q0 38 31.5 61.5t70.5 23.5q61 0 115 -32l10 -6
q6 68 -21 148h-154v30h144l-11 43l-4 18h-129zM262 66q-57 41 -103 41q-19 0 -31 -11t-12 -30q0 -21 22 -30.5t48 -9.5q23 0 45 11t31 29z" />
    <glyph glyph-name="currency" unicode="&#xa4;" horiz-adv-x="875" 
d="M735 -14l-118 118q-75 -60 -180 -60t-180 60l-117 -118l-70 70l118 118q-56 78 -56 176t56 176l-118 118l70 70l117 -118q75 60 180 60t180 -60l118 118l70 -70l-118 -118q56 -78 56 -176t-56 -176l118 -118zM437 124q92 0 159 67t67 159t-67 159t-159 67
q-93 0 -159 -66.5t-66 -159.5t66 -159.5t159 -66.5z" />
    <glyph glyph-name="section" unicode="&#xa7;" horiz-adv-x="577" 
d="M324 452l86 -29q25 -8 59.5 -25.5t49.5 -32.5q33 -33 33 -84q0 -49 -42 -96q-27 -30 -73 -53q71 -36 71 -116q0 -88 -92 -131q-60 -28 -138 -28q-86 0 -133 37q-42 34 -42 82q0 38 34 65q25 20 59 20q40 0 62 -18q30 -26 23 -65q-16 45 -58 45q-13 0 -35 -11
q-15 -13 -15 -34q0 -29 32 -47q27 -15 76 -15q33 0 63 13q47 22 47 76q0 22 -16 40q-5 6 -12.5 11.5t-13.5 9t-17 7.5t-17 6t-21.5 7t-21.5 7l-86 29q-82 28 -109 59q-33 35 -33 87q0 59 50 103q29 26 65 42q-71 37 -71 109q0 94 89 138q59 29 144 29q82 0 130 -37
q42 -33 42 -82q0 -42 -34 -67q-24 -18 -59 -18q-37 0 -61 18q-32 25 -24 65q16 -45 58 -45q23 0 35 11q15 13 15 34q0 30 -31 47q-27 15 -74 15q-36 0 -65 -13q-48 -23 -48 -72q0 -38 37 -61q17 -10 82 -32zM330 342l-105 35q-27 -9 -46.5 -30t-19.5 -42q0 -29 15 -47
q22 -30 103 -57l94 -32q28 11 47.5 33.5t19.5 45.5q0 22 -16 44q-21 26 -92 50z" />
    <glyph glyph-name="dieresis" unicode="&#xa8;" horiz-adv-x="446" 
d="M72 598q0 25 17 42.5t41 17.5t41 -17.5t17 -42.5t-17 -42.5t-41 -17.5t-41 17.5t-17 42.5zM258 598q0 25 17 42.5t41 17.5t41 -17.5t17 -42.5t-17 -42.5t-41 -17.5t-41 17.5t-17 42.5z" />
    <glyph glyph-name="copyright" unicode="&#xa9;" horiz-adv-x="817" 
d="M585 541v-176h-11q-16 54 -57 91.5t-101 37.5q-54 0 -82 -37q-30 -38 -30 -111q0 -66 30 -103q18 -21 46 -33.5t55 -12.5q56 0 94 32q41 34 46 90h11q0 -66 -35 -113q-48 -63 -141 -63q-92 0 -149 60q-48 52 -48 134q0 96 56 155q52 54 136 54q48 0 85 -18q31 -15 54 -41
l31 54h10zM45 350q0 149 107 255.5t257 106.5t256.5 -106.5t106.5 -255.5t-106.5 -255.5t-256.5 -106.5t-257 106.5t-107 255.5zM101 350q0 -130 90.5 -223.5t217.5 -93.5t217 93.5t90 223.5t-90 223.5t-217 93.5t-217.5 -93.5t-90.5 -223.5z" />
    <glyph glyph-name="guillemotleft" unicode="&#xab;" horiz-adv-x="472" 
d="M437 128h-4q-29 54 -71.5 100.5t-120.5 102.5q78 56 120.5 102.5t71.5 100.5h4q-4 -122 -76 -203q72 -81 76 -203zM236 128h-4q-29 54 -71.5 100.5t-120.5 102.5q78 56 120.5 102.5t71.5 100.5h4q-4 -122 -76 -203q72 -81 76 -203z" />
    <glyph glyph-name="logicalnot" unicode="&#xac;" horiz-adv-x="463" 
d="M339 120v197h-339v70h443v-267h-104z" />
    <glyph glyph-name="registered" unicode="&#xae;" horiz-adv-x="816" 
d="M45 350q0 149 106.5 255.5t256.5 106.5t256.5 -106.5t106.5 -255.5t-106.5 -255.5t-256.5 -106.5t-256.5 106.5t-106.5 255.5zM101 350q0 -130 90 -223.5t217 -93.5t217 93.5t90 223.5t-90 223.5t-217 93.5t-217 -93.5t-90 -223.5zM326 321v-108q0 -31 12 -43
q10 -10 43 -12l13 -1v-9h-213v9l12 1q34 2 44 11q13 13 13 39v274q0 26 -13 38q-10 9 -44 12l-12 1v9h272q59 0 93 -24q41 -28 41 -76q0 -49 -36 -77q-25 -20 -65 -25q21 -7 37 -20q12 -10 23 -35q4 -11 9 -39q2 -16 6 -34q2 -8 15 -34q13 -18 41 -20l18 -1v-9h-128
q-12 13 -20 34q-5 14 -7 45q0 9 -3 39q-4 26 -12 35q-6 8 -22 15q-15 5 -40 5h-77zM326 491v-118h98q37 0 55 16q19 17 19 42q0 27 -18 43q-19 17 -56 17h-98z" />
    <glyph glyph-name="degree" unicode="&#xb0;" horiz-adv-x="352" 
d="M60 597q0 47 34.5 81.5t81.5 34.5t81.5 -34.5t34.5 -81.5t-34.5 -81.5t-81.5 -34.5t-81.5 34.5t-34.5 81.5zM118 597q0 -24 17 -41t41 -17t41 17t17 41t-17 41t-41 17t-41 -17t-17 -41z" />
    <glyph glyph-name="plusminus" unicode="&#xb1;" horiz-adv-x="544" 
d="M30 403h202v200h79v-200h203v-77h-203v-192h-79v192h-202v77zM30 93h484v-76h-484v76z" />
    <glyph glyph-name="acute" unicode="&#xb4;" horiz-adv-x="264" 
d="M51 527l-6 6l82 102q26 31 31 36q27 29 48 29q18 0 31 -10q17 -14 17 -33q0 -21 -16 -35q-8 -8 -48 -27z" />
    <glyph glyph-name="mu" unicode="&#xb5;" horiz-adv-x="630" 
d="M198 500v-321q0 -55 24 -82q25 -29 66 -29q75 0 113 63q31 51 31 141v130q0 47 -16 63q-16 18 -61 21l-13 1v13h190v-402q0 -47 16 -63q16 -18 61 -21l13 -1v-13h-181v109q-24 -51 -65 -83q-46 -36 -101 -36q-99 0 -119 94l-10 -1q19 -47 26.5 -96t-1.5 -86
q-6 -22 -20 -34.5t-29 -12.5q-30 0 -43 36q-10 18 -9 53.5t6.5 61t12 82.5t7.5 119l2 196q0 47 -16 63q-16 18 -61 21l-13 1v13h190z" />
    <glyph glyph-name="mu" unicode="&#x3bc;" horiz-adv-x="630" 
d="M198 500v-321q0 -55 24 -82q25 -29 66 -29q75 0 113 63q31 51 31 141v130q0 47 -16 63q-16 18 -61 21l-13 1v13h190v-402q0 -47 16 -63q16 -18 61 -21l13 -1v-13h-181v109q-24 -51 -65 -83q-46 -36 -101 -36q-99 0 -119 94l-10 -1q19 -47 26.5 -96t-1.5 -86
q-6 -22 -20 -34.5t-29 -12.5q-30 0 -43 36q-10 18 -9 53.5t6.5 61t12 82.5t7.5 119l2 196q0 47 -16 63q-16 18 -61 21l-13 1v13h190z" />
    <glyph glyph-name="paragraph" unicode="&#xb6;" horiz-adv-x="725" 
d="M458 700h212v-13l-20 -1q-57 -2 -80 -24q-25 -23 -25 -62v-628q0 -51 25 -74q21 -19 83 -24l17 -1v-13h-212v840zM405 700v-840h-212v13l17 1q62 5 83 24q25 23 25 74v228q-78 -3 -140 35t-92.5 95.5t-30.5 119.5q0 44 17.5 87.5t50 80t86 59.5t118.5 23h78z" />
    <glyph glyph-name="guillemotright" unicode="&#xbb;" horiz-adv-x="472" 
d="M40 534h4q29 -54 71.5 -100.5t120.5 -102.5q-78 -56 -120.5 -102.5t-71.5 -100.5h-4q4 122 76 203q-72 81 -76 203zM241 534h4q29 -54 71.5 -100.5t120.5 -102.5q-78 -56 -120.5 -102.5t-71.5 -100.5h-4q4 122 76 203q-72 81 -76 203z" />
    <glyph glyph-name="divide" unicode="&#xf7;" horiz-adv-x="544" 
d="M30 399h484v-76h-484v76zM214 532q0 24 17 41t41 17t41 -17t17 -41t-17 -41t-41 -17t-41 17t-17 41zM214 189q0 24 17 41t41 17t41 -17t17 -41t-17 -41t-41 -17t-41 17t-17 41z" />
    <glyph glyph-name="dotlessi" unicode="&#x131;" horiz-adv-x="300" 
d="M202 500v-402q0 -47 16 -63q16 -18 61 -21l13 -1v-13h-280v13l13 1q45 3 61 21q16 16 16 63v304q0 47 -16 63q-16 18 -61 21l-13 1v13h190z" />
    <glyph glyph-name="florin" unicode="&#x192;" horiz-adv-x="546" 
d="M359 563l-14 -81h88l-4 -30h-90l-86 -490q-5 -29 -10.5 -47.5t-21.5 -43t-42 -42.5q-45 -32 -111 -32q-52 0 -90 25q-38 26 -38 66q0 41 26 64q23 21 51 21q17 0 30 -9q10 -8 16 -19q-13 -1 -25 -13q-15 -15 -15 -41q0 -20 17 -34q15 -12 35 -12q30 0 52 22q19 21 27 72
l92 513h-101l4 30h102l7 38q1 3 3.5 17.5t3.5 18.5t4 17t5 18.5t6.5 16.5t9.5 18t12 16t15.5 16.5t18.5 14.5q45 32 111 32q53 0 90 -25q38 -26 38 -66q0 -41 -26 -64q-23 -21 -51 -21q-16 0 -30 9q-10 8 -16 19q13 1 25 13q15 15 15 41q0 20 -17 34q-15 12 -35 12
q-32 0 -52 -22q-21 -23 -29 -72z" />
    <glyph glyph-name="dotaccent" unicode="&#x2d9;" horiz-adv-x="260" 
d="M68 606q0 25 17.5 42.5t42.5 17.5t42.5 -17.5t17.5 -42.5t-17.5 -42.5t-42.5 -17.5t-42.5 17.5t-17.5 42.5z" />
    <glyph glyph-name="Delta" unicode="&#x394;" horiz-adv-x="649" 
d="M285 710h85l289 -710h-669zM496 70l-193 481h-2l-193 -481h388z" />
    <glyph glyph-name="Delta" unicode="&#x2206;" horiz-adv-x="649" 
d="M285 710h85l289 -710h-669zM496 70l-193 481h-2l-193 -481h388z" />
    <glyph glyph-name="afii10023" unicode="&#x401;" horiz-adv-x="781" 
d="M687 700v-297h-13q-8 58 -24.5 99t-36 63.5t-49.5 35t-56.5 16t-65.5 3.5h-180v-226h83q76 0 104 30t36 117h13v-372h-13q-7 93 -36 125q-28 32 -104 32h-83v-246h207q103 0 155 52q19 19 31 45t15.5 45.5t6.5 50.5l3 31h13v-304h-680v13l17 1q60 4 83 24q25 22 25 74
v476q0 52 -25 74q-21 19 -83 24l-17 1v13h674zM465 836q0 29 19 51t55 22q35 0 55 -22.5t20 -50.5t-20.5 -51.5t-54.5 -23.5q-32 0 -53 21.5t-21 53.5zM182 836q0 28 20 50.5t54 22.5q35 0 55.5 -22.5t20.5 -50.5t-20.5 -51.5t-55.5 -23.5q-34 0 -54 23.5t-20 51.5z" />
    <glyph glyph-name="afii10051" unicode="&#x402;" horiz-adv-x="842" 
d="M384 620v-228q70 39 159 39q98 0 156 -46q68 -54 68 -157v-157q0 -107 -45 -157q-49 -54 -139 -54q-64 0 -110 30q-53 35 -53 105q0 30 18 54q22 29 60 29q26 0 44 -15q17 -14 17 -35q0 -20 -16 -31q10 23 -5 38q-9 9 -26 9q-14 0 -25 -9q-11 -10 -11 -33q0 -34 25 -53
t64 -19q42 0 63 34q15 27 15 110v147q0 74 -40 108q-33 27 -94 27q-37 0 -78 -15q-28 -10 -47 -25v-316h-249v13l17 1q62 5 83 24q25 23 25 74v508h-62q-73 0 -111 -35q-23 -21 -39.5 -70.5t-19.5 -95.5h-13v281h638v-231h-13q-9 74 -59 116q-41 35 -111 35h-86z" />
    <glyph glyph-name="afii10052" unicode="&#x403;" horiz-adv-x="684" 
d="M138 112v476q0 51 -25 74q-21 19 -83 24l-17 1v13h621v-285h-13q-14 98 -45 143q-31 44 -77 59t-110 15h-127v-520q0 -47 23 -70t105 -28l17 -1v-13h-394v13l17 1q62 5 83 24q25 23 25 74zM287 715l-6 6l82 102q26 31 31 36q27 29 48 29q18 0 31 -10q17 -14 17 -33
q0 -21 -16 -35q-8 -8 -48 -27z" />
    <glyph glyph-name="afii10053" unicode="&#x404;" horiz-adv-x="725" 
d="M640 423h-13q-21 103 -86 165q-61 58 -158 58q-74 0 -120 -55q-55 -66 -53 -190h299v-68h-299q-2 -49 10 -102.5t36 -88.5q56 -83 172 -83q68 0 120 31q49 30 49 69q0 24 -16 40q-12 12 -32 12q-18 0 -28 -8q-12 -10 -12 -27q0 -30 28 -45q-32 -11 -59 14q-22 20 -22 54
q0 32 19 55q26 32 75 32q50 0 79 -33q33 -36 33 -91q0 -80 -80 -130q-67 -42 -179 -42q-129 0 -221 72q-124 99 -124 286q0 180 100 276q89 86 228 86q63 0 108 -15t92 -55l41 60h13v-277z" />
    <glyph glyph-name="afii10054" unicode="&#x405;" horiz-adv-x="680" 
d="M608 710v-277h-13q-15 49 -60 101q-37 45 -87 68q-59 28 -119 28q-67 0 -102 -27t-35 -72q0 -42 27 -67q21 -20 100 -38l92 -21q125 -29 175 -78q51 -51 51 -126q0 -109 -81 -167q-60 -44 -165 -44q-97 0 -165 29t-112 82l-47 -111h-13v344h13q27 -78 67 -133
q47 -65 111 -98q62 -32 137 -32q62 0 95 26q35 26 35 68q0 57 -43 88q-29 20 -79 31l-127 29q-76 18 -106 35q-19 11 -37 27q-55 48 -55 125q0 104 75 161q64 49 176 49q71 0 150 -34q53 -23 88 -48l41 82h13z" />
    <glyph glyph-name="afii10055" unicode="&#x406;" horiz-adv-x="400" 
d="M138 112v476q0 51 -25 74q-21 19 -83 24l-17 1v13h374v-13l-17 -1q-62 -5 -83 -24q-25 -23 -25 -74v-476q0 -51 25 -74q21 -19 83 -24l17 -1v-13h-374v13l17 1q62 5 83 24q25 23 25 74z" />
    <glyph glyph-name="afii10056" unicode="&#x407;" horiz-adv-x="400" 
d="M138 112v476q0 51 -25 74q-21 19 -83 24l-17 1v13h374v-13l-17 -1q-62 -5 -83 -24q-25 -23 -25 -74v-476q0 -51 25 -74q21 -19 83 -24l17 -1v-13h-374v13l17 1q62 5 83 24q25 23 25 74zM49 794q0 25 17 42.5t41 17.5t41 -17.5t17 -42.5t-17 -42.5t-41 -17.5t-41 17.5
t-17 42.5zM235 794q0 25 17 42.5t41 17.5t41 -17.5t17 -42.5t-17 -42.5t-41 -17.5t-41 17.5t-17 42.5z" />
    <glyph glyph-name="afii10057" unicode="&#x408;" horiz-adv-x="472" 
d="M210 28v560q0 51 -25 74q-21 19 -83 24l-17 1v13h374v-13l-17 -1q-62 -5 -83 -24q-25 -23 -25 -74v-548q0 -74 -33 -115q-47 -65 -151 -65q-65 0 -110 30q-53 35 -53 105q0 30 18 54q22 29 60 29q26 0 44 -15q17 -14 17 -35q0 -20 -16 -31q10 23 -5 38q-9 9 -26 9
q-14 0 -25 -9q-11 -10 -11 -33q0 -34 25 -53q24 -19 64 -19q45 0 64 31q14 22 14 67z" />
    <glyph glyph-name="afii10058" unicode="&#x409;" horiz-adv-x="1053" 
d="M606 403h180q119 0 184 -60q58 -54 58 -138q0 -89 -57 -146q-59 -59 -165 -59h-447l-2 13l17 1q62 5 83 24q25 23 25 74v520h-196v-53q0 -58 -6 -214q-6 -112 -10 -147q-12 -102 -39 -150q-45 -78 -134 -78q-45 0 -75 27q-32 29 -32 79t26 75t61 25q33 0 47 -19t14 -41
q0 -20 -11 -33q-4 27 -34 27q-15 0 -25 -11t-10 -26q0 -21 12.5 -33t31.5 -12q46 0 68 53q20 49 29 195q8 117 8 244v23q0 64 -23 91q-26 29 -89 32l-21 1v13h657v-13l-17 -1q-62 -5 -83 -24q-25 -23 -25 -74v-185zM606 329v-255h158q35 0 59 7t44 31q27 31 27 90
q0 68 -37 100q-14 13 -34.5 19.5t-33.5 7t-41 0.5h-142z" />
    <glyph glyph-name="afii10059" unicode="&#x40a;" horiz-adv-x="1170" 
d="M723 403h180q119 0 184 -60q58 -54 58 -138q0 -89 -57 -146q-59 -59 -165 -59h-447l-2 13l17 1q62 5 83 24q25 23 25 74v217h-337v-217q0 -51 25 -74q21 -19 83 -24l17 -1v-13h-374v13l17 1q62 5 83 24q25 23 25 74v476q0 51 -25 74q-21 19 -83 24l-17 1v13h374v-13
l-17 -1q-62 -5 -83 -24q-25 -23 -25 -74v-185h337v185q0 51 -25 74q-21 19 -83 24l-17 1v13h374v-13l-17 -1q-62 -5 -83 -24q-25 -23 -25 -74v-185zM723 329v-255h158q35 0 59 7t44 31q27 31 27 90q0 68 -37 100q-14 13 -34.5 19.5t-33.5 7t-41 0.5h-142z" />
    <glyph glyph-name="afii10060" unicode="&#x40b;" horiz-adv-x="892" 
d="M384 620v-228q65 39 159 39q100 0 159 -38q38 -24 51.5 -57t13.5 -83v-141q0 -51 25 -74q21 -19 83 -24l17 -1v-13h-354v13l18 1q19 1 31 4t26.5 12t22 29.5t7.5 52.5v135q0 53 -35 81t-99 28q-39 0 -78 -15q-28 -10 -47 -25v-204q0 -32 8 -52.5t24.5 -29.5t30 -12
t35.5 -4l17 -1v-13h-364v13l17 1q62 5 83 24q25 23 25 74v508h-62q-73 0 -111 -35q-23 -21 -39.5 -70.5t-19.5 -95.5h-13v281h638v-231h-13q-9 74 -59 116q-41 35 -111 35h-86z" />
    <glyph glyph-name="afii10061" unicode="&#x40c;" horiz-adv-x="834" 
d="M262 588v-194h139q68 0 89 50q7 16 13 72q8 73 12 90q13 55 48 81q32 23 79 23q57 0 85 -26q29 -26 29 -73q0 -43 -21.5 -65.5t-52.5 -22.5q-29 0 -45 18q-14 14 -12 38t21 35q2 -13 10 -23q9 -9 21 -9q15 0 22 11q5 8 5 17q0 22 -12 34q-13 14 -39 14q-35 0 -52 -29
q-14 -24 -17 -77l-2 -29q-4 -49 -7 -67q-7 -39 -27 -63q-19 -23 -49 -34q48 -12 83 -41q40 -32 56 -89q4 -13 10 -54q0 -4 2 -14t4 -22t3 -16q5 -29 18 -52q18 -31 42 -43q25 -12 50 -13l25 -2v-13h-221q-25 27 -37 73q-6 22 -10 69q-3 52 -5 73q-5 41 -17 62q-18 29 -49 40
q-22 9 -74 9h-117v-214q0 -32 9 -52.5t27 -29.5t32.5 -12t39.5 -4l17 -1v-13h-374v13l17 1q25 1 39.5 4t32.5 12t27 29.5t9 52.5v476q0 32 -9 52.5t-27 29.5t-32.5 12t-39.5 4l-17 1v13h374v-13l-17 -1q-25 -1 -39.5 -4t-32.5 -12t-27 -29.5t-9 -52.5zM336 715l-6 6l82 102
q26 31 31 36q27 29 48 29q18 0 31 -10q17 -14 17 -33q0 -21 -16 -35q-8 -8 -48 -27z" />
    <glyph glyph-name="afii10062" unicode="&#x40e;" horiz-adv-x="706" 
d="M570 572l-173 -409q-46 -109 -70 -134q-37 -39 -92 -39q-44 0 -77 29q-33 30 -33 79q0 41 24 68q25 27 62 27q32 0 48 -22q11 -15 11 -37q0 -10 -3 -20q-11 18 -34 18q-17 0 -26 -7q-14 -11 -14 -33q0 -17 11 -28q13 -13 31 -13q15 0 27 7.5t21 23t14 27t12 32.5l5 15
l-199 444q-15 35 -36 56q-25 24 -70 29l-19 2v13h359v-13l-23 -1q-45 -3 -62 -10q-26 -11 -28 -43v-12q4 -22 8 -33l134 -297l110 270q8 20 12 33q6 20 6 33q0 28 -20 41q-23 15 -67 18l-14 1v13h326v-13l-22 -2q-36 -4 -66 -22q-47 -29 -73 -91zM484 749h-209q-43 0 -68 24
q-26 26 -26 65q0 31 16 51q20 26 57 33l4 -8q-17 -4 -26 -13q-9 -11 -9 -30q0 -20 10 -29q12 -12 52 -12h189q40 0 52 12q10 9 10 29q0 36 -35 43l4 8q37 -7 57 -33q16 -20 16 -51q0 -39 -26 -65q-25 -24 -68 -24z" />
    <glyph glyph-name="afii10145" unicode="&#x40f;" horiz-adv-x="841" 
d="M262 68h317v520q0 51 -25 74q-21 19 -83 24l-17 1v13h374v-13l-17 -1q-62 -5 -83 -24q-25 -23 -25 -74v-476q0 -51 25 -74q21 -19 83 -24l17 -1v-13h-261q-63 0 -95 -37q-33 -38 -43 -120l-3 -26h-12l-3 26q-10 83 -43 120q-34 37 -93 37h-262v13l17 1q62 5 83 24
q25 23 25 74v476q0 51 -25 74q-21 19 -83 24l-17 1v13h374v-13l-17 -1q-62 -5 -83 -24q-25 -23 -25 -74v-520z" />
    <glyph glyph-name="afii10017" unicode="&#x410;" horiz-adv-x="792" 
d="M354 710h85l221 -541q42 -102 60 -120q33 -32 91 -35l16 -1v-13h-392v13l15 1q57 4 74 14q30 16 30 55q0 18 -10 42l-45 110h-256l-38 -93q-9 -20 -7.5 -46t13.5 -42q24 -35 88 -39l25 -2v-13h-359v13l19 3q65 10 105 75q26 43 47 93zM474 305l-102 246h-2l-102 -246h206
z" />
    <glyph glyph-name="afii10018" unicode="&#x411;" horiz-adv-x="763" 
d="M639 700v-266h-13q-13 97 -61 150q-44 48 -144 48h-159v-241h186q151 0 216 -70q45 -49 45 -134q0 -89 -68 -141q-59 -46 -162 -46h-466v13l17 1q62 5 83 24q25 23 25 74v476q0 51 -25 74q-21 19 -83 24l-17 1v13h626zM262 323v-255h137q91 0 129 31q39 32 39 94
q0 73 -47 105q-38 25 -121 25h-137z" />
    <glyph glyph-name="afii10019" unicode="&#x412;" horiz-adv-x="816" 
d="M13 700h456q115 0 175 -34q80 -47 80 -142q0 -68 -48 -112q-37 -34 -94 -44q65 -7 112 -45q57 -46 57 -128q0 -112 -85 -159q-63 -36 -170 -36h-483v13l17 1q62 5 83 24q25 23 25 74v476q0 51 -25 74q-21 19 -83 24l-17 1v13zM262 323v-233h179q85 0 122 27q38 28 38 78
q0 65 -35 95q-37 33 -125 33h-179zM262 610v-206h168q74 0 112 34q33 30 33 77q0 44 -34 73q-28 22 -86 22h-193z" />
    <glyph glyph-name="afii10020" unicode="&#x413;" horiz-adv-x="662" 
d="M138 112v476q0 51 -25 74q-21 19 -83 24l-17 1v13h621v-285h-13q-14 98 -45 143q-31 44 -77 59t-110 15h-127v-520q0 -47 23 -70t105 -28l17 -1v-13h-394v13l17 1q62 5 83 24q25 23 25 74z" />
    <glyph glyph-name="afii10021" unicode="&#x414;" horiz-adv-x="706" 
d="M-5 13l18 1q44 2 79 23q30 18 44 55q27 67 42 232l4 46q12 136 8 218q-3 54 -25 74q-21 19 -83 24l-17 1v13h628v-13l-17 -1q-62 -5 -83 -24q-25 -23 -25 -74v-476q0 -51 25 -74q21 -19 83 -24l17 -1v-196h-13q-10 72 -46 122q-44 61 -131 61h-327q-23 0 -37.5 -2
t-37.5 -15.5t-43 -39.5q-37 -48 -50 -126h-13v196zM444 70v560h-184q-2 -84 -13 -268q-7 -116 -23 -200q-9 -44 -24 -92h244z" />
    <glyph glyph-name="afii10022" unicode="&#x415;" horiz-adv-x="781" 
d="M687 700v-297h-13q-8 58 -24.5 99t-36 63.5t-49.5 35t-56.5 16t-65.5 3.5h-180v-226h83q76 0 104 30t36 117h13v-372h-13q-7 93 -36 125q-28 32 -104 32h-83v-246h207q103 0 155 52q19 19 31 45t15.5 45.5t6.5 50.5l3 31h13v-304h-680v13l17 1q60 4 83 24q25 22 25 74
v476q0 52 -25 74q-21 19 -83 24l-17 1v13h674z" />
    <glyph glyph-name="afii10024" unicode="&#x416;" horiz-adv-x="1100" 
d="M488 394v194q0 32 -9 52.5t-27 29.5t-32.5 12t-39.5 4l-17 1v13h374v-13l-17 -1q-25 -1 -39.5 -4t-32.5 -12t-27 -29.5t-9 -52.5v-194h99q68 0 89 50q7 16 13 72q8 73 12 90q13 55 48 81q32 23 79 23q57 0 85 -26q29 -26 29 -73q0 -43 -21.5 -65.5t-52.5 -22.5
q-29 0 -45 18q-14 14 -12 38t21 35q2 -13 10 -23q9 -9 21 -9q15 0 22 11q5 8 5 17q0 22 -12 34q-13 14 -39 14q-35 0 -52 -29q-14 -24 -17 -77l-2 -29q-4 -49 -7 -67q-7 -39 -27 -63q-19 -23 -49 -34q48 -12 83 -41q40 -32 56 -89q3 -13 10 -54q0 -4 2 -14t4 -22t3 -16
q5 -29 18 -52q18 -31 42 -43q25 -12 50 -13l25 -2v-13h-221q-25 27 -37 73q-6 22 -10 69q-3 52 -5 73q-5 41 -17 62q-18 29 -49 40q-22 9 -74 9h-77v-214q0 -32 9 -52.5t27 -29.5t32.5 -12t39.5 -4l17 -1v-13h-374v13l17 1q25 1 39.5 4t32.5 12t27 29.5t9 52.5v214h-77
q-51 0 -74 -9q-31 -11 -49 -40q-12 -21 -17 -62q-2 -21 -5 -73q-4 -47 -10 -69q-12 -46 -37 -73h-221v13l25 2q25 1 50 13q24 12 42 43q13 23 18 52q1 4 3 16t4 22t2 14q6 41 10 54q16 57 56 89q35 29 83 41q-30 11 -49 34q-20 24 -27 63q-3 18 -7 67l-2 29q-3 53 -17 77
q-17 29 -52 29q-26 0 -39 -14q-12 -12 -12 -34q0 -9 5 -17q7 -11 22 -11q12 0 21 9q8 10 10 23q19 -11 21 -35t-12 -38q-16 -18 -45 -18q-31 0 -52.5 22.5t-21.5 65.5q0 47 29 73q28 26 85 26q47 0 79 -23q35 -26 48 -81q4 -17 12 -90q6 -56 13 -72q21 -50 89 -50h99z" />
    <glyph glyph-name="afii10025" unicode="&#x417;" horiz-adv-x="709" 
d="M280 331v64h47q77 0 110 24q42 31 42 100q0 55 -30 87q-38 40 -109 40q-96 0 -157.5 -64.5t-79.5 -158.5h-13v277h13l41 -60q49 42 97.5 56t123.5 14q89 0 152 -31q100 -50 100 -152q0 -59 -35 -101q-36 -43 -98 -54q65 -9 109 -48q56 -49 56 -125q0 -100 -95 -159
q-80 -50 -222 -50q-110 0 -183 42q-87 51 -87 145q0 60 36 96q31 33 86 33q45 0 71 -32q19 -24 19 -55q0 -34 -22 -54q-27 -25 -59 -14q28 15 28 45q0 17 -12 27q-10 8 -28 8t-32 -12q-16 -16 -16 -40q0 -49 50.5 -85t141.5 -36q103 0 147 50q35 40 35 99q0 70 -51 102
q-34 22 -100 22h-76z" />
    <glyph glyph-name="afii10026" unicode="&#x418;" horiz-adv-x="875" 
d="M862 700v-13l-17 -1q-62 -5 -83 -24q-25 -23 -25 -74v-476q0 -51 25 -74q21 -19 83 -24l17 -1v-13h-374v13l17 1q62 5 83 24q25 23 25 74v397l-351 -428q10 -38 36.5 -51t71.5 -16l17 -1v-13h-374v13l17 1q62 5 83 24q25 23 25 74v476q0 51 -25 74q-21 19 -83 24l-17 1
v13h374v-13l-17 -1q-62 -5 -83 -24q-25 -23 -25 -74v-397l351 428q-10 38 -36.5 51t-71.5 16l-17 1v13h374z" />
    <glyph glyph-name="afii10027" unicode="&#x419;" horiz-adv-x="875" 
d="M862 700v-13l-17 -1q-62 -5 -83 -24q-25 -23 -25 -74v-476q0 -51 25 -74q21 -19 83 -24l17 -1v-13h-374v13l17 1q62 5 83 24q25 23 25 74v397l-351 -428q10 -38 36.5 -51t71.5 -16l17 -1v-13h-374v13l17 1q62 5 83 24q25 23 25 74v476q0 51 -25 74q-21 19 -83 24l-17 1
v13h374v-13l-17 -1q-62 -5 -83 -24q-25 -23 -25 -74v-397l351 428q-10 38 -36.5 51t-71.5 16l-17 1v13h374zM542 749h-209q-43 0 -68 24q-26 26 -26 65q0 31 16 51q20 26 57 33l4 -8q-17 -4 -26 -13q-9 -11 -9 -30q0 -20 10 -29q12 -12 52 -12h189q40 0 52 12q10 9 10 29
q0 36 -35 43l4 8q37 -7 57 -33q16 -20 16 -51q0 -39 -26 -65q-25 -24 -68 -24z" />
    <glyph glyph-name="afii10028" unicode="&#x41a;" horiz-adv-x="795" 
d="M262 588v-194h139q68 0 89 50q7 16 13 72q8 73 12 90q13 55 48 81q32 23 79 23q57 0 85 -26q29 -26 29 -73q0 -43 -21.5 -65.5t-52.5 -22.5q-29 0 -45 18q-14 14 -12 38t21 35q2 -13 10 -23q9 -9 21 -9q15 0 22 11q5 8 5 17q0 22 -12 34q-13 14 -39 14q-35 0 -52 -29
q-14 -24 -17 -77l-2 -29q-4 -49 -7 -67q-7 -39 -27 -63q-19 -23 -49 -34q48 -12 83 -41q40 -32 56 -89q4 -13 10 -54q0 -4 2 -14t4 -22t3 -16q5 -29 18 -52q18 -31 42 -43q25 -12 50 -13l25 -2v-13h-221q-25 27 -37 73q-6 22 -10 69q-3 52 -5 73q-5 41 -17 62q-18 29 -49 40
q-22 9 -74 9h-117v-214q0 -32 9 -52.5t27 -29.5t32.5 -12t39.5 -4l17 -1v-13h-374v13l17 1q25 1 39.5 4t32.5 12t27 29.5t9 52.5v476q0 32 -9 52.5t-27 29.5t-32.5 12t-39.5 4l-17 1v13h374v-13l-17 -1q-25 -1 -39.5 -4t-32.5 -12t-27 -29.5t-9 -52.5z" />
    <glyph glyph-name="afii10029" unicode="&#x41b;" horiz-adv-x="743" 
d="M482 632h-196v-53q0 -58 -6 -214q-6 -112 -10 -147q-12 -102 -39 -150q-45 -78 -134 -78q-45 0 -75 27q-32 29 -32 79t26 75t61 25q33 0 47 -19t14 -41q0 -20 -11 -33q-4 27 -34 27q-15 0 -25 -11t-10 -26q0 -21 12.5 -33t31.5 -12q46 0 68 53q20 49 29 195q8 117 8 244
v23q0 64 -23 91q-26 29 -89 32l-21 1v13h656v-13l-17 -1q-62 -5 -83 -24q-25 -23 -25 -74v-476q0 -51 25 -74q21 -19 83 -24l17 -1v-13h-373v13l17 1q62 5 83 24q25 23 25 74v520z" />
    <glyph glyph-name="afii10030" unicode="&#x41c;" horiz-adv-x="1015" 
d="M1002 700v-13l-17 -1q-62 -5 -83 -24q-25 -23 -25 -74v-476q0 -51 25 -74q21 -19 83 -24l17 -1v-13h-374v13l17 1q62 5 83 24q25 23 25 74v491h-3l-238 -603h-46l-238 603h-3v-471q0 -65 25 -90q26 -26 83 -28l17 -1v-13h-337v13l17 1q57 2 83 28q25 25 25 90v456
q0 51 -25 74q-21 19 -83 24l-17 1v13h312l187 -475h3l187 475h300z" />
    <glyph glyph-name="afii10031" unicode="&#x41d;" horiz-adv-x="861" 
d="M848 700v-13l-17 -1q-62 -5 -83 -24q-25 -23 -25 -74v-476q0 -51 25 -74q21 -19 83 -24l17 -1v-13h-374v13l17 1q62 5 83 24q25 23 25 74v214h-337v-214q0 -51 25 -74q21 -19 83 -24l17 -1v-13h-374v13l17 1q62 5 83 24q25 23 25 74v476q0 51 -25 74q-21 19 -83 24l-17 1
v13h374v-13l-17 -1q-62 -5 -83 -24q-25 -23 -25 -74v-194h337v194q0 51 -25 74q-21 19 -83 24l-17 1v13h374z" />
    <glyph glyph-name="afii10032" unicode="&#x41e;" horiz-adv-x="880" 
d="M440 710q175 0 276 -92q109 -98 109 -268t-109 -268q-101 -92 -276 -92t-276 92q-109 98 -109 268t109 268q101 92 276 92zM210 350q0 -133 66 -209q61 -71 164 -71t164 71q66 76 66 209t-66 209q-61 71 -164 71t-164 -71q-66 -76 -66 -209z" />
    <glyph glyph-name="afii10033" unicode="&#x41f;" horiz-adv-x="850" 
d="M262 632v-520q0 -51 25 -74q21 -19 83 -24l17 -1v-13h-374v13l17 1q62 5 83 24q25 23 25 74v476q0 51 -25 74q-21 19 -83 24l-17 1v13h824v-13l-17 -1q-62 -5 -83 -24q-25 -23 -25 -74v-476q0 -51 25 -74q21 -19 83 -24l17 -1v-13h-374v13l17 1q62 5 83 24q25 23 25 74
v520h-326z" />
    <glyph glyph-name="afii10034" unicode="&#x420;" horiz-adv-x="734" 
d="M262 316v-204q0 -51 25 -74q21 -19 83 -24l17 -1v-13h-374v13l17 1q62 5 83 24q25 23 25 74v476q0 51 -25 74q-21 19 -83 24l-17 1v13h442q136 0 189 -30q84 -48 84 -163q0 -113 -84 -161q-53 -30 -189 -30h-193zM262 620v-224h193q67 0 96 28q30 28 30 84t-30 84
q-29 28 -96 28h-193z" />
    <glyph glyph-name="afii10035" unicode="&#x421;" horiz-adv-x="793" 
d="M730 700v-307h-13q-34 104 -112.5 170t-175.5 66q-98 0 -154 -71q-57 -72 -57 -207q0 -122 57 -191q69 -85 188 -85q108 0 176 59q69 60 81 162h13q-3 -117 -63 -194q-87 -112 -252 -112q-164 0 -265 108q-88 95 -88 237q0 173 100 278q93 97 245 97q83 0 150 -32
q57 -27 98 -76h6l53 98h13z" />
    <glyph glyph-name="afii10036" unicode="&#x422;" horiz-adv-x="668" 
d="M396 620v-508q0 -51 25 -74q21 -19 83 -24l17 -1v-13h-374v13l17 1q62 5 83 24q25 23 25 74v508h-74q-73 0 -111 -35q-23 -21 -39.5 -70.5t-19.5 -95.5h-13v281h638v-281h-13q-3 46 -19.5 95.5t-39.5 70.5q-38 35 -111 35h-74z" />
    <glyph glyph-name="afii10037" unicode="&#x423;" horiz-adv-x="691" 
d="M570 572l-173 -409q-46 -109 -70 -134q-37 -39 -92 -39q-44 0 -77 29q-33 30 -33 79q0 41 24 68q25 27 62 27q32 0 48 -22q11 -15 11 -37q0 -10 -3 -20q-11 18 -34 18q-17 0 -26 -7q-14 -11 -14 -33q0 -17 11 -28q13 -13 31 -13q15 0 27 7.5t21 23t14 27t12 32.5l5 15
l-199 444q-15 35 -36 56q-25 24 -70 29l-19 2v13h359v-13l-23 -1q-45 -3 -62 -10q-26 -11 -28 -43v-12q4 -22 8 -33l134 -297l110 270q8 20 12 33q6 20 6 33q0 28 -20 41q-23 15 -67 18l-14 1v13h326v-13l-22 -2q-36 -4 -66 -22q-47 -29 -73 -91z" />
    <glyph glyph-name="afii10038" unicode="&#x424;" horiz-adv-x="922" 
d="M399 114h-74q-64 0 -113 11.5t-91 49.5q-71 63 -71 168q0 121 78 184q74 61 192 61h79v5q0 47 -25 69q-23 20 -83 24l-17 1v13h374v-13l-17 -1q-60 -4 -83 -24q-25 -22 -25 -69v-5h79q118 0 192 -61q78 -63 78 -184q0 -105 -71 -168q-42 -38 -91 -49.5t-113 -11.5h-74v-8
q0 -46 25 -68q23 -20 83 -24l17 -1v-13h-374v13l17 1q60 4 83 24q25 22 25 68v8zM523 521v-340h71q79 0 113 44q29 37 29 121q0 96 -31 134q-16 19 -41 28.5t-42 11t-46 1.5h-53zM399 521h-53q-29 0 -46 -1.5t-42 -11t-41 -28.5q-31 -38 -31 -134q0 -84 29 -121
q34 -44 113 -44h71v340z" />
    <glyph glyph-name="afii10039" unicode="&#x425;" horiz-adv-x="867" 
d="M-1 700h388v-13l-23 -2q-36 -2 -59 -13q-28 -14 -28 -42q0 -14 14 -29l142 -158l100 117q26 31 26 63q0 26 -20 41q-22 17 -72 21l-25 2v13h402v-13l-20 -3q-51 -8 -98 -38q-15 -10 -31.5 -25t-25 -24.5t-27 -30.5t-21.5 -25l-135 -156l213 -238q73 -83 106 -105
q36 -23 77 -29v-13h-420v13l29 1q43 2 67 14q29 14 29 40q0 29 -42 75l-137 151l-127 -148q-33 -40 -33 -66q0 -37 42 -53q34 -10 64 -12l24 -2v-13h-393v13q58 13 105 48q44 33 70 65l195 227l-231 257q-56 62 -106 73l-19 4v13z" />
    <glyph glyph-name="afii10040" unicode="&#x426;" horiz-adv-x="843" 
d="M581 68v520q0 51 -25 74q-21 19 -83 24l-17 1v13h374v-13l-17 -1q-62 -5 -83 -24q-25 -23 -25 -74v-476q0 -51 25 -74q21 -19 83 -24l17 -1v-196h-13q-10 72 -46 122q-44 61 -131 61h-627v13l17 1q62 5 83 24q25 23 25 74v476q0 51 -25 74q-21 19 -83 24l-17 1v13h374
v-13l-17 -1q-62 -5 -83 -24q-25 -23 -25 -74v-520h319z" />
    <glyph glyph-name="afii10041" unicode="&#x427;" horiz-adv-x="765" 
d="M388 700h364v-13l-17 -1q-62 -5 -83 -24q-25 -23 -25 -74v-476q0 -51 25 -74q21 -19 83 -24l17 -1v-13h-374v13l17 1q62 5 83 24q25 23 25 74v226q-72 -39 -169 -39q-100 0 -159 38q-38 24 -51.5 57t-13.5 83v111q0 51 -25 74q-21 19 -83 24l-17 1v13h364v-13l-18 -1
q-53 -3 -74 -24q-23 -23 -23 -74v-105q0 -53 35 -81t99 -28q44 0 88 15q31 12 47 25v174q0 51 -23 74q-22 22 -73 24l-19 1v13z" />
    <glyph glyph-name="afii10042" unicode="&#x428;" horiz-adv-x="1128" 
d="M262 68h240v520q0 52 -24 74q-23 22 -68 24l-17 1v13h343v-13l-17 -1q-46 -2 -69 -24q-24 -22 -24 -74v-520h240v520q0 52 -24 74q-23 22 -69 24l-17 1v13h359v-13l-17 -1q-62 -5 -83 -24q-25 -23 -25 -74v-476q0 -51 25 -74q21 -19 83 -24l17 -1v-13h-1102v13l17 1
q62 5 83 24q25 23 25 74v476q0 51 -25 74q-21 19 -83 24l-17 1v13h359v-13l-17 -1q-46 -2 -69 -24q-24 -22 -24 -74v-520z" />
    <glyph glyph-name="afii10043" unicode="&#x429;" horiz-adv-x="1128" 
d="M262 68h240v520q0 52 -24 74q-23 22 -68 24l-17 1v13h343v-13l-17 -1q-46 -2 -69 -24q-24 -22 -24 -74v-520h240v520q0 52 -24 74q-23 22 -69 24l-17 1v13h359v-13l-17 -1q-62 -5 -83 -24q-25 -23 -25 -74v-476q0 -51 25 -74q21 -19 83 -24l17 -1v-196h-13
q-10 72 -46 122q-44 61 -131 61h-912v13l17 1q62 5 83 24q25 23 25 74v476q0 51 -25 74q-21 19 -83 24l-17 1v13h359v-13l-17 -1q-46 -2 -69 -24q-24 -22 -24 -74v-520z" />
    <glyph glyph-name="afii10044" unicode="&#x42a;" horiz-adv-x="945" 
d="M498 403h180q119 0 184 -60q58 -54 58 -143q0 -86 -57 -141q-59 -59 -165 -59h-447l-2 13l17 1q62 5 83 24q25 23 25 74v520h-119q-66 0 -110.5 -13.5t-76.5 -60.5q-30 -45 -45 -139h-13v281h613v-13l-17 -1q-62 -5 -83 -24q-25 -23 -25 -74v-185zM498 329v-255h158
q35 0 59 7t44 31q27 31 27 90q0 68 -37 100q-14 13 -34.5 19.5t-33.5 7t-41 0.5h-142z" />
    <glyph glyph-name="afii10045" unicode="&#x42b;" horiz-adv-x="1066" 
d="M262 403h169q119 0 184 -60q58 -54 58 -139q0 -88 -57 -145q-59 -59 -165 -59h-436l-2 13l17 1q62 5 83 24q25 23 25 74v476q0 51 -25 74q-21 19 -83 24l-17 1v13h374v-13l-17 -1q-62 -5 -83 -24q-25 -23 -25 -74v-185zM262 329v-255h147q35 0 59 7t44 31q27 31 27 90
q0 68 -37 100q-14 13 -34.5 19.5t-33.5 7t-41 0.5h-131zM804 112v476q0 51 -25 74q-21 19 -83 24l-17 1v13h374v-13l-17 -1q-62 -5 -83 -24q-25 -23 -25 -74v-476q0 -51 25 -74q21 -19 83 -24l17 -1v-13h-364v13l17 1q53 2 75 24q23 23 23 74z" />
    <glyph glyph-name="afii10046" unicode="&#x42c;" horiz-adv-x="709" 
d="M262 403h180q119 0 184 -60q58 -54 58 -138q0 -89 -57 -146q-59 -59 -165 -59h-447l-2 13l17 1q62 5 83 24q25 23 25 74v476q0 51 -25 74q-21 19 -83 24l-17 1v13h374v-13l-17 -1q-62 -5 -83 -24q-25 -23 -25 -74v-185zM262 329v-255h158q35 0 59 7t44 31q27 31 27 90
q0 68 -37 100q-14 13 -34.5 19.5t-33.5 7t-41 0.5h-142z" />
    <glyph glyph-name="afii10047" unicode="&#x42d;" horiz-adv-x="723" 
d="M80 423v277h13l41 -60q47 40 92 55t108 15q139 0 228 -86q58 -57 78 -126t20 -154q0 -169 -98 -266q-88 -88 -245 -88q-111 0 -179 42q-80 50 -80 130q0 55 33 91q29 33 79 33q49 0 75 -32q19 -23 19 -55q0 -34 -22 -54q-27 -25 -59 -14q28 15 28 45q0 17 -12 27
q-10 8 -28 8q-20 0 -32 -12q-16 -15 -16 -40q0 -42 49 -69q53 -31 120 -31q120 0 177 95q41 68 41 195v28q-26 -26 -59 -41.5t-58 -15.5q-32 0 -83 22q-48 21 -82 21q-39 0 -69 -38l-10 8q11 12 36.5 35.5t36.5 30.5q31 19 75 19q28 0 77 -24q50 -24 76 -24q60 0 60 65
q0 94 -48 152q-47 59 -125 59q-96 0 -158 -58q-65 -62 -86 -165h-13z" />
    <glyph glyph-name="afii10048" unicode="&#x42e;" horiz-adv-x="1111" 
d="M13 700h397v-15l-18 -1q-69 -5 -92 -24q-26 -22 -26 -72v-189h139q12 135 102 223q89 88 212 88t214 -88q105 -102 105 -272t-105 -272q-91 -88 -214 -88q-122 0 -212 88q-102 102 -105 257h-136v-223q0 -50 26 -72q23 -19 92 -24l18 -1v-15h-397v15l18 1q71 5 93 24
q26 22 26 72v476q0 50 -26 72q-22 19 -93 24l-18 1v15zM903 318v66q0 145 -47 202q-48 56 -129 56q-84 0 -130 -56q-47 -57 -47 -202v-66q0 -144 47 -202q45 -56 130 -56q83 0 129 56q47 58 47 202z" />
    <glyph glyph-name="afii10049" unicode="&#x42f;" horiz-adv-x="796" 
d="M523 317h-159q-48 0 -72 -24q-14 -13 -20.5 -35.5t-7 -39t-0.5 -54.5v-38q0 -49 -8 -77q-8 -29 -23 -49h-233v13l35 3q39 4 62 23q27 23 31 63l8 83q6 65 34 105q28 42 78 52v3q-59 10 -106 40q-71 44 -71 133q0 80 51 129q55 53 143 53h518h-11v-13l-17 -1
q-62 -5 -83 -24q-25 -23 -25 -74v-476q0 -51 25 -74q21 -19 83 -24l17 -1v-13h-374v13l17 1q62 5 83 24q25 23 25 74v205zM523 635h-175q-75 0 -106 -31q-33 -33 -33 -95q0 -71 42 -101q28 -20 89 -20h183v247z" />
    <glyph glyph-name="afii10065" unicode="&#x430;" horiz-adv-x="590" 
d="M586 13v-13h-74q-36 0 -64 17q-36 22 -47 77q-25 -46 -67 -72q-49 -32 -118 -32q-72 0 -113 32q-48 38 -48 101q0 56 31 94q36 42 106 59q23 5 68 13t77 15q37 8 59 22v13q0 62 -34 87q-27 21 -89 21q-65 0 -103 -16q-45 -18 -45 -57q0 -35 34 -35q32 0 32 26q0 16 -8 24
q11 -1 20 -10q7 -8 7 -23q0 -23 -21 -38q-17 -11 -46 -11q-31 0 -52 21t-21 52q0 75 80 108q52 22 132 22q105 0 158 -41q56 -44 56 -135v-212q0 -60 20 -83q18 -21 58 -25zM396 238v39q-33 -19 -81 -29q-100 -22 -121 -40q-29 -24 -29 -66q0 -37 24 -57q23 -19 60 -19
q55 0 87 26t45 56q15 32 15 90z" />
    <glyph glyph-name="afii10066" unicode="&#x431;" horiz-adv-x="578" 
d="M506 726h17l-2 -20q-5 -48 -27 -83q-29 -46 -93 -46h-145q-84 0 -123 -36q-38 -35 -38 -114v-19q69 102 193 102q113 0 174 -69q66 -75 66 -186q0 -48 -14.5 -93.5t-41.5 -84.5t-72.5 -63t-101.5 -24q-111 0 -182 78q-66 72 -66 190q0 67 29 123q-21 144 58 227
q37 38 83.5 48.5t120.5 10.5h102q21 0 34 5q25 10 28 44zM409 225v64q0 82 -26 121q-31 48 -94 48q-48 0 -79 -33q-41 -44 -41 -138v-60q0 -99 33 -142q34 -43 94 -43q58 0 88 48q25 40 25 135z" />
    <glyph glyph-name="afii10067" unicode="&#x432;" horiz-adv-x="589" 
d="M12 500h349q70 0 112 -31q47 -35 47 -94q0 -53 -37 -84q-25 -20 -60 -27q44 -8 76 -36q40 -36 40 -92q0 -71 -48 -107q-39 -29 -116 -29h-363v13l13 1q45 3 61 21q16 16 16 63v304q0 47 -16 63q-16 18 -61 21l-13 1v13zM202 50h135q48 0 70 24q21 23 21 67q0 49 -33 72
q-24 17 -81 17h-112v-180zM202 280h105q60 0 83 24q19 19 19 62q0 42 -27 64q-25 20 -68 20h-112v-170z" />
    <glyph glyph-name="afii10068" unicode="&#x433;" horiz-adv-x="495" 
d="M485 296h-13l-3 21q-9 70 -41 97q-30 26 -103 26h-123v-342q0 -46 18 -63q19 -18 69 -21l13 -1v-13h-290v13l13 1q45 3 61 21q16 16 16 63v304q0 47 -16 63q-16 18 -61 21l-13 1v13h473v-204z" />
    <glyph glyph-name="afii10069" unicode="&#x434;" horiz-adv-x="546" 
d="M-6 14l9 1q33 4 64 23q21 15 33 43q14 34 25 108q16 115 16 198v17q0 25 -6.5 41t-20.5 24t-24.5 11t-29.5 5l-14 2v13h488v-13l-13 -1q-45 -3 -61 -21q-16 -16 -16 -63v-304q0 -47 16 -63q16 -18 61 -21l13 -1v-182h-15l-6 26q-11 52 -42 97q-32 46 -79 46h-251
q-57 0 -91 -46q-29 -41 -42 -97l-6 -26h-8v183zM344 55v389h-139l-6 -117q-6 -116 -17 -175q-9 -51 -26 -97h188z" />
    <glyph glyph-name="afii10070" unicode="&#x435;" horiz-adv-x="607" 
d="M552 242h-379q-2 -88 40 -136q48 -55 133 -55q76 0 127 40q50 39 66 102h11q-9 -87 -65 -141q-62 -62 -172 -62q-123 0 -193 74q-65 68 -65 186q0 109 68 184q70 76 190 76q112 0 179 -77q60 -70 60 -178v-13zM174 302h266q0 63 -35 106q-35 42 -94 42q-61 0 -97 -40
q-38 -43 -40 -108z" />
    <glyph glyph-name="afii10072" unicode="&#x436;" horiz-adv-x="834" 
d="M277 500h280v-13l-13 -1q-27 -2 -43.5 -9t-23.5 -20t-8.5 -24t-1.5 -31v-120h81q47 0 62 37q4 8 7.5 33t6 51t3.5 31q8 41 36 60q22 16 57 16q85 0 85 -74q0 -33 -17 -48t-41 -15q-30 0 -39 27t16 43q3 -24 20 -24q19 0 19 19q0 12 -10.5 21t-23.5 9q-24 0 -36 -19
q-8 -13 -12 -54q-4 -45 -7 -68q-6 -30 -19 -46q-11 -15 -32 -25q34 -6 60 -26q31 -23 41 -64q1 -4 6.5 -35t7.5 -40q10 -40 26.5 -57t55.5 -20l14 -1v-13h-166q-20 21 -27 53q-4 18 -11 102q-3 36 -23.5 55t-74.5 19h-65v-131q0 -20 1.5 -31t8.5 -24t23.5 -20t43.5 -9l13 -1
v-13h-280v13l13 1q27 2 43.5 9t23.5 20t8.5 24t1.5 31v131h-65q-54 0 -74.5 -19t-23.5 -55q-7 -84 -11 -102q-7 -32 -27 -53h-166v13l14 1q39 3 55.5 20t26.5 57q1 3 4 20.5t6.5 35.5t3.5 19q10 41 41 64q26 20 60 26q-21 10 -32 25q-13 16 -19 46q-3 23 -7 68q-4 41 -12 54
q-12 19 -36 19q-13 0 -23.5 -9t-10.5 -21q0 -19 19 -19q17 0 20 24q25 -16 16 -43t-39 -27q-24 0 -41 15t-17 48q0 74 85 74q35 0 57 -16q28 -19 36 -60q1 -5 3.5 -31t6 -51t7.5 -33q15 -37 62 -37h81v120q0 20 -1.5 31t-8.5 24t-23.5 20t-43.5 9l-13 1v13z" />
    <glyph glyph-name="afii10073" unicode="&#x437;" horiz-adv-x="533" 
d="M199 287h43q54 0 78 22q23 21 23 63q0 35 -28 60q-26 23 -68 23q-70 0 -118 -43q-50 -44 -61 -107h-13v205h13l30 -51q19 19 49 32q46 19 115 19q85 0 131 -27q66 -37 66 -107q0 -41 -21 -69q-25 -33 -68 -42q48 -6 80 -38q33 -33 33 -85q0 -80 -73 -121
q-55 -31 -166 -31q-103 0 -158 41q-51 38 -51 91q0 43 21 67q22 24 61 24q25 0 47.5 -15.5t22.5 -42.5q0 -38 -35 -46q8 17 1.5 34.5t-28.5 17.5q-28 0 -28 -32t32 -54q36 -26 109 -26q67 0 100 33q27 27 27 69q0 36 -25 59q-28 27 -86 27h-55v50z" />
    <glyph glyph-name="afii10074" unicode="&#x438;" horiz-adv-x="654" 
d="M452 338l-250 -252q0 -35 16 -51q18 -18 61 -21l13 -1v-13h-280v13l13 1q45 3 61 21q16 16 16 63v304q0 47 -16 63q-16 18 -61 21l-13 1v13h280v-13l-13 -1q-45 -3 -61 -21q-16 -16 -16 -63v-231l250 252q-1 27 -16 42q-18 18 -61 21l-13 1v13h280v-13l-13 -1
q-45 -3 -61 -21q-16 -16 -16 -63v-304q0 -47 16 -63q16 -18 61 -21l13 -1v-13h-280v13l13 1q45 3 61 21q16 16 16 63v240z" />
    <glyph glyph-name="afii10075" unicode="&#x439;" horiz-adv-x="654" 
d="M452 338l-250 -252q0 -35 16 -51q18 -18 61 -21l13 -1v-13h-280v13l13 1q45 3 61 21q16 16 16 63v304q0 47 -16 63q-16 18 -61 21l-13 1v13h280v-13l-13 -1q-45 -3 -61 -21q-16 -16 -16 -63v-231l250 252q-1 27 -16 42q-18 18 -61 21l-13 1v13h280v-13l-13 -1
q-45 -3 -61 -21q-16 -16 -16 -63v-304q0 -47 16 -63q16 -18 61 -21l13 -1v-13h-280v13l13 1q45 3 61 21q16 16 16 63v240zM385 549h-116q-56 0 -84 24q-28 23 -28 65q0 28 16 48q25 30 63 30q-14 -5 -23 -14q-11 -11 -11 -31q0 -18 12 -28q16 -13 57 -13h112q41 0 57 13
q12 10 12 28q0 20 -11 31q-9 9 -23 14q38 0 63 -30q16 -20 16 -48q0 -42 -28 -65q-28 -24 -84 -24z" />
    <glyph glyph-name="afii10076" unicode="&#x43a;" horiz-adv-x="605" 
d="M12 500h280v-13l-13 -1q-27 -2 -43.5 -9t-23.5 -20t-8.5 -24t-1.5 -31v-120h117q47 0 62 37q4 8 7.5 33t6 51t3.5 31q8 41 36 60q22 16 57 16q40 0 61 -18q24 -18 24 -56q0 -33 -17 -48t-41 -15q-30 0 -39 27t16 43q3 -24 20 -24q19 0 19 19q0 14 -10 22t-24 8
q-24 0 -36 -19q-8 -13 -12 -54q-4 -45 -7 -68q-6 -30 -19 -46q-11 -15 -32 -25q34 -6 60 -26q31 -23 41 -64q1 -4 6.5 -35t7.5 -40q10 -40 26.5 -57t55.5 -20l14 -1v-13h-166q-20 21 -27 53q-4 18 -11 102q-3 36 -23.5 55t-74.5 19h-101v-131q0 -20 1.5 -31t8.5 -24
t23.5 -20t43.5 -9l13 -1v-13h-280v13l13 1q27 2 43.5 9t23.5 20t8.5 24t1.5 31v304q0 20 -1.5 31t-8.5 24t-23.5 20t-43.5 9l-13 1v13z" />
    <glyph glyph-name="afii10077" unicode="&#x43b;" horiz-adv-x="559" 
d="M357 450h-143v-74q0 -110 -6 -187q-10 -119 -43 -160q-31 -39 -83 -39q-40 0 -65 21q-27 24 -27 63q0 31 19 53q20 21 46 21q22 0 37 -13q14 -13 14 -34q0 -27 -24 -33q0 13 -7 20t-16 7q-7 0 -15 -6q-7 -7 -7 -18q0 -13 11 -23q12 -10 30 -10q37 0 55 43q16 39 22 151
q4 88 4 166v18q0 37 -21.5 52t-65.5 18l-13 1v13h488v-13l-13 -1q-45 -3 -61 -21q-16 -16 -16 -63v-304q0 -47 16 -63q16 -18 61 -21l13 -1v-13h-280v13l13 1q45 3 61 21q16 16 16 63v352z" />
    <glyph glyph-name="afii10078" unicode="&#x43c;" horiz-adv-x="783" 
d="M219 500l171 -361l172 361h209v-13l-13 -1q-45 -3 -61 -21q-16 -16 -16 -63v-304q0 -47 16 -63q16 -18 61 -21l13 -1v-13h-280v13l13 1q45 3 61 21q16 16 16 63v294h-3l-186 -392h-45l-186 392h-3v-294q0 -47 16 -63q16 -18 61 -21l13 -1v-13h-236v13l13 1q45 3 61 21
q16 16 16 63v304q0 47 -16 63q-16 18 -61 21l-13 1v13h207z" />
    <glyph glyph-name="afii10079" unicode="&#x43d;" horiz-adv-x="636" 
d="M434 226h-232v-128q0 -47 16 -63q16 -18 61 -21l13 -1v-13h-280v13l13 1q45 3 61 21q16 16 16 63v304q0 47 -16 63q-16 18 -61 21l-13 1v13h280v-13l-13 -1q-45 -3 -61 -21q-16 -16 -16 -63v-116h232v116q0 47 -16 63q-16 18 -61 21l-13 1v13h280v-13l-13 -1
q-45 -3 -61 -21q-16 -16 -16 -63v-304q0 -47 16 -63q16 -18 61 -21l13 -1v-13h-280v13l13 1q45 3 61 21q16 16 16 63v128z" />
    <glyph glyph-name="afii10080" unicode="&#x43e;" horiz-adv-x="628" 
d="M578 251q0 -121 -74 -191t-190 -70t-190 70t-74 191q0 123 74 191t190 68t190 -68t74 -191zM314 441q-74 0 -113 -53q-33 -44 -33 -137q0 -91 33 -136q40 -56 113 -56t113 56q33 45 33 136q0 93 -33 137q-39 53 -113 53z" />
    <glyph glyph-name="afii10081" unicode="&#x43f;" horiz-adv-x="628" 
d="M426 440h-224v-342q0 -47 16 -63q16 -18 61 -21l13 -1v-13h-280v13l13 1q45 3 61 21q16 16 16 63v304q0 47 -16 63q-16 18 -61 21l-13 1v13h604v-13l-13 -1q-45 -3 -61 -21q-16 -16 -16 -63v-304q0 -47 16 -63q16 -18 61 -21l13 -1v-13h-280v13l13 1q45 3 61 21
q16 16 16 63v342z" />
    <glyph glyph-name="afii10082" unicode="&#x440;" horiz-adv-x="635" 
d="M192 500v-98q32 55 76 82q42 26 100 26q134 0 189 -121q28 -60 28 -139q0 -129 -68 -199q-59 -61 -146 -61q-59 0 -98 23q-47 28 -71 76v-131q0 -47 16 -63q17 -19 66 -21l18 -1v-13h-290v13l13 1q45 3 61 21q16 16 16 63v444q0 47 -16 63q-16 18 -61 21l-13 1v13h180z
M202 255q0 -83 33 -134q39 -61 101 -61q70 0 105 61q29 50 29 129q0 77 -29 128q-36 62 -105 62q-67 0 -105 -62q-29 -48 -29 -123z" />
    <glyph glyph-name="afii10083" unicode="&#x441;" horiz-adv-x="600" 
d="M537 222h13q-2 -92 -48 -151q-63 -81 -188 -81q-101 0 -173 59q-86 73 -86 189q0 130 85 207q72 65 192 65q99 0 152.5 -42.5t53.5 -101.5q0 -36 -16 -58q-23 -31 -66 -31q-32 0 -51 17q-19 16 -19 38q0 40 33 47q-6 -28 5 -40q10 -10 24 -10q13 0 21 8q7 11 7 22
q0 38 -32 63q-34 28 -100 28q-62 0 -108 -40q-61 -53 -61 -159q0 -85 52 -137q50 -50 132 -50q84 0 132 54q40 44 46 104z" />
    <glyph glyph-name="afii10084" unicode="&#x442;" horiz-adv-x="512" 
d="M507 311h-13l-5 26q-11 58 -41 83t-101 25h-41v-347q0 -46 17 -63q16 -16 67 -21l13 -1v-13h-294v13l13 1q51 5 67 21q17 17 17 63v347h-41q-71 0 -101 -25t-41 -83l-5 -26h-13v189h502v-189z" />
    <glyph glyph-name="afii10085" unicode="&#x443;" horiz-adv-x="588" 
d="M-20 500h309v-13l-15 -1q-78 -6 -78 -42q0 -9 4 -25q4 -12 10 -26l107 -257l78 194q11 30 17 53q8 32 8 41q0 32 -23 46q-15 10 -56 15l-16 2v13h283v-13l-14 -1q-54 -4 -82 -42q-13 -18 -38 -76l-135 -328q-47 -113 -98 -151q-39 -29 -94 -29q-47 0 -69 22.5t-22 55.5
t20 51q18 17 48 17q28 0 42 -13q13 -13 13 -28q0 -14 -11 -21q-2 11 -11 18t-21 7q-14 0 -20.5 -9.5t-6.5 -19.5q0 -17 13 -27q10 -8 29 -8q37 0 63 27q28 28 46 83l-167 389q-15 38 -31 52q-27 25 -82 31v13z" />
    <glyph glyph-name="afii10086" unicode="&#x444;" horiz-adv-x="774" 
d="M337 451v68q0 49 -3 74q-5 38 -20 65q31 -10 49 -32q18 -21 23 -51h2q5 30 23 51q18 22 49 32q-15 -27 -20 -65q-3 -25 -3 -74v-68q34 59 100 59q73 0 122 -55q60 -68 60 -198q0 -125 -48 -196q-49 -71 -129 -71q-71 0 -105 71v-50q0 -93 34 -159q-44 12 -77 67l-6 10h-2
l-6 -10q-33 -55 -77 -67q34 66 34 159v50q-34 -71 -105 -71q-80 0 -129 71q-48 71 -48 196q0 130 60 198q49 55 122 55q66 0 100 -59zM337 202v155q0 42 -31 69q-21 18 -46 18q-40 0 -65 -42q-30 -52 -30 -148q0 -77 17 -124q23 -66 76 -66q36 0 58 34q21 35 21 104z
M437 357v-155q0 -69 21 -104q22 -34 58 -34q53 0 76 66q17 47 17 124q0 96 -30 148q-25 42 -65 42q-25 0 -46 -18q-31 -27 -31 -69z" />
    <glyph glyph-name="afii10087" unicode="&#x445;" horiz-adv-x="590" 
d="M303 321l44 52q36 43 36 70q0 39 -63 43l-15 1v13h281v-12q-38 -3 -64 -17q-34 -18 -81 -73l-102 -120l182 -213q32 -38 89 -52v-13h-302v13l16 1q67 4 67 48q0 17 -16 38l-94 110l-79 -93q-22 -27 -22 -55q0 -40 74 -47l21 -2v-13h-287v13q34 10 66 32.5t42 33.5t33 38
l116 136l-149 174q-28 33 -57 46q-18 9 -49 13l-10 1v13h293v-13l-19 -2q-52 -7 -52 -31q0 -21 32 -53z" />
    <glyph glyph-name="afii10088" unicode="&#x446;" horiz-adv-x="618" 
d="M416 60v342q0 47 -16 63q-16 18 -61 21l-13 1v13h280v-13l-13 -1q-45 -3 -61 -21q-16 -16 -16 -63v-304q0 -47 16 -63q16 -18 61 -21l13 -1v-182h-15l-6 26q-11 52 -42 97q-32 46 -79 46h-452v13l13 1q45 3 61 21q16 16 16 63v304q0 47 -16 63q-16 18 -61 21l-13 1v13
h280v-13l-13 -1q-45 -3 -61 -21q-16 -16 -16 -63v-342h214z" />
    <glyph glyph-name="afii10089" unicode="&#x447;" horiz-adv-x="586" 
d="M574 500v-13l-13 -1q-45 -3 -61 -21q-16 -16 -16 -63v-304q0 -47 16 -63q16 -18 61 -21l13 -1v-13h-290v13l13 1q50 3 69 21q18 17 18 63v147q-65 -37 -141 -37q-96 0 -138 49q-12 14 -18 33t-6.5 27.5t-0.5 29.5v55q0 47 -16 63q-16 18 -61 21l-13 1v13h280v-13l-13 -1
q-45 -3 -61 -21q-16 -16 -16 -63v-71q0 -30 17 -47q23 -24 81 -24q63 0 106 31v111q0 47 -16 63q-16 18 -61 21l-13 1v13h280z" />
    <glyph glyph-name="afii10090" unicode="&#x448;" horiz-adv-x="930" 
d="M202 60h213v342q0 47 -16 63q-16 18 -61 21l-13 1v13h280v-13l-13 -1q-45 -3 -61 -21q-16 -16 -16 -63v-342h213v342q0 47 -16 63q-16 18 -61 21l-13 1v13h280v-13l-13 -1q-45 -3 -61 -21q-16 -16 -16 -63v-304q0 -47 16 -63q16 -18 61 -21l13 -1v-13h-906v13l13 1
q45 3 61 21q16 16 16 63v304q0 47 -16 63q-16 18 -61 21l-13 1v13h280v-13l-13 -1q-45 -3 -61 -21q-16 -16 -16 -63v-342z" />
    <glyph glyph-name="afii10091" unicode="&#x449;" horiz-adv-x="930" 
d="M202 60h213v342q0 47 -16 63q-16 18 -61 21l-13 1v13h280v-13l-13 -1q-45 -3 -61 -21q-16 -16 -16 -63v-342h213v342q0 47 -16 63q-16 18 -61 21l-13 1v13h280v-13l-13 -1q-45 -3 -61 -21q-16 -16 -16 -63v-304q0 -47 16 -63q16 -18 61 -21l13 -1v-182h-15l-6 26
q-11 52 -42 97q-32 46 -79 46h-764v13l13 1q45 3 61 21q16 16 16 63v304q0 47 -16 63q-16 18 -61 21l-13 1v13h280v-13l-13 -1q-45 -3 -61 -21q-16 -16 -16 -63v-342z" />
    <glyph glyph-name="afii10092" unicode="&#x44a;" horiz-adv-x="715" 
d="M354 290h118q38 0 60.5 -1.5t52.5 -9.5t51 -24q54 -40 54 -114q0 -71 -48 -109q-40 -32 -122 -32h-356v13l13 1q45 3 61 21q16 16 16 63v347h-69q-71 0 -101 -25t-41 -83l-5 -26h-13v189h419v-13l-13 -1q-45 -3 -61 -21q-16 -16 -16 -63v-112zM354 54h115q59 0 82 19
q25 20 25 71q0 44 -23 67q-25 25 -92 25h-107v-182z" />
    <glyph glyph-name="afii10093" unicode="&#x44b;" horiz-adv-x="831" 
d="M202 290h118q38 0 60.5 -1.5t52.5 -9.5t51 -24q54 -40 54 -114q0 -71 -48 -109q-40 -32 -122 -32h-356v13l13 1q45 3 61 21q16 16 16 63v304q0 47 -16 63q-16 18 -61 21l-13 1v13h280v-13l-13 -1q-45 -3 -61 -21q-16 -16 -16 -63v-112zM202 54h115q59 0 82 19
q25 20 25 71q0 44 -23 67q-25 25 -92 25h-107v-182zM539 500h280v-13l-13 -1q-45 -3 -61 -21q-16 -16 -16 -63v-304q0 -47 16 -63q16 -18 61 -21l13 -1v-13h-270v13l13 1q37 2 53 21q14 16 14 63v304q0 47 -16 63q-16 18 -61 21l-13 1v13z" />
    <glyph glyph-name="afii10094" unicode="&#x44c;" horiz-adv-x="563" 
d="M202 290h118q38 0 60.5 -1.5t52.5 -9.5t51 -24q54 -40 54 -114q0 -71 -48 -109q-40 -32 -122 -32h-356v13l13 1q45 3 61 21q16 16 16 63v304q0 47 -16 63q-16 18 -61 21l-13 1v13h280v-13l-13 -1q-45 -3 -61 -21q-16 -16 -16 -63v-112zM202 54h115q59 0 82 19
q25 20 25 71q0 44 -23 67q-25 25 -92 25h-107v-182z" />
    <glyph glyph-name="afii10095" unicode="&#x44d;" horiz-adv-x="565" 
d="M80 305v205h8l35 -51q22 22 49 32q47 19 106 19q91 0 154 -61q78 -75 78 -196q0 -127 -80 -200q-71 -63 -182 -63q-85 0 -138 37q-55 40 -55 95q0 46 21 67q22 24 61 24q32 0 51 -17q19 -16 19 -41q0 -38 -35 -46q11 27 -3 42q-10 10 -24 10q-13 0 -21 -8q-7 -9 -7 -24
q0 -34 31 -56q35 -26 93 -26q36 0 68.5 15t50.5 40q32 44 32 115v20h-198v50h198q-2 67 -33 113q-37 55 -101 55q-66 0 -110 -41q-43 -40 -55 -109h-13z" />
    <glyph glyph-name="afii10096" unicode="&#x44e;" horiz-adv-x="877" 
d="M202 286h113q5 93 70 156q71 68 183 68q113 0 186 -68q73 -69 73 -191q0 -120 -73 -191q-71 -70 -186 -70q-112 0 -183 70q-69 67 -70 166h-113v-128q0 -47 16 -63q16 -18 61 -21l13 -1v-13h-280v13l13 1q45 3 61 21q16 16 16 63v304q0 47 -16 63q-16 18 -61 21l-13 1v13
h280v-13l-13 -1q-45 -3 -61 -21q-16 -16 -16 -63v-116zM568 441q-71 0 -109 -53q-32 -43 -32 -137q0 -89 32 -136q38 -56 109 -56t109 56q32 47 32 136q0 94 -32 137q-38 53 -109 53z" />
    <glyph glyph-name="afii10097" unicode="&#x44f;" horiz-adv-x="612" 
d="M600 500v-13l-13 -1q-45 -3 -61 -21q-16 -16 -16 -63v-304q0 -47 16 -63q16 -18 61 -21l13 -1v-13h-280v13l13 1q45 3 61 21q16 16 16 63v138h-97q-52 0 -73 -21q-15 -15 -21.5 -42.5t-13.5 -90.5q-5 -48 -22 -82h-178v13l19 2q49 4 63 31q7 12 15 61q11 63 31 92
q28 38 77 54q-66 2 -107 38q-36 32 -36 86q0 60 44 94q38 29 120 29h369zM410 285v170h-122q-50 0 -75 -13q-40 -21 -40 -69q0 -45 35 -69q28 -19 63 -19h139z" />
    <glyph glyph-name="afii10071" unicode="&#x451;" horiz-adv-x="607" 
d="M552 242h-379q-2 -88 40 -136q48 -55 133 -55q76 0 127 40q50 39 66 102h11q-9 -87 -65 -141q-62 -62 -172 -62q-123 0 -193 74q-65 68 -65 186q0 109 68 184q70 76 190 76q112 0 179 -77q60 -70 60 -178v-13zM174 302h266q0 63 -35 106q-35 42 -94 42q-61 0 -97 -40
q-38 -43 -40 -108zM370 615q0 25 18 43.5t44 18.5q24 0 43 -16.5t19 -45.5q0 -28 -17 -45t-45 -17q-29 0 -45.5 19t-16.5 43zM135 615q0 29 19 45.5t42 16.5q26 0 44.5 -18t18.5 -44q0 -24 -17 -43t-46 -19q-26 0 -43.5 17.5t-17.5 44.5z" />
    <glyph glyph-name="afii10099" unicode="&#x452;" horiz-adv-x="611" 
d="M202 700v-107h222v-45h-222v-148q21 40 55 68q53 42 123 42q65 0 105 -31q23 -17 34.5 -42.5t13 -40t1.5 -39.5v-282q0 -106 -28 -149q-39 -59 -116 -59q-60 0 -93 25q-38 29 -38 77q0 27 17 44.5t42 17.5q19 0 33 -11q13 -12 13 -26t-12 -24q7 19 -5 29q-6 6 -18 6
q-14 0 -21 -9t-7 -20q0 -26 17 -41q18 -15 46 -15q29 0 47 22q23 27 23 104v275q0 57 -19 82q-26 32 -76 32q-68 0 -106 -61q-31 -51 -31 -146v-228h-190v13l13 1q45 3 61 21q16 16 16 63v450h-85v45h85v9q0 47 -16 63q-16 18 -61 21l-13 1v13h190z" />
    <glyph glyph-name="afii10100" unicode="&#x453;" horiz-adv-x="518" 
d="M485 296h-13l-3 21q-9 70 -41 97q-30 26 -103 26h-123v-342q0 -46 18 -63q19 -18 69 -21l13 -1v-13h-290v13l13 1q45 3 61 21q16 16 16 63v304q0 47 -16 63q-16 18 -61 21l-13 1v13h473v-204zM178 527l-6 6l82 102q26 31 31 36q27 29 48 29q18 0 31 -10q17 -14 17 -33
q0 -21 -16 -35q-8 -8 -48 -27z" />
    <glyph glyph-name="afii10101" unicode="&#x454;" horiz-adv-x="565" 
d="M485 305h-13q-12 69 -55 109q-44 41 -110 41q-64 0 -101 -55q-31 -46 -33 -113h198v-50h-198v-20q0 -71 32 -115q18 -25 50.5 -40t68.5 -15q58 0 93 26q31 22 31 56q0 15 -7 24q-8 8 -21 8q-14 0 -24 -10q-14 -15 -3 -42q-35 8 -35 46q0 25 19 41q19 17 51 17
q39 0 61 -24q21 -21 21 -67q0 -55 -55 -95q-53 -37 -138 -37q-111 0 -182 63q-80 73 -80 200q0 121 78 196q63 61 154 61q59 0 106 -19q27 -10 49 -32l35 51h8v-205z" />
    <glyph glyph-name="afii10102" unicode="&#x455;" horiz-adv-x="536" 
d="M457 504v-186h-9q-8 24 -30 53q-35 44 -76 62q-43 20 -100 20q-42 0 -65 -19q-23 -18 -23 -50q0 -24 14 -40q17 -18 65 -29l81 -18q74 -16 113 -45q53 -39 53 -106q0 -91 -77 -134q-40 -22 -103 -22q-64 0 -109 17q-53 19 -88 59l-39 -76h-8v243h8q16 -50 47 -91
q37 -47 88 -70q44 -19 94 -19q53 0 78 22q20 17 20 44q0 31 -21 49q-21 17 -71 28l-92 21q-2 1 -7 2q-66 17 -94 40q-43 37 -43 101q0 70 50 111q49 39 139 39q67 0 117 -24q24 -11 47 -32l32 50h9z" />
    <glyph glyph-name="afii10103" unicode="&#x456;" horiz-adv-x="300" 
d="M202 500v-402q0 -47 16 -63q16 -18 61 -21l13 -1v-13h-280v13l13 1q45 3 61 21q16 16 16 63v304q0 47 -16 63q-16 18 -61 21l-13 1v13h190zM88 615q0 25 18 43.5t44 18.5t44.5 -18t18.5 -44q0 -24 -17 -43t-46 -19t-45.5 19t-16.5 43z" />
    <glyph glyph-name="afii10104" unicode="&#x457;" horiz-adv-x="319" 
d="M221 500v-402q0 -47 16 -63q16 -18 61 -21l13 -1v-13h-280v13l13 1q45 3 61 21q16 16 16 63v304q0 47 -16 63q-16 18 -61 21l-13 1v13h190zM12 615q0 25 18 43.5t44 18.5t44.5 -18t18.5 -44q0 -24 -17 -43t-46 -19t-45.5 19t-16.5 43zM171 615q0 25 18.5 43.5t43.5 18.5
q26 0 44.5 -18t18.5 -44q0 -24 -17 -43t-46 -19t-45.5 19t-16.5 43z" />
    <glyph glyph-name="afii10105" unicode="&#x458;" horiz-adv-x="327" 
d="M250 500v-497q0 -56 -24 -88q-35 -48 -105 -48q-55 0 -93 25q-38 29 -38 77q0 25 14 42q17 20 45 20q19 0 33 -11q13 -12 13 -26t-12 -24q7 19 -5 29q-6 6 -18 6q-14 0 -21 -9t-7 -20q0 -26 17 -41t46 -15q30 0 45 24q10 15 10 50v408q0 47 -16 63q-16 18 -61 21l-13 1
v13h190zM126 615q0 26 18 44t43 18q26 0 44.5 -18t18.5 -44q0 -24 -17 -43t-46 -19t-45 19t-16 43z" />
    <glyph glyph-name="afii10106" unicode="&#x459;" horiz-adv-x="818" 
d="M457 290h118q38 0 60.5 -1.5t52.5 -9.5t51 -24q54 -40 54 -114q0 -71 -48 -109q-40 -32 -122 -32h-356v13l13 1q45 3 61 21q16 16 16 63v352h-143v-74q0 -110 -6 -187q-10 -119 -43 -160q-31 -39 -83 -39q-40 0 -65 21q-27 24 -27 63q0 31 19 53q20 21 46 21q22 0 37 -13
q14 -13 14 -34q0 -27 -24 -33q0 13 -7 20t-16 7q-7 0 -15 -6q-7 -7 -7 -18q0 -13 11 -23q12 -10 30 -10q37 0 55 43q16 39 22 151q4 88 4 166v18q0 37 -21.5 52t-65.5 18l-13 1v13h488v-13l-13 -1q-45 -3 -61 -21q-16 -16 -16 -63v-112zM457 54h115q59 0 82 19q25 20 25 71
q0 44 -23 67q-25 25 -92 25h-107v-182z" />
    <glyph glyph-name="afii10107" unicode="&#x45a;" horiz-adv-x="895" 
d="M534 290h118q38 0 60.5 -1.5t52.5 -9.5t51 -24q54 -40 54 -114q0 -71 -48 -109q-40 -32 -122 -32h-356v13l13 1q45 3 61 21q16 16 16 63v138h-232v-138q0 -47 16 -63q16 -18 61 -21l13 -1v-13h-280v13l13 1q45 3 61 21q16 16 16 63v304q0 47 -16 63q-16 18 -61 21l-13 1
v13h280v-13l-13 -1q-45 -3 -61 -21q-16 -16 -16 -63v-112h232v112q0 47 -16 63q-16 18 -61 21l-13 1v13h280v-13l-13 -1q-45 -3 -61 -21q-16 -16 -16 -63v-112zM534 54h115q59 0 82 19q25 20 25 71q0 44 -23 67q-25 25 -92 25h-107v-182z" />
    <glyph glyph-name="afii10108" unicode="&#x45b;" horiz-adv-x="647" 
d="M202 700v-107h222v-45h-222v-148q21 40 55 68q53 42 123 42q65 0 105 -31q23 -17 34.5 -42.5t13 -40t1.5 -39.5v-259q0 -47 16 -63q16 -18 61 -21l13 -1v-13h-280v13l13 1q45 3 61 21q16 16 16 63v223q0 57 -19 82q-26 32 -76 32q-68 0 -106 -61q-31 -51 -31 -146v-130
q0 -47 16 -63q16 -18 61 -21l13 -1v-13h-280v13l13 1q45 3 61 21q16 16 16 63v450h-85v45h85v9q0 47 -16 63q-16 18 -61 21l-13 1v13h190z" />
    <glyph glyph-name="afii10109" unicode="&#x45c;" horiz-adv-x="628" 
d="M12 500h280v-13l-13 -1q-27 -2 -43.5 -9t-23.5 -20t-8.5 -24t-1.5 -31v-120h117q47 0 62 37q4 8 7.5 33t6 51t3.5 31q8 41 36 60q22 16 57 16q40 0 61 -18q24 -18 24 -56q0 -33 -17 -48t-41 -15q-30 0 -39 27t16 43q3 -24 20 -24q19 0 19 19q0 14 -10 22t-24 8
q-24 0 -36 -19q-8 -13 -12 -54q-4 -45 -7 -68q-6 -30 -19 -46q-11 -15 -32 -25q34 -6 60 -26q31 -23 41 -64q1 -4 6.5 -35t7.5 -40q10 -40 26.5 -57t55.5 -20l14 -1v-13h-166q-20 21 -27 53q-4 18 -11 102q-3 36 -23.5 55t-74.5 19h-101v-131q0 -20 1.5 -31t8.5 -24
t23.5 -20t43.5 -9l13 -1v-13h-280v13l13 1q27 2 43.5 9t23.5 20t8.5 24t1.5 31v304q0 20 -1.5 31t-8.5 24t-23.5 20t-43.5 9l-13 1v13zM233 527l-6 6l82 102q26 31 31 36q27 29 48 29q18 0 31 -10q17 -14 17 -33q0 -21 -16 -35q-8 -8 -48 -27z" />
    <glyph glyph-name="afii10110" unicode="&#x45e;" horiz-adv-x="600" 
d="M-20 500h309v-13l-15 -1q-78 -6 -78 -42q0 -9 4 -25q4 -12 10 -26l107 -257l78 194q11 30 17 53q8 32 8 41q0 32 -23 46q-15 10 -56 15l-16 2v13h283v-13l-14 -1q-54 -4 -82 -42q-13 -18 -38 -76l-135 -328q-47 -113 -98 -151q-39 -29 -94 -29q-47 0 -69 22.5t-22 55.5
t20 51q18 17 48 17q28 0 42 -13q13 -13 13 -28q0 -14 -11 -21q-2 11 -11 18t-21 7q-14 0 -20.5 -9.5t-6.5 -19.5q0 -17 13 -27q10 -8 29 -8q37 0 63 27q28 28 46 83l-167 389q-15 38 -31 52q-27 25 -82 31v13zM249 624h102q36 0 50 10q15 10 15 30q0 31 -37 38q37 2 59 -24
q17 -19 17 -47q0 -39 -34 -62q-29 -19 -79 -19h-84q-51 0 -79 19q-34 23 -34 62q0 28 17 47q22 26 59 24q-37 -7 -37 -38q0 -20 15 -30q14 -10 50 -10z" />
    <glyph glyph-name="afii10193" unicode="&#x45f;" horiz-adv-x="618" 
d="M416 60v342q0 47 -16 63q-16 18 -61 21l-13 1v13h280v-13l-13 -1q-45 -3 -61 -21q-16 -16 -16 -63v-304q0 -47 16 -63q16 -18 61 -21l13 -1v-13h-162q-56 0 -85 -34q-31 -35 -39 -109l-3 -26h-16l-3 26q-8 74 -39 109q-29 34 -85 34h-162v13l13 1q45 3 61 21q16 16 16 63
v304q0 47 -16 63q-16 18 -61 21l-13 1v13h280v-13l-13 -1q-45 -3 -61 -21q-16 -16 -16 -63v-342h214z" />
    <glyph glyph-name="afii10050" unicode="&#x490;" horiz-adv-x="646" 
d="M138 112v476q0 51 -25 74q-21 19 -83 24l-17 1v13h360q64 0 110.5 13t76.5 54q30 40 45 130h13v-265h-356v-520q0 -50 29 -74q25 -20 99 -24l17 -1v-13h-394v13l17 1q62 5 83 24q25 23 25 74z" />
    <glyph glyph-name="afii10098" unicode="&#x491;" horiz-adv-x="483" 
d="M102 98v304q0 47 -16 63q-16 18 -61 21l-13 1v13h301q72 0 103 24q32 25 41 89l3 21h13v-194h-271v-342q0 -46 18 -63q19 -18 69 -21l13 -1v-13h-290v13l13 1q45 3 61 21q16 16 16 63z" />
    <glyph glyph-name="endash" unicode="&#x2013;" horiz-adv-x="547" 
d="M477 315v-77h-407v77h407z" />
    <glyph glyph-name="emdash" unicode="&#x2014;" horiz-adv-x="834" 
d="M764 315v-69h-694v69h694z" />
    <glyph glyph-name="quoteleft" unicode="&#x2018;" horiz-adv-x="245" 
d="M190 561q0 -36 -30 -56q-19 -11 -38 -11q-35 0 -61 29q-21 26 -21 69q0 62 38 95q26 23 59 23q21 0 38 -9q-43 -2 -64 -33q-14 -20 -14 -47q0 -7 1 -10q13 12 31 12q29 0 45 -18t16 -44z" />
    <glyph glyph-name="quoteright" unicode="&#x2019;" horiz-adv-x="245" 
d="M40 643q0 36 30 56q19 11 38 11q35 0 61 -29q21 -26 21 -69q0 -62 -38 -95q-26 -23 -59 -23q-21 0 -38 9q42 2 64 33q13 20 13 46q0 7 -1 11q-12 -12 -30 -12q-27 0 -45 18q-16 18 -16 44z" />
    <glyph glyph-name="quotedblleft" unicode="&#x201c;" horiz-adv-x="444" 
d="M389 561q0 -36 -30 -56q-19 -11 -38 -11q-35 0 -61 29q-21 26 -21 69q0 62 38 95q26 23 59 23q21 0 38 -9q-43 -2 -64 -33q-14 -20 -14 -47q0 -7 1 -10q13 12 31 12q29 0 45 -18t16 -44zM190 561q0 -36 -30 -56q-19 -11 -38 -11q-35 0 -61 29q-21 26 -21 69q0 62 38 95
q26 23 59 23q21 0 38 -9q-42 -2 -64 -33q-13 -20 -13 -46q0 -7 1 -11q12 12 30 12q27 0 45 -18q16 -18 16 -44z" />
    <glyph glyph-name="quotedblright" unicode="&#x201d;" horiz-adv-x="444" 
d="M40 643q0 36 30 56q19 11 38 11q35 0 61 -29q21 -26 21 -69q0 -62 -38 -95q-26 -23 -59 -23q-21 0 -38 9q43 2 64 33q14 20 14 47q0 7 -1 10q-13 -12 -31 -12q-29 0 -45 18t-16 44zM239 643q0 36 30 56q19 11 38 11q35 0 61 -29q21 -26 21 -69q0 -62 -38 -95
q-26 -23 -59 -23q-21 0 -38 9q42 2 64 33q13 20 13 46q0 7 -1 11q-12 -12 -30 -12q-27 0 -45 18q-16 18 -16 44z" />
    <glyph glyph-name="quotedblbase" unicode="&#x201e;" horiz-adv-x="424" 
d="M40 56q0 36 30 56q19 11 38 11q35 0 61 -29q21 -26 21 -69q0 -62 -38 -95q-26 -23 -59 -23q-21 0 -38 9q43 2 64 33q14 20 14 47q0 7 -1 10q-13 -12 -31 -12q-29 0 -45 18t-16 44zM239 56q0 36 30 56q19 11 38 11q35 0 61 -29q21 -26 21 -69q0 -62 -38 -95
q-26 -23 -59 -23q-21 0 -38 9q42 2 64 33q13 19 13 46q0 7 -1 11q-12 -12 -30 -12q-27 0 -45 18q-16 18 -16 44z" />
    <glyph glyph-name="dagger" unicode="&#x2020;" horiz-adv-x="590" 
d="M143 466h101v136q0 47 -16 63q-16 18 -61 21l-13 1v13h282v-13l-13 -1q-45 -3 -61 -21q-16 -16 -16 -63v-136h101q47 0 63 16q18 16 21 61l1 13h13v-261h-13l-1 13q-3 45 -21 61q-16 16 -63 16h-101v-427q0 -47 16 -63q16 -18 61 -21l13 -1v-13h-282v13l13 1q45 3 61 21
q16 16 16 63v427h-101q-47 0 -63 -16q-18 -16 -21 -61l-1 -13h-13v261h13l1 -13q3 -45 21 -61q16 -16 63 -16z" />
    <glyph glyph-name="bullet" unicode="&#x2022;" horiz-adv-x="468" 
d="M100 280q0 56 39 95t95 39t95 -39t39 -95t-39 -95t-95 -39t-95 39t-39 95z" />
    <glyph glyph-name="ellipsis" unicode="&#x2026;" horiz-adv-x="717" 
d="M52 64q0 31 21 49.5t47 18.5q28 0 48.5 -20.5t20.5 -47.5q0 -29 -20.5 -49.5t-48.5 -20.5q-29 0 -48.5 20.5t-19.5 49.5zM291 64q0 31 21 49.5t47 18.5q28 0 48.5 -20.5t20.5 -47.5q0 -29 -20.5 -49.5t-48.5 -20.5q-29 0 -48.5 20.5t-19.5 49.5zM530 64q0 31 21 49.5
t47 18.5q28 0 48.5 -20.5t20.5 -47.5q0 -29 -20.5 -49.5t-48.5 -20.5q-29 0 -48.5 20.5t-19.5 49.5z" />
    <glyph glyph-name="Euro" unicode="&#x20ac;" horiz-adv-x="766" 
d="M-10 280l19 30h67q-2 36 1 80h-87l19 30h71q16 111 91 193q90 97 236 97q150 0 235 -102l49 92h13v-249h-13q-32 76 -96 124q-71 54 -166 54q-96 0 -152 -73q-40 -50 -51 -136h445l-18 -30h-430q-2 -31 1 -80h376l-19 -30h-354q10 -70 50 -120q67 -85 180 -85
q99 0 162 47q52 39 71 96h16q-17 -89 -80 -150q-81 -78 -212 -78q-159 0 -254 108q-68 75 -80 182h-90z" />
    <glyph glyph-name="afii61352" unicode="&#x2116;" horiz-adv-x="1163" 
d="M82 671h238l364 -439v298q0 83 42 120q35 31 87 31q47 0 79 -25q33 -26 33 -70q0 -42 -22 -63t-51 -21q-28 0 -43 17q-13 11 -12.5 33t20.5 37q1 -11 10 -22q9 -9 20 -9q12 0 21 11q5 7 5 16q0 21 -12 33q-13 13 -37 13q-35 0 -52 -29q-14 -22 -14 -73v-564h-13l-458 553
v-377q0 -82 -42 -120q-35 -31 -88 -31q-45 0 -78 25q-33 26 -33 70q0 46 23.5 65.5t49.5 19.5q28 0 43 -17q14 -13 12 -36.5t-21 -34.5q0 12 -9 23q-8 8 -20 8q-14 0 -21 -10q-5 -8 -5 -17q0 -19 11 -32q13 -14 38 -14q35 0 52 29q14 24 14 73v422q0 39 -32 64
q-12 10 -37.5 18.5t-40.5 9.5l-21 1v14zM860 78h268v-78h-268v78zM1128 313q0 -175 -134 -175t-134 175q0 176 134 176q40 0 68.5 -16.5t41.5 -44.5t18.5 -55.5t5.5 -59.5zM1047 250v126q0 87 -53 87q-24 0 -36.5 -15.5t-15 -31.5t-2.5 -40v-126q0 -50 14.5 -68t39.5 -18
q10 0 16.5 2t16 9t15 26t5.5 49z" />
    <glyph glyph-name="trademark" unicode="&#x2122;" horiz-adv-x="1040" 
d="M406 549h-10l-4 21q-10 47 -33 66q-24 20 -81 20h-32v-278q0 -37 13 -50t54 -17l10 -1v-10h-235v10l10 1q41 4 54 17q14 14 14 50v278h-33q-58 0 -81 -20q-24 -21 -33 -66l-4 -21h-10v151h401v-151zM586 700l136 -289l138 289h167v-10l-10 -1q-38 -4 -49 -17
q-13 -14 -13 -50v-244q0 -36 13 -50q11 -13 49 -17l10 -1v-10h-224v10l11 1q36 4 48 17q13 14 13 50v236h-2l-149 -314h-36l-149 314h-2v-236q0 -36 13 -50q12 -13 48 -17l11 -1v-10h-189v10l10 1q38 4 49 17q13 14 13 50v244q0 36 -13 50q-11 13 -49 17l-10 1v10h166z" />
    <glyph glyph-name="radical" unicode="&#x221a;" horiz-adv-x="680" 
d="M312 500l112 -387l109 716h187v-60h-122l-138 -869h-90l-165 540h-125v60h232z" />
    <glyph glyph-name="infinity" unicode="&#x221e;" horiz-adv-x="784" 
d="M411 386l-6 6q90 110 197 110q66 0 110 -41q47 -43 47 -119q0 -71 -39 -120q-47 -59 -137 -59q-76 0 -130 37q-36 25 -76 73q-33 -45 -79 -75q-53 -34 -116 -34q-66 0 -110 41q-47 43 -47 119q0 71 39 120q47 59 137 59q75 0 130 -37q44 -29 80 -80zM435 353
q32 -48 75 -88q45 -41 86 -41q48 0 74 33q24 31 24 81q0 55 -32 86q-28 27 -69 27q-52 0 -88 -27q-34 -26 -70 -71zM349 313q-59 72 -75 88q-43 41 -86 41q-48 0 -74 -33q-24 -31 -24 -81q0 -55 32 -86q28 -27 69 -27q52 0 88 27q34 26 70 71z" />
    <glyph glyph-name="approxequal" unicode="&#x2248;" horiz-adv-x="470" 
d="M244 241l-43 21q-39 19 -65 19q-28 0 -52 -21q-15 -14 -22 -30l-29 9l8 17q16 35 43 61q34 32 73 32q30 0 69 -19l55 -26q28 -14 51 -14q36 0 57 24q5 5 19 26l29 -8l-8 -18q-15 -32 -34 -53q-34 -39 -81 -39q-29 0 -70 19zM244 401l-43 21q-39 19 -65 19q-28 0 -52 -21
q-15 -14 -22 -30l-29 9l8 17q16 35 43 61q34 32 73 32q30 0 69 -19l55 -26q28 -14 51 -14q36 0 57 24q5 5 19 26l29 -8l-8 -18q-15 -32 -34 -53q-34 -39 -81 -39q-29 0 -70 19z" />
    <glyph glyph-name="notequal" unicode="&#x2260;" horiz-adv-x="544" 
d="M30 474h282l77 125l48 -26l-60 -99h137v-74h-183l-47 -78h230v-74h-275l-83 -135l-47 29l65 106h-144v74h189l48 78h-237v74z" />
    <glyph glyph-name="lessequal" unicode="&#x2264;" horiz-adv-x="629" 
d="M119 418l475 -196l-27 -66l-518 212v100l518 212l27 -66zM594 46l-27 -64l-532 222l27 64z" />
    <glyph glyph-name="greaterequal" unicode="&#x2265;" horiz-adv-x="629" 
d="M510 418l-475 196l27 66l518 -212v-100l-518 -212l-27 66zM35 46l532 222l27 -64l-532 -222z" />
    <glyph glyph-name="Acute" unicode="&#xf6c9;" horiz-adv-x="264" 
d="M51 715l-6 6l82 102q26 31 31 36q27 29 48 29q18 0 31 -10q17 -14 17 -33q0 -21 -16 -35q-8 -8 -48 -27z" />
    <glyph glyph-name="Dieresis" unicode="&#xf6cb;" horiz-adv-x="392" 
d="M45 794q0 25 17 42.5t41 17.5t41 -17.5t17 -42.5t-17 -42.5t-41 -17.5t-41 17.5t-17 42.5zM231 794q0 25 17 42.5t41 17.5t41 -17.5t17 -42.5t-17 -42.5t-41 -17.5t-41 17.5t-17 42.5z" />
    <glyph glyph-name="cyrBreve" unicode="&#xf6d1;" horiz-adv-x="467" 
d="M338 749h-209q-43 0 -68 24q-26 26 -26 65q0 31 16 51q20 26 57 33l4 -8q-17 -4 -26 -13q-9 -11 -9 -30q0 -20 10 -29q12 -12 52 -12h189q40 0 52 12q10 9 10 29q0 36 -35 43l4 8q37 -7 57 -33q16 -20 16 -51q0 -39 -26 -65q-25 -24 -68 -24z" />
    <glyph glyph-name="cyrbreve" unicode="&#xf6d4;" horiz-adv-x="360" 
d="M129 624h102q36 0 50 10q15 10 15 30q0 31 -37 38q37 2 59 -24q17 -19 17 -47q0 -39 -34 -62q-29 -19 -79 -19h-84q-50 0 -79 19q-34 23 -34 62q0 28 17 47q22 26 59 24q-37 -7 -37 -38q0 -20 15 -30q14 -10 50 -10z" />
    <glyph glyph-name="nbspace" horiz-adv-x="233" 
 />
    </font>
</defs>
</svg>
