<svg width="63" height="65" viewBox="0 0 63 65" fill="none" xmlns="http://www.w3.org/2000/svg">
<path opacity="0.29" d="M43.9413 65H19.0587C8.5764 65 0 56.4217 0 45.937V19.063C0 8.57834 8.5764 0 19.0587 0H43.9413C54.4236 0 63 8.57834 63 19.063V45.937C63 56.4217 54.4236 65 43.9413 65Z" fill="#BC936F"/>
<path opacity="0.39" d="M31.5692 51.7101C41.9476 51.7101 50.361 43.2948 50.361 32.914C50.361 22.5332 41.9476 14.1179 31.5692 14.1179C21.1907 14.1179 12.7773 22.5332 12.7773 32.914C12.7773 43.2948 21.1907 51.7101 31.5692 51.7101Z" fill="#BC936F"/>
<path d="M27.8926 22.5342H24.0109L18.5776 41.8164H22.4593L23.4948 38.7028H27.8941L29.0583 41.8164H33.1988L27.8926 22.5342ZM24.1412 35.0872L25.8882 27.9703L27.505 35.0872H24.1412Z" fill="#BC936F"/>
<path d="M40.4423 22.5342H36.6909V41.8164H40.4423V22.5342Z" fill="#BC936F"/>
</svg>
