<svg width="53" height="53" viewBox="0 0 53 53" fill="none" xmlns="http://www.w3.org/2000/svg">
<path opacity="0.32" d="M26.5 53C41.1355 53 53 41.1355 53 26.5C53 11.8645 41.1355 0 26.5 0C11.8645 0 0 11.8645 0 26.5C0 41.1355 11.8645 53 26.5 53Z" fill="#BC936F"/>
<path opacity="0.9" d="M26.4847 18.9296C29.9043 18.9296 32.6764 16.1575 32.6764 12.7379C32.6764 9.31827 29.9043 6.54614 26.4847 6.54614C23.0651 6.54614 20.293 9.31827 20.293 12.7379C20.293 16.1575 23.0651 18.9296 26.4847 18.9296Z" fill="#BC936F"/>
<path opacity="0.9" d="M12.2161 28.7858C15.6357 28.7858 18.4079 26.0137 18.4079 22.5941C18.4079 19.1745 15.6357 16.4023 12.2161 16.4023C8.79655 16.4023 6.02441 19.1745 6.02441 22.5941C6.02441 26.0137 8.79655 28.7858 12.2161 28.7858Z" fill="#BC936F"/>
<path opacity="0.9" d="M40.3543 28.7858C43.7739 28.7858 46.5461 26.0137 46.5461 22.5941C46.5461 19.1745 43.7739 16.4023 40.3543 16.4023C36.9347 16.4023 34.1626 19.1745 34.1626 22.5941C34.1626 26.0137 36.9347 28.7858 40.3543 28.7858Z" fill="#BC936F"/>
<path opacity="0.9" d="M36.0374 44.3908C39.457 44.3908 42.2292 41.6187 42.2292 38.1991C42.2292 34.7795 39.457 32.0073 36.0374 32.0073C32.6178 32.0073 29.8457 34.7795 29.8457 38.1991C29.8457 41.6187 32.6178 44.3908 36.0374 44.3908Z" fill="#BC936F"/>
<path opacity="0.9" d="M17.6517 44.3908C21.0713 44.3908 23.8434 41.6187 23.8434 38.1991C23.8434 34.7795 21.0713 32.0073 17.6517 32.0073C14.2321 32.0073 11.46 34.7795 11.46 38.1991C11.46 41.6187 14.2321 44.3908 17.6517 44.3908Z" fill="#BC936F"/>
</svg>
