<svg width="189" height="48" viewBox="0 0 189 48" fill="none" xmlns="http://www.w3.org/2000/svg">
<path d="M81.7815 33.1222C76.6406 33.1222 72.4585 28.9739 72.4585 23.8745C72.4585 18.7751 76.6406 14.6268 81.7815 14.6268C83.86 14.6268 85.8267 15.2909 87.4694 16.5468C88.2499 17.1433 88.3948 18.2543 87.7934 19.0286C87.1919 19.8028 86.0719 19.9465 85.2914 19.3499C84.2784 18.5753 83.0648 18.1659 81.7815 18.1659C78.608 18.1659 76.0264 20.727 76.0264 23.8745C76.0264 27.0219 78.6084 29.5831 81.7815 29.5831C83.0485 29.5831 84.2497 29.1831 85.2555 28.4263C86.0404 27.8356 87.1597 27.988 87.7552 28.7666C88.3506 29.5452 88.197 30.6554 87.4121 31.246C85.7805 32.4731 83.8334 33.1222 81.7815 33.1222Z" fill="#BB926F"/>
<path d="M110.059 33.1222C109.074 33.1222 108.275 32.3298 108.275 31.3526V16.3963C108.275 15.4192 109.074 14.6268 110.059 14.6268C111.044 14.6268 111.843 15.4192 111.843 16.3963V31.3526C111.843 32.3298 111.044 33.1222 110.059 33.1222Z" fill="#BB926F"/>
<path d="M148.261 33.1222C147.776 33.1222 147.301 32.9259 146.956 32.5607L135.961 20.8838V31.353C135.961 32.3302 135.163 33.1226 134.178 33.1226C133.192 33.1226 132.394 32.3302 132.394 31.353V16.3963C132.394 15.6699 132.841 15.0169 133.523 14.75C134.205 14.4831 134.981 14.6572 135.481 15.1882L146.476 26.8652V16.3963C146.476 15.4192 147.275 14.6268 148.26 14.6268C149.245 14.6268 150.044 15.4192 150.044 16.3963V31.3526C150.044 32.0791 149.596 32.7321 148.915 32.999C148.702 33.0819 148.48 33.1222 148.261 33.1222Z" fill="#BB926F"/>
<path d="M188.484 30.8832L186.829 29.2238C187.896 27.7093 188.527 25.8714 188.527 23.8871C188.527 18.7344 184.301 14.5419 179.105 14.5419C173.91 14.5419 169.684 18.7344 169.684 23.8871C169.684 29.0402 173.91 33.2323 179.105 33.2323C181.013 33.2323 182.788 32.663 184.273 31.6925L185.948 33.3721C186.297 33.7219 186.757 33.8972 187.216 33.8972C187.67 33.8972 188.124 33.7266 188.471 33.3851C189.171 32.6981 189.177 31.5776 188.484 30.8832ZM179.105 29.6936C175.877 29.6936 173.252 27.089 173.252 23.8875C173.252 20.686 175.877 18.0814 179.105 18.0814C182.333 18.0814 184.958 20.686 184.958 23.8875C184.958 24.8824 184.681 25.8055 184.235 26.6247L182.217 24.6017C181.524 23.9072 180.394 23.9013 179.694 24.5887C178.994 25.276 178.988 26.3965 179.681 27.091L181.668 29.0824C180.891 29.4615 180.028 29.6936 179.105 29.6936Z" fill="#BB926F"/>
<path d="M7.48106 10.8579C9.78047 10.6364 10.7875 10.3628 12.456 9.27946C14.4573 7.98013 15.2295 5.77432 15.975 3.68852C15.4552 3.4315 14.8904 3.24357 14.2878 3.14289C11.5191 2.68057 8.87376 4.16625 7.7756 6.59434C7.7744 6.5971 7.77281 6.59908 7.77201 6.60184C7.77122 6.60303 7.77122 6.60421 7.77042 6.60579C7.72107 6.71515 7.67609 6.82728 7.6331 6.94059C7.61718 6.98323 7.60206 7.02548 7.58733 7.06772C7.55987 7.1455 7.53439 7.22407 7.51011 7.30342C7.49937 7.33896 7.48742 7.37488 7.47747 7.41042C7.41737 7.62046 7.36722 7.83563 7.3298 8.05593C7.20482 8.79226 7.22234 9.51911 7.36005 10.2104C7.39349 10.4268 7.43488 10.6423 7.48106 10.8579Z" fill="#BB926F"/>
<path d="M39.7024 10.8579C37.403 10.6364 36.396 10.3628 34.7275 9.27946C32.7262 7.98013 31.954 5.77432 31.2085 3.68852C31.7283 3.4315 32.2931 3.24357 32.8957 3.14289C35.6644 2.68057 38.3097 4.16625 39.4079 6.59434C39.4091 6.5971 39.4107 6.59908 39.4115 6.60184C39.4123 6.60303 39.4123 6.60421 39.4131 6.60579C39.4624 6.71515 39.5074 6.82728 39.5504 6.94059C39.5663 6.98323 39.5814 7.02548 39.5962 7.06772C39.6236 7.1455 39.6491 7.22407 39.6734 7.30342C39.6841 7.33896 39.6961 7.37488 39.706 7.41042C39.7661 7.62046 39.8163 7.83563 39.8537 8.05593C39.9787 8.79226 39.9612 9.51911 39.8234 10.2104C39.7904 10.4268 39.749 10.6423 39.7024 10.8579Z" fill="#BB926F"/>
<path d="M1.96156 25.6559C1.72553 25.9488 0.681893 27.4333 0.42596 28.7026C-0.2081 31.8473 2.03599 34.1676 5.15932 34.8483C5.26002 34.8712 5.3659 34.8886 5.47058 34.9071C5.87737 33.333 6.20296 31.2946 5.80134 30.0991C5.28908 28.5755 3.36939 26.7981 1.96156 25.6559Z" fill="#BB926F"/>
<path d="M44.7834 25.6559C45.0194 25.9488 46.063 27.4333 46.319 28.7026C46.953 31.8473 44.709 34.1676 41.5856 34.8483C41.4849 34.8712 41.379 34.8886 41.2744 34.9071C40.868 33.5265 40.4839 31.4955 40.9957 29.972C41.5076 28.4484 43.1718 26.9252 44.7834 25.6559Z" fill="#BB926F"/>
<path d="M18.4712 44.6977C18.5026 44.7506 18.6833 45.0873 18.716 45.1395C19.5904 46.6346 20.9788 47.6177 22.8324 47.9201C23.429 48.0176 24.0197 48.0236 24.5901 47.9505C24.6669 47.9434 24.772 47.9284 24.8986 47.9031C26.591 47.5964 27.9447 46.1486 28.8375 44.6977C27.3019 43.8089 25.894 42.7935 23.5902 42.7935C21.5555 42.7935 20.5505 43.4848 18.4712 44.6977Z" fill="#BB926F"/>
<path d="M44.0939 23.7106C44.4951 23.4678 44.8748 23.1757 45.2219 22.831C47.5802 20.4917 47.5802 16.6988 45.2219 14.3595C44.9743 14.1139 44.7096 13.8956 44.433 13.7014C43.6322 13.1143 42.5654 12.6235 41.2253 12.5801C36.0987 12.4147 35.2477 12.271 33.1134 10.8804C30.6695 9.28815 30.3189 6.3922 29.2088 3.95266C28.9194 3.15711 28.4557 2.40973 27.8157 1.76974C25.8375 -0.206687 22.8148 -0.528853 20.4959 0.809165C20.4935 0.810744 20.4911 0.811534 20.4884 0.813113C20.4872 0.813903 20.486 0.814692 20.4848 0.815087C20.3805 0.875493 20.2778 0.940243 20.1767 1.00776C20.1385 1.03302 20.1019 1.05869 20.0649 1.08474C19.9968 1.13212 19.9299 1.18108 19.8639 1.23161C19.834 1.25412 19.8034 1.27662 19.7743 1.29992C19.6019 1.43613 19.4352 1.58181 19.2752 1.73934C18.741 2.26523 18.3279 2.86614 18.0337 3.50731C16.7393 6.03055 16.5025 9.18984 13.899 10.8804C11.7604 12.269 10.905 12.4143 5.78238 12.5793C5.7772 12.5793 5.77203 12.5797 5.76685 12.5797C5.76407 12.5797 5.76128 12.5797 5.7585 12.5801C4.84701 12.6093 4.06249 12.845 3.40017 13.1759C2.81706 13.457 2.26977 13.8348 1.78418 14.3129C-0.510463 16.5724 -0.593253 20.2059 1.54456 22.5649C1.75552 22.803 1.99473 23.0351 2.26499 23.2578C6.22578 26.5185 6.92074 27.0227 7.82029 29.4003C8.9881 32.4861 6.91079 35.2309 6.70819 38.2788C6.54023 39.999 7.12015 41.7776 8.44838 43.0955C8.87586 43.5195 9.3523 43.8658 9.85899 44.1362C9.92586 44.1749 10.0198 44.2231 10.1376 44.276C12.1823 45.2346 14.6564 44.9902 16.4818 43.5436C20.4024 41.0792 21.1439 40.6118 23.6033 40.5012C26.3402 40.378 28.4263 42.3841 30.6242 43.7015C32.9865 45.4127 36.3176 45.2109 38.4506 43.0955C40.1311 41.4282 40.6131 39.0234 39.8986 36.9321C39.3163 34.4286 38.0586 31.9819 39.0604 29.3861C39.9309 27.1281 40.7401 26.0365 44.0939 23.7106Z" fill="#BB926F"/>
</svg>
