<svg width="52" height="52" viewBox="0 0 52 52" fill="none" xmlns="http://www.w3.org/2000/svg">
<path opacity="0.6" d="M32.492 39.3228C37.6876 39.3228 41.8995 35.1109 41.8995 29.9153C41.8995 24.7197 37.6876 20.5078 32.492 20.5078C27.2963 20.5078 23.0845 24.7197 23.0845 29.9153C23.0845 35.1109 27.2963 39.3228 32.492 39.3228Z" fill="#BC936F"/>
<path opacity="0.6" d="M19.5066 39.3228C24.7022 39.3228 28.9141 35.1109 28.9141 29.9153C28.9141 24.7197 24.7022 20.5078 19.5066 20.5078C14.311 20.5078 10.0991 24.7197 10.0991 29.9153C10.0991 35.1109 14.311 39.3228 19.5066 39.3228Z" fill="#BC936F"/>
<path opacity="0.6" d="M25.9998 28.7806C31.1954 28.7806 35.4073 24.5687 35.4073 19.3731C35.4073 14.1775 31.1954 9.96558 25.9998 9.96558C20.8042 9.96558 16.5923 14.1775 16.5923 19.3731C16.5923 24.5687 20.8042 28.7806 25.9998 28.7806Z" fill="#BC936F"/>
<path opacity="0.29" d="M26 52C40.3594 52 52 40.3594 52 26C52 11.6406 40.3594 0 26 0C11.6406 0 0 11.6406 0 26C0 40.3594 11.6406 52 26 52Z" fill="#BC936F"/>
</svg>
