<svg width="47" height="48" viewBox="0 0 47 48" fill="none" xmlns="http://www.w3.org/2000/svg">
<path d="M7.48106 10.8577C9.78047 10.6362 10.7875 10.3626 12.456 9.27921C14.4573 7.97989 15.2295 5.77407 15.975 3.68828C15.4552 3.43126 14.8904 3.24333 14.2878 3.14265C11.5191 2.68033 8.87376 4.166 7.7756 6.5941C7.7744 6.59686 7.77281 6.59883 7.77201 6.6016C7.77122 6.60278 7.77122 6.60397 7.77042 6.60555C7.72107 6.71491 7.67609 6.82704 7.6331 6.94035C7.61718 6.98299 7.60206 7.02523 7.58733 7.06748C7.55987 7.14525 7.53439 7.22382 7.51011 7.30318C7.49937 7.33871 7.48742 7.37464 7.47747 7.41017C7.41737 7.62021 7.36722 7.83539 7.3298 8.05569C7.20482 8.79202 7.22234 9.51887 7.36005 10.2102C7.39349 10.4265 7.43488 10.6421 7.48106 10.8577Z" fill="#BF946E"/>
<path d="M39.7024 10.8577C37.403 10.6362 36.396 10.3626 34.7275 9.27921C32.7262 7.97989 31.954 5.77407 31.2085 3.68828C31.7283 3.43126 32.2931 3.24333 32.8957 3.14265C35.6644 2.68033 38.3097 4.166 39.4079 6.5941C39.4091 6.59686 39.4107 6.59883 39.4115 6.6016C39.4123 6.60278 39.4123 6.60397 39.4131 6.60555C39.4624 6.71491 39.5074 6.82704 39.5504 6.94035C39.5663 6.98299 39.5814 7.02523 39.5962 7.06748C39.6236 7.14525 39.6491 7.22382 39.6734 7.30318C39.6841 7.33871 39.6961 7.37464 39.706 7.41017C39.7661 7.62021 39.8163 7.83539 39.8537 8.05569C39.9787 8.79202 39.9612 9.51887 39.8234 10.2102C39.7904 10.4265 39.749 10.6421 39.7024 10.8577Z" fill="#BF946E"/>
<path d="M1.96156 25.6562C1.72553 25.9492 0.681893 27.4337 0.42596 28.703C-0.2081 31.8477 2.03599 34.168 5.15932 34.8487C5.26002 34.8716 5.3659 34.8889 5.47058 34.9075C5.87737 33.3334 6.20296 31.295 5.80134 30.0995C5.28908 28.5759 3.36939 26.7984 1.96156 25.6562Z" fill="#BF946E"/>
<path d="M44.7834 25.6562C45.0194 25.9492 46.063 27.4337 46.319 28.703C46.953 31.8477 44.709 34.168 41.5856 34.8487C41.4849 34.8716 41.379 34.8889 41.2744 34.9075C40.868 33.5268 40.4839 31.4959 40.9957 29.9723C41.5076 28.4488 43.1718 26.9256 44.7834 25.6562Z" fill="#BF946E"/>
<path d="M18.4712 44.6981C18.5026 44.751 18.6833 45.0878 18.716 45.1399C19.5904 46.6351 20.9788 47.6182 22.8324 47.9206C23.429 48.0181 24.0197 48.024 24.5901 47.951C24.6669 47.9439 24.772 47.9289 24.8986 47.9036C26.591 47.5968 27.9447 46.1491 28.8375 44.6981C27.3019 43.8094 25.894 42.7939 23.5902 42.7939C21.5555 42.7939 20.5505 43.4853 18.4712 44.6981Z" fill="#BF946E"/>
<path d="M44.0939 23.7106C44.4951 23.4678 44.8748 23.1757 45.2219 22.831C47.5802 20.4917 47.5802 16.6988 45.2219 14.3595C44.9743 14.1139 44.7096 13.8956 44.433 13.7014C43.6322 13.1143 42.5654 12.6235 41.2253 12.5801C36.0987 12.4147 35.2477 12.271 33.1134 10.8804C30.6695 9.28815 30.3189 6.3922 29.2088 3.95266C28.9194 3.15711 28.4557 2.40973 27.8157 1.76974C25.8375 -0.206687 22.8148 -0.528853 20.4959 0.809165C20.4935 0.810744 20.4911 0.811534 20.4884 0.813113C20.4872 0.813903 20.486 0.814692 20.4848 0.815087C20.3805 0.875493 20.2778 0.940243 20.1767 1.00776C20.1385 1.03302 20.1019 1.05869 20.0649 1.08474C19.9968 1.13212 19.9299 1.18108 19.8639 1.23161C19.834 1.25412 19.8034 1.27662 19.7743 1.29992C19.6019 1.43613 19.4352 1.58181 19.2752 1.73934C18.741 2.26523 18.3279 2.86614 18.0337 3.50731C16.7393 6.03055 16.5025 9.18984 13.899 10.8804C11.7604 12.269 10.905 12.4143 5.78238 12.5793C5.7772 12.5793 5.77203 12.5797 5.76685 12.5797C5.76407 12.5797 5.76128 12.5797 5.7585 12.5801C4.84701 12.6093 4.06249 12.845 3.40017 13.1759C2.81706 13.457 2.26977 13.8348 1.78418 14.3129C-0.510463 16.5724 -0.593253 20.2059 1.54456 22.5649C1.75552 22.803 1.99473 23.0351 2.26499 23.2578C6.22578 26.5185 6.92074 27.0227 7.82029 29.4003C8.9881 32.4861 6.91079 35.2309 6.70819 38.2788C6.54023 39.999 7.12015 41.7776 8.44838 43.0955C8.87586 43.5195 9.3523 43.8658 9.85899 44.1362C9.92586 44.1749 10.0198 44.2231 10.1376 44.276C12.1823 45.2346 14.6564 44.9902 16.4818 43.5436C20.4024 41.0792 21.1439 40.6118 23.6033 40.5012C26.3402 40.378 28.4263 42.3841 30.6242 43.7015C32.9865 45.4127 36.3176 45.2109 38.4506 43.0955C40.1311 41.4282 40.6131 39.0234 39.8986 36.9321C39.3163 34.4286 38.0586 31.9819 39.0604 29.3861C39.9309 27.1281 40.7401 26.0365 44.0939 23.7106Z" fill="#BF946E"/>
</svg>
