<svg width="154" height="40" viewBox="0 0 154 40" fill="none" xmlns="http://www.w3.org/2000/svg">
<path d="M19.909 0C8.93113 0 0 8.97196 0 20C0 31.028 8.93113 40 19.909 40C30.9488 40 39.818 31.028 39.818 20C39.818 8.97196 30.9488 0 19.909 0ZM24.1885 24.0498C24.1265 24.1122 24.1265 24.1745 24.0644 24.2368L17.118 31.1527C17.118 31.1527 17.118 31.1526 17.056 31.215C16.8699 31.4019 16.6218 31.4642 16.3737 31.4642C15.8155 31.4642 15.3814 31.028 15.3814 30.4673C15.3814 30.2181 15.5054 29.9688 15.6295 29.7819C15.6295 29.7819 15.6295 29.7819 15.6915 29.7196L22.5759 22.8037L22.6379 22.7414C22.824 22.6168 23.0101 22.4922 23.2582 22.4922C23.8163 22.4922 24.2505 22.9284 24.2505 23.4891C24.3125 23.7383 24.2505 23.9252 24.1885 24.0498ZM17.4901 21.0592L20.9013 17.6324C21.2735 17.2586 21.8937 17.2586 22.2658 17.6324C22.6379 18.0062 22.6379 18.6293 22.2038 19.0031L18.8546 22.4299C18.6685 22.6168 18.4205 22.7414 18.1724 22.7414C17.9243 22.7414 17.6762 22.6168 17.4901 22.4299C17.118 22.0561 17.118 21.433 17.4901 21.0592ZM24.1885 10.1558C24.1265 10.2181 24.1265 10.2804 24.0644 10.3427L17.118 17.2586C17.118 17.2586 17.118 17.2586 17.056 17.3209C16.8699 17.5078 16.6218 17.5701 16.3737 17.5701C15.8155 17.5701 15.3814 17.134 15.3814 16.5732C15.3814 16.324 15.5054 16.0748 15.6295 15.8879C15.6295 15.8879 15.6295 15.8879 15.6915 15.8255L22.5759 8.90966L22.6379 8.84735C22.824 8.72274 23.0101 8.59813 23.2582 8.59813C23.8163 8.59813 24.2505 9.03427 24.2505 9.59502C24.3125 9.84424 24.2505 10.0312 24.1885 10.1558Z" fill="#BF946E"/>
<path d="M68.658 16.5733H65.1227C64.9987 14.8911 63.8823 14.0188 61.8976 14.0188C61.0293 14.0188 60.3471 14.2057 59.9129 14.5172C59.4167 14.8911 59.1687 15.3272 59.1687 15.9502C59.1687 16.1372 59.2307 16.3241 59.2927 16.511C59.3547 16.6979 59.4788 16.8225 59.6648 16.9471C59.8509 17.0717 60.037 17.1964 60.161 17.2587C60.3471 17.321 60.5951 17.4456 60.9053 17.5702C61.2774 17.6948 61.5255 17.7571 61.8356 17.8194C62.0837 17.8817 62.5178 18.0063 63.014 18.1309C63.5102 18.2555 63.9443 18.3802 64.3785 18.5048C66.0531 19.0032 67.2935 19.564 68.0998 20.3116C68.9061 21.0593 69.3402 22.0562 69.3402 23.4269C69.3402 24.4238 69.1542 25.2337 68.72 25.9814C68.3479 26.7291 67.7897 27.2898 67.1074 27.7259C66.4252 28.1621 65.6809 28.4736 64.8747 28.6605C64.0684 28.8474 63.2001 28.9721 62.3318 28.9721C60.037 28.9721 58.2383 28.4113 56.9359 27.3521C55.6334 26.2929 55.0132 24.7976 54.9512 22.8661H58.6725C58.7345 24.9845 60.037 26.0437 62.5178 26.0437C63.5102 26.0437 64.2544 25.8568 64.8126 25.4206C65.3708 24.9845 65.6809 24.4861 65.6809 23.7384C65.6809 23.1777 65.4328 22.7415 64.9367 22.43C64.4405 22.1808 63.3241 21.8069 61.7115 21.3085C61.4635 21.2462 61.2154 21.1839 61.0913 21.1216C60.5331 20.9347 60.099 20.8724 59.9129 20.7478C59.6648 20.6854 59.3547 20.5608 58.8585 20.3739C58.3624 20.187 57.9902 20.0624 57.8042 19.8755C57.5561 19.7509 57.308 19.5016 56.9979 19.2524C56.6878 19.0032 56.4397 18.754 56.3157 18.4425C56.1916 18.1932 56.0676 17.8194 55.9435 17.3833C55.8195 16.9471 55.7575 16.511 55.7575 16.0749C55.7575 14.5172 56.3777 13.2711 57.5561 12.3365C58.7345 11.402 60.3471 10.9658 62.2697 10.9658C64.1924 10.9658 65.743 11.402 66.9214 12.3365C68.0378 13.3957 68.658 14.7041 68.658 16.5733Z" fill="#BF946E"/>
<path d="M84.0394 11.0898C86.5203 11.0898 88.505 11.8998 90.0555 13.5821C91.6061 15.202 92.3503 17.3827 92.3503 20.0618C92.3503 22.7409 91.6061 24.8593 90.0555 26.5416C88.505 28.1615 86.5203 28.9715 84.0394 28.9715C81.5586 28.9715 79.5119 28.1615 77.9613 26.5416C76.4108 24.9216 75.6665 22.7409 75.6665 20.0618C75.6665 17.3827 76.4108 15.202 77.9613 13.5821C79.4498 11.8998 81.4965 11.0898 84.0394 11.0898ZM83.9774 14.1428C82.5509 14.1428 81.4345 14.6412 80.6282 15.7004C79.822 16.7596 79.3878 18.1926 79.3878 19.9372C79.3878 21.7441 79.822 23.1771 80.6282 24.2363C81.4345 25.2955 82.6129 25.7939 84.0394 25.7939C85.4659 25.7939 86.5823 25.2955 87.3886 24.2363C88.1949 23.1771 88.629 21.7441 88.629 19.9372C88.629 18.1303 88.1949 16.7596 87.3886 15.7004C86.5203 14.6412 85.4039 14.1428 83.9774 14.1428Z" fill="#BF946E"/>
<path d="M111.639 25.2966V28.4742H99.6069V11.4648H103.328V25.2966H111.639Z" fill="#BF946E"/>
<path d="M126.959 11.4648L133.409 28.5365H129.502L128.137 24.7359H121.811L120.446 28.5365H116.663L123.113 11.4648H126.959ZM127.269 21.9944L125.036 15.6393L122.803 21.9944H127.269Z" fill="#BF946E"/>
<path d="M152.263 19.9384C152.635 19.6268 152.945 19.3153 153.194 18.8792C153.256 18.7546 153.318 18.63 153.442 18.443C153.442 18.443 153.442 18.3807 153.504 18.3807C153.504 18.3184 153.566 18.3184 153.566 18.2561C153.628 18.1938 153.628 18.0692 153.69 18.0069C153.69 18.0069 153.69 18.0069 153.69 17.9446C153.752 17.82 153.752 17.7577 153.814 17.6331V17.5708C153.814 17.5085 153.876 17.4462 153.876 17.3838C153.938 17.01 154 16.6362 154 16.2624C154 14.6424 153.442 13.3963 152.387 12.6486C151.333 11.8387 149.968 11.4648 148.294 11.4648H139.859V28.4742H143.58V21.8698H145.317C145.379 21.8698 146.929 21.8698 146.929 21.8698L150.092 28.5365H154L150.279 21.1845C151.085 20.8106 151.767 20.4368 152.263 19.9384ZM143.456 14.3932H147.177C148.108 14.3932 148.914 14.5801 149.472 14.8916C150.03 15.2032 150.341 15.8262 150.341 16.6985C150.341 17.6331 150.03 18.3184 149.472 18.63C148.914 18.9415 148.108 19.1284 147.053 19.1284H143.518V14.3932H143.456Z" fill="#BF946E"/>
</svg>
