<svg width="55" height="51" viewBox="0 0 55 51" fill="none" xmlns="http://www.w3.org/2000/svg">
<path d="M1 9.22949H54" stroke="#BC936F" stroke-width="2" stroke-miterlimit="10" stroke-linecap="round" stroke-linejoin="round"/>
<path d="M1 41.7706H54" stroke="#BC936F" stroke-width="2" stroke-miterlimit="10" stroke-linecap="round" stroke-linejoin="round"/>
<path opacity="0.32" d="M43.7035 35.8254C48.8153 35.8254 52.9593 31.6932 52.9593 26.5959C52.9593 21.4986 48.8153 17.3665 43.7035 17.3665C38.5917 17.3665 34.4478 21.4986 34.4478 26.5959C34.4478 31.6932 38.5917 35.8254 43.7035 35.8254Z" fill="#BC936F"/>
<path d="M1 26.5959H54" stroke="#BC936F" stroke-width="2" stroke-miterlimit="10" stroke-linecap="round" stroke-linejoin="round"/>
<path opacity="0.74" d="M43.7036 31.5449C46.4448 31.5449 48.667 29.3291 48.667 26.5956C48.667 23.8622 46.4448 21.6464 43.7036 21.6464C40.9624 21.6464 38.7402 23.8622 38.7402 26.5956C38.7402 29.3291 40.9624 31.5449 43.7036 31.5449Z" fill="#BC936F"/>
<path opacity="0.32" d="M29.4843 18.4589C34.5961 18.4589 38.74 14.3267 38.74 9.22945C38.74 4.13216 34.5961 0 29.4843 0C24.3725 0 20.2285 4.13216 20.2285 9.22945C20.2285 14.3267 24.3725 18.4589 29.4843 18.4589Z" fill="#BC936F"/>
<path opacity="0.74" d="M29.4844 14.1786C32.2256 14.1786 34.4478 11.9627 34.4478 9.22931C34.4478 6.4959 32.2256 4.28003 29.4844 4.28003C26.7432 4.28003 24.521 6.4959 24.521 9.22931C24.521 11.9627 26.7432 14.1786 29.4844 14.1786Z" fill="#BC936F"/>
<path opacity="0.32" d="M16.3764 51C21.4882 51 25.6321 46.8679 25.6321 41.7706C25.6321 36.6733 21.4882 32.5411 16.3764 32.5411C11.2645 32.5411 7.12061 36.6733 7.12061 41.7706C7.12061 46.8679 11.2645 51 16.3764 51Z" fill="#BC936F"/>
<path opacity="0.74" d="M16.3765 46.7197C19.1177 46.7197 21.3399 44.5039 21.3399 41.7705C21.3399 39.037 19.1177 36.8212 16.3765 36.8212C13.6353 36.8212 11.4131 39.037 11.4131 41.7705C11.4131 44.5039 13.6353 46.7197 16.3765 46.7197Z" fill="#BC936F"/>
</svg>
