<svg width="62" height="64" viewBox="0 0 62 64" fill="none" xmlns="http://www.w3.org/2000/svg">
<path opacity="0.32" d="M31.0678 50.9144C41.2815 50.9144 49.5613 42.6285 49.5613 32.4074C49.5613 22.1863 41.2815 13.9005 31.0678 13.9005C20.8541 13.9005 12.5742 22.1863 12.5742 32.4074C12.5742 42.6285 20.8541 50.9144 31.0678 50.9144Z" fill="#BC936F"/>
<path opacity="0.29" d="M43.2439 64H18.7561C8.44027 64 0 55.5536 0 45.2303V18.7697C0 8.44637 8.44027 0 18.7561 0H43.2439C53.5597 0 62 8.44637 62 18.7697V45.2303C62 55.5536 53.5597 64 43.2439 64Z" fill="#BC936F"/>
<path opacity="0.9" d="M31.0475 23.1492C35.2264 23.1492 38.614 19.759 38.614 15.5771C38.614 11.3952 35.2264 8.00513 31.0475 8.00513C26.8686 8.00513 23.481 11.3952 23.481 15.5771C23.481 19.759 26.8686 23.1492 31.0475 23.1492Z" fill="#BC936F"/>
<path opacity="0.9" d="M13.6124 35.2025C17.7913 35.2025 21.179 31.8124 21.179 27.6305C21.179 23.4486 17.7913 20.0585 13.6124 20.0585C9.43355 20.0585 6.0459 23.4486 6.0459 27.6305C6.0459 31.8124 9.43355 35.2025 13.6124 35.2025Z" fill="#BC936F"/>
<path opacity="0.9" d="M47.9987 35.2025C52.1776 35.2025 55.5652 31.8124 55.5652 27.6305C55.5652 23.4486 52.1776 20.0585 47.9987 20.0585C43.8198 20.0585 40.4321 23.4486 40.4321 27.6305C40.4321 31.8124 43.8198 35.2025 47.9987 35.2025Z" fill="#BC936F"/>
<path opacity="0.9" d="M42.7233 54.2865C46.9022 54.2865 50.2898 50.8964 50.2898 46.7145C50.2898 42.5326 46.9022 39.1425 42.7233 39.1425C38.5444 39.1425 35.1567 42.5326 35.1567 46.7145C35.1567 50.8964 38.5444 54.2865 42.7233 54.2865Z" fill="#BC936F"/>
<path opacity="0.9" d="M20.255 54.2865C24.4339 54.2865 27.8216 50.8964 27.8216 46.7145C27.8216 42.5326 24.4339 39.1425 20.255 39.1425C16.0761 39.1425 12.6885 42.5326 12.6885 46.7145C12.6885 50.8964 16.0761 54.2865 20.255 54.2865Z" fill="#BC936F"/>
</svg>
