<svg width="63" height="65" viewBox="0 0 63 65" fill="none" xmlns="http://www.w3.org/2000/svg">
<path opacity="0.29" d="M43.9413 65H19.0587C8.5764 65 0 56.4217 0 45.937V19.063C0 8.57834 8.5764 0 19.0587 0H43.9413C54.4236 0 63 8.57834 63 19.063V45.937C63 56.4217 54.4236 65 43.9413 65Z" fill="#BC936F"/>
<path opacity="0.39" d="M31.5692 51.7099C41.9476 51.7099 50.361 43.2946 50.361 32.9138C50.361 22.533 41.9476 14.1177 31.5692 14.1177C21.1907 14.1177 12.7773 22.533 12.7773 32.9138C12.7773 43.2946 21.1907 51.7099 31.5692 51.7099Z" fill="#BC936F"/>
<path opacity="0.74" d="M31.5835 51.9659C38.4674 51.9659 44.0479 46.8564 44.0479 40.5535C44.0479 34.2506 38.4674 29.1411 31.5835 29.1411C24.6996 29.1411 19.1191 34.2506 19.1191 40.5535C19.1191 46.8564 24.6996 51.9659 31.5835 51.9659Z" fill="#BB926F"/>
<path opacity="0.87" d="M46.3115 22.5532C49.1824 22.5532 51.5098 20.4224 51.5098 17.7938C51.5098 15.1653 49.1824 13.0344 46.3115 13.0344C43.4406 13.0344 41.1133 15.1653 41.1133 17.7938C41.1133 20.4224 43.4406 22.5532 46.3115 22.5532Z" fill="#BB926F"/>
<path opacity="0.86" d="M36.8151 22.5515H25.183C24.4476 22.5515 23.8521 23.1472 23.8521 23.8827V35.5175C23.8521 36.253 24.4476 36.8487 25.183 36.8487H36.8151C37.5505 36.8487 38.146 36.253 38.146 35.5175V23.8827C38.146 23.1488 37.5505 22.5515 36.8151 22.5515Z" fill="#BB926F"/>
<path d="M30.999 24.6704V17.7935H46.3111" stroke="#BB926F" stroke-miterlimit="10" stroke-linecap="round" stroke-linejoin="round"/>
<path d="M28.0107 17.7935H30.9998" stroke="#BB926F" stroke-miterlimit="10" stroke-linecap="round" stroke-linejoin="round"/>
<path d="M24.4898 16.709C24.9968 16.709 25.4078 16.2979 25.4078 15.7908C25.4078 15.2836 24.9968 14.8726 24.4898 14.8726C23.9828 14.8726 23.5718 15.2836 23.5718 15.7908C23.5718 16.2979 23.9828 16.709 24.4898 16.709Z" fill="#BB926F"/>
<path d="M20.2544 14.1177C20.7614 14.1177 21.1724 13.7066 21.1724 13.1995C21.1724 12.6923 20.7614 12.2812 20.2544 12.2812C19.7474 12.2812 19.3364 12.6923 19.3364 13.1995C19.3364 13.7066 19.7474 14.1177 20.2544 14.1177Z" fill="#BB926F"/>
<path d="M24.4898 19.959C24.9968 19.959 25.4078 19.5479 25.4078 19.0408C25.4078 18.5337 24.9968 18.1226 24.4898 18.1226C23.9828 18.1226 23.5718 18.5337 23.5718 19.0408C23.5718 19.5479 23.9828 19.959 24.4898 19.959Z" fill="#BB926F"/>
<path d="M20.2544 18.1225C20.7614 18.1225 21.1724 17.7114 21.1724 17.2043C21.1724 16.6972 20.7614 16.2861 20.2544 16.2861C19.7474 16.2861 19.3364 16.6972 19.3364 17.2043C19.3364 17.7114 19.7474 18.1225 20.2544 18.1225Z" fill="#BB926F"/>
<path d="M15.565 18.1225C16.072 18.1225 16.483 17.7114 16.483 17.2043C16.483 16.6972 16.072 16.2861 15.565 16.2861C15.058 16.2861 14.647 16.6972 14.647 17.2043C14.647 17.7114 15.058 18.1225 15.565 18.1225Z" fill="#BB926F"/>
<path d="M15.565 11.0708C16.072 11.0708 16.483 10.6597 16.483 10.1526C16.483 9.64547 16.072 9.23438 15.565 9.23438C15.058 9.23438 14.647 9.64547 14.647 10.1526C14.647 10.6597 15.058 11.0708 15.565 11.0708Z" fill="#BB926F"/>
<path d="M15.565 25.5886C16.072 25.5886 16.483 25.1775 16.483 24.6704C16.483 24.1633 16.072 23.7522 15.565 23.7522C15.058 23.7522 14.647 24.1633 14.647 24.6704C14.647 25.1775 15.058 25.5886 15.565 25.5886Z" fill="#BB926F"/>
<path d="M20.2544 22.1496C20.7614 22.1496 21.1724 21.7385 21.1724 21.2314C21.1724 20.7243 20.7614 20.3132 20.2544 20.3132C19.7474 20.3132 19.3364 20.7243 19.3364 21.2314C19.3364 21.7385 19.7474 22.1496 20.2544 22.1496Z" fill="#BB926F"/>
</svg>
