<svg width="53" height="54" viewBox="0 0 53 54" fill="none" xmlns="http://www.w3.org/2000/svg">
<path d="M27.4111 49.0178L50.0622 38.4783" stroke="#BC936F" stroke-width="2" stroke-miterlimit="10" stroke-linecap="round" stroke-linejoin="round"/>
<path d="M27.0378 49.056L3.06836 38.531" stroke="#BC936F" stroke-width="2" stroke-miterlimit="10" stroke-linecap="round" stroke-linejoin="round"/>
<path d="M27.0171 49.1825V27.8787" stroke="#BC936F" stroke-width="2" stroke-miterlimit="10" stroke-linecap="round" stroke-linejoin="round"/>
<path opacity="0.54" d="M27.0172 53.9998C29.7635 53.9998 31.9899 51.7761 31.9899 49.0331C31.9899 46.2901 29.7635 44.0664 27.0172 44.0664C24.2708 44.0664 22.0444 46.2901 22.0444 49.0331C22.0444 51.7761 24.2708 53.9998 27.0172 53.9998Z" fill="#BC936F"/>
<path opacity="0.39" d="M27.0171 8.17424C33.4894 8.17424 38.7363 6.34438 38.7363 4.08712C38.7363 1.82987 33.4894 0 27.0171 0C20.5447 0 15.2979 1.82987 15.2979 4.08712C15.2979 6.34438 20.5447 8.17424 27.0171 8.17424Z" fill="#BC936F"/>
<path opacity="0.39" d="M27.0171 42.558C33.4894 42.558 38.7363 40.7282 38.7363 38.4709C38.7363 36.2137 33.4894 34.3838 27.0171 34.3838C20.5447 34.3838 15.2979 36.2137 15.2979 38.4709C15.2979 40.7282 20.5447 42.558 27.0171 42.558Z" fill="#BC936F"/>
<path opacity="0.29" d="M38.7363 38.4705C38.7363 33.02 15.2979 33.02 15.2979 38.4705V4.08691C15.2979 9.53745 38.7363 9.53745 38.7363 4.08691V38.4705Z" fill="#BC936F"/>
<path d="M46.8633 35.8269L51.9999 37.0391L50.7489 42.3269" stroke="#BC936F" stroke-width="2" stroke-miterlimit="10" stroke-linecap="round" stroke-linejoin="round"/>
<path d="M23.228 30.9283L26.9031 27.1448L30.8074 30.9283" stroke="#BC936F" stroke-width="2" stroke-miterlimit="10" stroke-linecap="round" stroke-linejoin="round"/>
<path d="M3.03722 42.8048L1 37.9416L6.01837 35.8447" stroke="#BC936F" stroke-width="2" stroke-miterlimit="10" stroke-linecap="round" stroke-linejoin="round"/>
</svg>
