<svg width="37" height="53" viewBox="0 0 37 53" fill="none" xmlns="http://www.w3.org/2000/svg">
<path opacity="0.54" d="M18.3949 52.9999C22.1832 52.9999 25.2542 49.9573 25.2542 46.2039C25.2542 42.4506 22.1832 39.408 18.3949 39.408C14.6067 39.408 11.5356 42.4506 11.5356 46.2039C11.5356 49.9573 14.6067 52.9999 18.3949 52.9999Z" fill="#BC936F"/>
<path opacity="0.54" d="M4.65706 28.1962C7.22908 28.1962 9.31411 26.1304 9.31411 23.5821C9.31411 21.0338 7.22908 18.968 4.65706 18.968C2.08504 18.968 0 21.0338 0 23.5821C0 26.1304 2.08504 28.1962 4.65706 28.1962Z" fill="#BC936F"/>
<path opacity="0.54" d="M24.1749 5.57653L18.3735 0L12.9131 5.57653H24.1749Z" fill="#BC936F"/>
<path opacity="0.54" d="M37.0002 10.3057H27.686V19.5338H37.0002V10.3057Z" fill="#BC936F"/>
<path d="M18.395 4.84009V46.204" stroke="#BC936F" stroke-width="2" stroke-miterlimit="10" stroke-linecap="round" stroke-linejoin="round"/>
<path d="M32.3432 14.9202V25.413L18.5449 30.0646" stroke="#BC936F" stroke-width="2" stroke-miterlimit="10" stroke-linecap="round" stroke-linejoin="round"/>
<path d="M4.65723 23.582V30.8669L18.3953 34.7168" stroke="#BC936F" stroke-width="2" stroke-miterlimit="10" stroke-linecap="round" stroke-linejoin="round"/>
</svg>
