<svg width="54" height="41" viewBox="0 0 54 41" fill="none" xmlns="http://www.w3.org/2000/svg">
<path d="M37.1446 12.6191C39.8801 18.0079 39.773 23.2902 37.1446 28.3822" stroke="#BC936F" stroke-width="2" stroke-miterlimit="10" stroke-linecap="round" stroke-linejoin="round"/>
<path d="M41.7774 5.98218C47.1511 15.9934 47.1132 24.9609 41.7774 35.0167" stroke="#BC936F" stroke-width="2" stroke-miterlimit="10" stroke-linecap="round" stroke-linejoin="round"/>
<path d="M47.4918 1C54.7808 14.116 54.8911 25.5958 47.4918 40" stroke="#BC936F" stroke-width="2" stroke-miterlimit="10" stroke-linecap="round" stroke-linejoin="round"/>
<path d="M16.8545 28.3822C14.119 22.9934 14.2261 17.7112 16.8545 12.6191" stroke="#BC936F" stroke-width="2" stroke-miterlimit="10" stroke-linecap="round" stroke-linejoin="round"/>
<path d="M12.2227 35.0179C6.84901 25.0067 6.88688 16.0391 12.2227 5.9834" stroke="#BC936F" stroke-width="2" stroke-miterlimit="10" stroke-linecap="round" stroke-linejoin="round"/>
<path d="M6.50781 40C-0.78113 26.884 -0.89042 15.4042 6.50781 1" stroke="#BC936F" stroke-width="2" stroke-miterlimit="10" stroke-linecap="round" stroke-linejoin="round"/>
<path opacity="0.9" d="M23.9489 20.5047C23.9489 22.4266 25.4997 23.9846 27.4127 23.9846C29.3257 23.9846 30.8765 22.4266 30.8765 20.5047C30.8765 18.5829 29.3257 17.0249 27.4127 17.0249C25.4997 17.0249 23.9489 18.5829 23.9489 20.5047Z" fill="#BC936F"/>
<path opacity="0.32" d="M20.8686 20.5136C20.8686 24.1447 23.7986 27.0884 27.4131 27.0884C31.0275 27.0884 33.9575 24.1447 33.9575 20.5136C33.9575 16.8824 31.0275 13.9387 27.4131 13.9387C23.7986 13.9387 20.8686 16.8824 20.8686 20.5136Z" fill="#BC936F"/>
</svg>
